<svg xmlns="http://www.w3.org/2000/svg" viewBox="0 0 400 400">
  <g fill-rule="evenodd">
    <path d="M177 1v1l1-1h2l3-1-6 1m17 0l-5 1-6-1c1 0 1 0 0 0h-6l-1 1-8 1c-1-1-2 0-2 1h-3-4c1 0 0 0 0 0h-1v1c0 1 0 1 0 0h-1l-1 1h-1l2-2-1 1h-1l-1 1c1 0 0 0 0 0h-1-2 1l1 1h-2-1V6c0-1 0-1 0 0l-1 1-2 1c0 1 0 1 0 0s0-1 0 0h-2l-1 1h-3l-2 1-2 1-1-1-1 1h-1c0-1 0-1 0 0v1h-2l-2 1h-1-1v1h0-1l-1 1c1 0 1 0 0 0v-1h-1v1h-1-3v1c1 1 1 1-1 1l-1 1v-1h1v-1l-1 1-1 1c1 1 0 1-1 1l-1-1c0 1-1 2-3 2 0 0 0 1 0 0h-2c0 1 0 1 0 0h1c1 1-1 1-1 1h-1v1l-2-1 1 1-1 1h-1c-1 0-2 0-2 2h-1c0 1 0 0 0 0h-1c0-1 0-1 0 0h-1v2h-1v-1l-1 1-1 1h-1l-1 1c0 1 0 1 0 0l-1-1v1h-1l1 1-1 1h-1v-1l-1 1v1h-1-1c1 1 0 2-2 2l-1 1c0-1 0-1 0 0v1h-3l-1 1v1h-1l-1 1v-1h1l-2 1v1h-1l-2 3h-1-1l-1 1-1 1h-1v1l-1 1c0-1 0 0 0 0l-1 1v-1l-1 1-2 2-1 1-2 1s-1 0 0 0l-1 1v1h-1c1 1 0 2-1 1 1 1-2 3-3 3 0-1 0-1 0 0 1 1 0 2-1 1l-1 2-2 1-1 1v1h-1l-1 1c0-1 0 0 0 0l-1 2-1 1v1l-1 1-1 2h-1s-1 0 0 0l-2 2-2 1v3l-2 2-2 2v1l-1 1h-1l-1 1v1h-1v3h-1l-1 1c1 1 1 1 0 0h-1v2c-1 0-1 0 0 0l-1 1-1 1h1v1l-1 1-1 1h-1v1 1l-1 1v2h-1l-1 1c-1 0-1 0 0 0v1c-1-1-1 0-1 1h-1l1 1c1-1 1 0 0 0l-1 1v1l-1 1-1 2v1h-1v2l-1 2h-1v1 1l-1 1v1l1-1-1 1c0 2 0 2-1 1h-1v4h-1l1 1c0 1 0 1 0 0l-1 1v1h-1v2l-1 2v2h-1c-1 0-1 0 0 0v1l-1 1 1 1c0-1 0 0 0 0l-1 1-1 3v1H8s-1 0 0 0v3s0 1 0 0v1H7c-1 0-1 0 0 0v3l-2 1h2v1H6v1 2c0 1 0 1 0 0l-1 2v2l-1 4-1 3v1c0 1 0 1 0 0H2v1l1 1v3l-1 2c-1 0-1 0 0 0v1H1v1l1 2v5l-1 4v20l1 5v9 3c0 1 0 0 0 0l1 4a342 342 0 0 0 1 13c1 0 1 0 0 0v1h1v1l1 3c0-1 0-1 0 0v1l1 3-1-1c0-2 0-2 0 0l1 1v1l1 1v1c-1 0-1 0 0 0v2l1 1c0 1 0 1 0 0-1 0 0 0 0 0l-1 4c0-1 0-1 0 0h1l1-1v1l-1 1 1 1h1v1 2 1h1v2c0-1 0 0 0 0v1l1 1v2l1 1h1l-1 1 1 1v1l1 1-1 1 1 1h2l-1 1v1h1l1 1v3l1 1v1 1h1c-1 0-1 0 0 0v2h1l1 2c-1 0-1 0 0 0v1 1l1 1 1 1 1 1v1h1v1l1 1v2l1 1c1 1 1 1 0 0v1h1l1 1v1l1 1 1 2 1 1c1 0 0 0 0 0v1h1v1c1 0 2 1 1 2l1 2c2 0 2 1 1 1v2h1v-1h-1c1-1 1 0 1 1l2 1 1 1v3h1v1h2l1 1 3 3 1 1c0 1 0 2-1 1h-1a1 1 0 0 1 1 1c-1 0-1 0 0 0l1 1v-1h1a9 9 0 0 0 1 1v1h-1l1 1v1h1l1 1v-1c0-1 0-1 0 0v1l1 1c1-1 1-1 0 0v-1l2 2a327 327 0 0 0 3 2c3 3 4 4 3 5 1 0 3 1 3 3v-1c0-1 1-1 1 1l1 1v1c-1 0 0 0 0 0h1c1 0 1 0 0 0v1h1c0 1 0 1 0 0h1l1 1h1v2h1l1 1 1 1h1c-1 0 0 0 0 0l1 1h1l1 1v1l1 1 1 1v-1h1l1 1h1v2l1 1v-1h2v1h-1 1l1 1 1 1h2l1 1v1h2l1 1v1h1l1 1c0-1 0 0 0 0h1v-1l1 2h1l1 1 2 1v-1l1 1h1l3 3v1l1-1 1 1h1v1h2l3 2c0-1 0-2 1-1l1 1 2 1 2 1h1l1 1h1c1 0 1 0 0 0l1 1 1 1v-1h2l1 1h1l1 1c-1 0 0 1 0 0l1 1h3l1 1h3s0 1 0 0l1 1h2c0 1 0 1 0 0h2v1c0-1 0 0 0 0h2v1h1v1h1c1 0 1 0 0 0-1-1 0-1 1-1h2-1v1h5l2 1 1 1h6l1 1h2 3c3 0 4 0 3 1a1 1 0 0 0 1 0c0 1 0 1 0 0h7l-3 1c-4-1-3 0 0 0h3v-1h6l5 1-5 1h15l1-1 8-1h8c-1 0-1 1 1 1l1-1 4-1v1l1-1h5c-1-1 0-1 1-1a35 35 0 0 0 2-1l1 1h-1c-1 0-1 0 0 0h5-2v-1l2-1h1l3 1h1v-2h1c-1 1-1 1 0 0h3l1-1h1v-1h1v1c0 1 0 1 0 0h1v-1l2 1h0v-2h3c-1 1 0 1 0 0l1-1h4l1-1c0 1 0 1 0 0h3l1-2h1v1l1-1c0 1 0 1 0 0l1-1 1 1 1-1 1-1 2-1h1v-1l1 1h1v-1c0 1 0 1 0 0l1-1c-1 0 0 0 0 0l1 1 1-1 1-1 2-1 1-1h2v-1h1c-1 0-1 0 0 0l1-1 1-1h2l2-1 1 1v-1c0-1 0-1 0 0l1-1h1c-1 0-1 0 0 0v-1h1c0-1 0-1 0 0h-1 1v-1l1-1h1l1 1 1-1h-1c1 0 0 0 0 0l1-1 2-1 1-1v-1l1 1 1-1c0 1 0 0 0 0h1v-1h1v-1h1c0-1 0-1 0 0h1v-1h1v-1h1l1-1 3-1 1-2 1-1 1-1c0-1 1-1 0 0h1l1-1 1-1 2-2h1l1-1c-1-1 0-1 1-1l1-1s1 0 0 0l1 1v-1c0-2 0-2 0 0h1c0-1 0 0 0 0v-1c0-2 0-2 1-1 1 0 2 0 2-2v-1l1 1c-1 0 0 0 0 0l1-1v-1h1l1-1 1-1 1-1v-1h1l1-1s0-1 0 0l-1-1h1c2 0 2-1 2-2-1-1-1-1 1-1l1 1-1-1-1-1 1-1 2-1c0-1 0-2 1-1l1-1 1-2c1 0 2 0 1-1l1-1 1-1v-1c-1 1-1 0 0 0l1-1 1-1v1l1-1 1-1c0 1 0 1 0 0v-1l1-2 1-1v-1h1v-1h1v-1c-1 0-1 0 0 0v-1h1v-1h1v-1s1 0 0 0l1-1-1-1h1l1-1 1-2 1-1s0 1 0 0v1l1-1-1-1v-1l1-1h1v-1 1c-1 0-1 0 0 0v-1h1c0-1 0-1 0 0v-1l1-1c-1 0-1 0 0 0v-1-1 1h1v-2-2l1-1 1-1c0-1 0-1 0 0v-1h1v-2l1-1 1-2 1-1 1-1-1-1s0-1 0 0l1-1c1 0 1 0 0 0h1v-1l-1-1h2v-3 1h1v-1h-1v-1l1-2c1 0 2-1 1-2v-1-1l1-1 1-1v-2h1c0 1 0 1 0 0v-2-1-1l1-1c1 0 1-1 0 0v-1-2h2v0l-1-2h1v-1h-1v-1h1v-1l1-1v-2-1c1-1 1-1 0 0v-1h2v-1l-1-3v-1l1-2h1v-1-2c0-1 0-1 0 0v1l-1-1 1-2c0-1 0-2 1-1v-2-2l1-2h-1l1-4 1-1c0-2-1-2-1-1v-8l1-8 1-1-1-9v1l-1-13h1v-1-1l-1 2v-4-4c-1 1-1 0-1-3v-3-1l-1-2v-1c0-1 0-2-1-1v-2-1l1-1-2-1v-2-3c1 0 1 0 0 0l-1-1v-1 1h1l-1-1v-2-1-1h-1v-1-1s-1 0 0 0l-1-1v-1-1l-1-1-1-1h-2v-1h-1-5l-1-1h-1-1v1h-1v1h-1s0 1 0 0l-1 2-2 1v5a26 26 0 0 0 1 4l-2-1h1v1l1 1 1 2v3l1 2c0 1 0 1 0 0l-1 1 1 1v1l-1-1v1l1 1v2l1 2v1c1 0 1 0 0 0v2-1l1 1v8 7l1 1 1-1v12l-1 11v2l-1 3v9l-1 1v2c0 1 0 1 0 0h1l-1 1v2l-1 1v2s0 1 0 0v1l-1 1v1l1-1v1l-1 1-1 1h1v2 1c0 2-1 5-2 3v3h-1l1-1h1l-2 2v1c0-1 0 0 0 0v3l-1 2v1c-1 0-1 0 0 0l-1 1v1l-1 1v1l-1 1v1l-1 1v1l1-1v-1l-1 4-1 1v1l-1 1v1 1l-1 2v1s-1 0 0 0l-1 1-1 2-1 1h-1 1l1 1-1 1-1 2-1 1v1h-1v1l-1 1h-1 2l-1 2h-1v1c-1 0-1 0 0 0l-1 2h-1 1l-1 1-1 1 1 1h-1c0-1 0-1 0 0h-1 1c0 1-1 2-2 1v1h0v1l-1 1v1l-2 1v1c0 1 0 2-1 1l-1 2v-1l-1 2-1 3h-1l-1 1h-1v1c0 1 0 1 0 0v1c1 0-1 3-2 2l-1 1h0l-2 2v1c0 1 0 1 0 0l-1-1s0 1 0 0v2l-1 1c-1-1-2 0-1 1v1l-1 1c0-1 0 0 0 0l-2 2-1 1-3 3s-1 0 0 0l-1 1-1 1-2 2s-1 0 0 0l-2 2-1 1-1-1v1h-2c1 0 0 0 0 0l1 1c1 0 1 0 0 0h-1l-2 2v0l-1 1c1 1-2 3-2 2h-1c1 0 1 0 0 0h-1v1l-1 1v1l-3 1-2 2-1 1h-1l-1 1-1 1h-1l-1 1c0 1 0 0 0 0h-1v0h-1v2h-1l-1 1v-1l-1 1-1 1v-1 1l-2 1c0-1 0-1 0 0h-1v1l-2 1v-1-1 1l-1 1h-1v1a1 1 0 0 0-1 0l-2 1h-1v1h-1-1-1v2h-2l-1 1c0-1 0 0 0 0h-1l-2 1h-1-1l-1 1h-1l-1 1-4 1h1l1-1h-1l-1 1h-1l-1 1h-1l-1 1h-1l-1 1c0-1 0-1 0 0h-1l-2 1h-3c0-1 0-1 0 0h-1l-2 2v-1l1-1v1h-3c1 1 1 1-1 2l-2-1-1 1h-1l-2 1h-2l1-1h-1l-1 1h-1c1 0 0 0 0 0h-2l-1 1h-1-1l-2 1h-1l2-1h1-3v1h-10 0l-3 1h-2l-11 1h-12l1-1-1-1h-4c1 0 1 0 0 0h-8l-1-1-2 1-1-1h0-1c0 1 0 1 0 0h-2c-2 0-3 0-2-1h-1l-1-1h-1l1 1h-1-1-1l-2-1h-1v-1l-1-1-1 1h1c1 0 1 1-1 1s-2 0-1-1v-1h-1l-1 1v-1h-1v0l-1 1-1-1v-1h-1l-1-1v1h-3v-1h-1c0-1 0-1 0 0l-3-1-1-1v1l-1-1h-1l-2-1v-1l-1 1h-1l-1-1h-1c0-1 0-1 0 0l-2-1h0v-1h-2l-1-1s-1 0 0 0l-1-1v1h-1v-1-1l-1 1h-1l-2-1-1-1h-2l-1-1h-1v-1c1-1 1-1 0 0l-1-1h-2l-1-1-2-1h-1v-1l-1-1h-1s-1 0 0 0l-1-1v-1h-2-1v-1l-2-1c0 1 0 0 0 0 0-1 0-1 0 0l-1-1h-1c-1 0-1 0 0 0l-1-1c0 1 0 1 0 0h-1v-1l-1-1h-1-1v-1l-2-2v1h1c-1 1-2 0-1-1v-1h-1c-1-1-1-1 0 0l-2 1v-1-1h-1v-1h-1-1l1-1h-1v-1l-1 1v-2h-2l-1-1c0-1 0-1 0 0l-2-1-1-2s-1 0 0 0l-1-1-2-2-1-1h-1v-1c0 1 0 1 0 0h-1v-1l-2-2s-1 0 0 0h-1l-2-3-1-1-3-3-1-1v-2c1 0 0 0 0 0l-2-1v-1-1l-1 1c0 1 0 1 0 0v-1c0 1 0 0 0 0h-1-1a26 26 0 0 1 0-2l-1-2h-1c0-2 0-2-1-1v-1l-1-1-1-2-1-1c0-1 0-1 0 0a1 1 0 0 1-1-1c-1 0 0 0 0 0l-1-2-1-1c1 0 0 0 0 0v-1h-1v-1-2h-1c0 1 0 1 0 0l1 1-2-1-1-1h1l-1-1v-1l-1-2c-1 0-1 0 0 0l-1-1s-1 0 0 0l-1-1v-1l-1-1v-2l-1-1v-1l-1-1v-1l-1-1 1-1h-1-1v-1-1c0-1 0 0 0 0 1 0 0 0 0 0l-1-1v-1-1c1-1 1-1 0 0h-1a37 37 0 0 0-1-1h1l-1-1v-1-1c-1 0-1 0 0 0v-1h-1c1-1 0-2-1-2l-1-2v-1l-1-1v-1l-1-2v-2-1-2l-1-3v-1h-1v0l-1-1h1v-1h-1v-1h0c-1 0-2-3 0-4h-1v-1-1l-1-1v-1-3-1c-1 0-1 0 0 0 1-1 0-1-1-1v-1l-1-2 1-3v-1h-1 1l-1-1c-1 1-1 1-1-2l-1-11v-28l1 1v-1-2-1l1-1-1-1v-1c1 0 1 0 0 0l1-6v-1-1l1-1v-3h1v1c0 1 0 1 0 0v-2-3 2c-1-1 0-5 1-5s1 0 0 0v-1-2-2l2-1s1-1 0 0h-1v-1l1-1h-1l1-1h1v-3l1-1c-1 0 0 0 0 0v-1-1h1l-1-1 1-1s0-1 0 0l1-1-1-1 1-2c-1 0 0 0 0 0s1 0 0 0l1-1-1-1h1l1-1v-1c0-1 0-1 0 0v-1l2-2v-2-2c1-2 1-3 2-2v-2l1-1 1-1v-2s1 0 0 0h2-1v-1a1 1 0 0 1 1-1v-1c1 0 0 0 0 0h1l1-1-1-1h1v-1l1-1c0-1 0-1 0 0v-1-1c0 1 0 0 0 0h1v-1h1v-1c-1 0 0-2 1-1s0-1 1-1c0 1 0 0 0 0a1 1 0 0 1-1-1h1v-1-1h1v-1-1h1l1-1 1-1c-1 0-1-1 0 0v-1c0-1 0-1 0 0h1l1-2h-1l2-1v-1h-1 1v-1l1-1h1l-1 1c1 1 2-1 1-2v-1l1-1h2v-1-1h1c-1 0-1 0 0 0l1-1v-1h1v-2h1l1-1v-1h1l1-2 1-1v1 0l1-1s1-1 0 0h1v-1h1v-2l1-1v1 0h1c-1-1 0-2 1-1v-1h1-1-1l1-2 2-1v1 0l1-1 2-2s0-1 0 0v-1l1-1h1l1-1 1-1c-1 0 0 0 0 0h1l1-1 1-1c0-1 0-1 0 0v-1h2v-2l1-1h2l-1 1h2v-1-1h-1l2-1v1s-1 0 0 0v-1l1-1 1-1v1l1-1c0 1 0 0 0 0l1-1h1c-1-1 0-1 0 0l1-1h1v-1h1v-1h1l1-1h1l1-1 2-1h1v-1h1v-1s1 0 0 0h2c1 0 1 0 0 0 0 1 0 1 0 0h1c-1-1 1-2 1-2v1h1l1-1v-1h3v-1h1l-1-1c0 1 0 1 0 0h2l1-1 2-1h2v-1 1h1l1-1h-1l1-1h3l2-2h2v-1h2c0 1 0 0 0 0v-1h1l3-1 1-1h1l1 1v-1h2s0-1 0 0l1-1h3l1-2a27 27 0 0 0 1 0l2 1 1-1v0l2-1 2 1v-1h1l2-1h2l3-1h2l2-1h2c-1 1 0 1 1 1l1-1h9l4-1c1 1 1 1 0 0v-1h24l10 1 2 1 2 1h1l3-1 2 1h1c0 1 0 2 1 1 0-1 0-1 0 0h5l1 1h1l1 1 1-1v1h1c1 0 1 0 0 0v-1l2 1v0h1v1h1v-1l1 1h0l1 1h2-1 1l2 1h1c0-1 0-1 0 0h1l3 1 2 1h2l2 1 1 2 1 1-1-1v-1h2l2 2h-1v-1h1l1 1v-1l1 1v1c-1 1-1 1 0 0h2l1 1s0 1 0 0l1 1h3l1 1c0-1 0 0 0 0l1 1h1l1 1v1h3v0h1c0 1 0 1 0 0l1 1c0-1 0 0 0 0l1 1h1l1 1c0 1 0 1 0 0l1 1h1l1 1h1v1l-1-1c1 0 1 0 0 0v1h3c1 1 0 0 0 0v1h1s0 1 0 0l1 1 1 1v-1 1l1 1h1l1 1 1 1h1l1 1c0-1 0-1 0 0h1v1l1 1h1v1l1 1h2v1l2 2v1h1l-2 1c-1 0-1 0 0 0v2l-1 2h1l1-2v2a120 120 0 0 0-1 4v-4 10h1l1 1-1 1h1l-1 1c0-1 0 0 0 0v1h1v1l1 1v-1 1l1 1v2h1l2 1 3 2v1 1h2v1h2l2 1h2l1 1 5 1h4v-1h1l4-1h1-1l2-1 1-1h2l1-1h1v-1l1-1c-1 0 0-1 0 0h1l2-4v2-1l1-1v-1l1-1c-1 0-1 0 0 0l1-1v-1-3l1-1v-1 3c-1 0-1 0 0 0l1-3h-1v-4-4l1-1c0-2-1-2-1-1v1-2l-1-1v-2l-1-1-1-2v-1l-2-1c-1-1-1-1 0 0v-1l-1-1v-1h-1v-1h-1-1l-1-2h-1-1v-1l-1 1v-1l-3-2v-1l-1 1h-1l-4-1h-1-2l-4 1h-1l-4-1-1-1-1-1v-2h-1l-1 1-1-1-1-2-1-1-2-1h-1l-1-1-1-2v1l-2-1-1-1h-1v-1h-1l-1-1-1-1c0-1 0-1 0 0l-2-1-1-1-1-1-1 1-1-1c1 0 0 0 0 0-1 0-1 0 0 0 0-1-1-2-2-1v-1h-1-1v-1l-1-1v1l-2-1v-1 1l-1-1v-1c0 1-1 2-2 0h-1l-2-1v-1l-1-1v1h-1v-1h-2l-1-1h-2l-1-1v-1h-1-1v-1h-2c-1 0-1 0 0 0h-1l-1-1h-2l-1-2h-1-3s0-1 0 0v-1h-1l-3-1h-1l-3-1c1-1 0-1-1-1h-3V8h-1V7l-1 1h-1c0-1 0-1 0 0h-1l-2-1h-1-1l-1-1h-1c-1 0-1 0 0 0l-2-1h-1-3V4h1l-2-1-2 1c-1 0-1 0 0 0h1l-5-1v1h-1l-1-1h-1l-4-1h-3l-3-1h-15c1-1-1-1-6-1l-4 1m25-1l1 1h1v0l-2-1m-50 1h0s-1 0 0 0m2 1h2-2m61 1a6 6 0 0 0 2 0h-2m-71 0a6 6 0 0 0 1 0c1 0 1 0 0 0h-1m15 19h-1 3v-1l-2 1m45 0h0s-1 0 0 0m-41 1a9 9 0 0 0 2 0h-2m37 0a6 6 0 0 0 1 0c1 0 1 0 0 0h-1m115 24h1-1m7 0h1-1M97 52l1 1s0-1 0 0l-1-1m217 10h-1 1v-1 1M48 69h0m152 31h-23l-2 1 1 1v2l-1 1-1-1v1s0 1 0 0l1 1h-1v1 2l-1 1-1 2v1h-1v2l-1 1v2l-1 1v1l-1 2v2h-1l1 1-1 1-1 1c1 1 0 2-1 2 0-1 0 0 0 0v1l-1 1v1l1-1c0-1 0-1 0 0l-1 2v1h-1v1s1 1 0 0v1l-1 2v2l-1-1v2h-1s0 1 0 0l1 1v1h-1c-1 0-1 0 0 0v1 1l-2 1v2c0-1 0 0 0 0v2l-1 2-1 1v1h-1v1l1 1h-1l-1 1h-1v1h1v-1 4h-1v1l-1 1v1 1 2h-1v1h-1v1h0v2h-1v0l-1 1 1 1-1 1h-1l1 1c0-1 0 0 0 0v2l-1 1-1 2v1l-1 1v2l-1 1-1 1h1c0-1 0-1 0 0l-2 1h-1l1 1h1l-1 1c1 2 0 3-1 2v4h-1s0 1 0 0l-1 1v2l-1 2c1 1 0 2-1 2 0-1 0 0 0 0v1c0-1 0-1 0 0-1 0-1 0 0 0v1l-1 1v1c-1 0-1 0 0 0v1l-1 1v1l-1 1v3h-1v1l-1 1-1 1 1 2-3 2 1 1v1h-1v1l-1 3v2l-1 2-1 1 1 1h-2l-1 1h1c1 0 1 0 0 0v3l-1 2-1 1v1l-1 1v2a1 1 0 0 0 0-1l-1 1v3l-1 2h-1v3l-1 1v2l-1 1v2l-1-1v1h-1v3l-1 1-1 1 1-1h1l-1 1v1l-1 1c-1 1-1 1 0 0l1 1h-1v1c1 0 1 0 0 0l-1 1s0-1 0 0h-1v4l-1 1h1l-1 2-1 1v3c-1 0-1 0 0 0a587 587 0 0 1 43-2v-1c0-1 0-1 0 0v-2l1-1c0-1 0-1 0 0v-3-1l1-1 1-1v-1-1 2h1v-1-1l-1-1 2-1-1-1h1v-1s1 0 0 0v-1h-1l2-2v-1l1-1h0l1-2-1-1c0 1 0 1 0 0l1-1 1-1v-2c1 0 1 0 0 0s-1 0 0 0a820 820 0 0 1 65 0v-3-1h-1v0-2l-1-1h0c-1 0-2-1-1-2v-1l-1-1v-1l-1-2v-1-1l-1-1v-2-1l-1-1-1-1v-1c1 1 1 1 0 0v-1l1-1h-1v-2 1h-1l-1-1a9 9 0 0 0 0-1v-1-2c1-2 0-2-22-2a16181 16181 0 0 1-21 0v-2-2c1-1 1-1 0 0v-1l1-1v-1-1-1h1v-1h1l-1-1h1v-2-1h1v-1l1-1c1 1 1 1 0 0v-1-1l1-2h0l1-1v-1c0-1 0 0 0 0h-1v-1l2-1c-1 0-1 0 0 0v-1-2-1h1v-2h1v-1c0-1 0-1 0 0v-1-1l1-1v-1h1v-2-1c-1 0 0 0 0 0l1-1c0-1 0-1 0 0l1-1h-1v-1h1l-1-1c0 1 0 1 0 0h2l1-1h-2v-2l1-1v-1h1s1 0 0 0v-2l1-1v-1c-1-1 0-2 1-2h0v-1-1h1v-2l1-3 1-1c1 0 1 0 0 0l1-2v-1-2-1h2l-1-1c0 1 0 0 0 0v-1h1l-1-1h1v-1l1-3c0-1 0-2 1-1l1-1v-1c1-1 1 0 1 1l1 1v2h-1l1 1c0-1 0 0 0 0h1v1l1 3v1l1 1-1 1h1v1l1 2 1 2v1c0 2 0 3 1 2l1 1v3l1 1v1l1 2v1l1 2v1l1 2h-1 1v2c-1 1 0 1 0 0l1 1v2l1 1v2h1v1c-1 0-1 0 0 0l1 1v1l-1 1 2 2h-1l1 1v1l1 1v3h1v1h-1 1l1 1v2 3h1l-1 1h1c1 0 2 2 1 3-1 0 0 0 0 0 2 0 2 1 2 2 0 2 0 3 1 2v4l1 1v1l1 1h-1l1 1c-1 1-1 1 0 0l1 1v3c-1 0-1 0 0 0 0 0 0 1 0 0l1 1v2c1 0 1 0 0 0v1l1 1c-1 0 0 0 0 0v1h1v1h-1 1l1 1v2 1l1 2c-1 1 0 2 1 2v4h1v3l1-1c-1 0-1 0 0 0v1l-1 1c1-1 2 0 2 2l1 2v4s1 0 0 0h2v1l-1 1 2 2v2l1 1v1l1 1v1l1 1v3 0l1 1-1 1c2 1 2 2 1 3 1-1 2 1 1 3 0 1 0 1 0 0l1 1 1 3h1v-1 2h20a34829 34829 0 0 0 21-1v-2h0v-1h-2l1-1v-1-1l-2-2h1l-1-1h-1v-1-1-1l-1-1v-1l-1-1-1-1h1v-2-1l-2-2v-1s-1 0 0 0l-1-1v-2-1h-1c-1 0-1 0 0 0l-1-1v-1c1 0 1 0 0 0v-1c1 0 1 0 0 0v-1l-1-1v-2c1-1 1-1 0 0l-2-2v-3-1-1l-1-1-1-1-1-1v-3-1c-1 0-1 0 0 0l-1-1-1-1c0-1 0-1 0 0h1l-1-1h-1v-1c1 0 1 0 0 0v-1h1v-1l-1-1a1 1 0 0 0 0-1v1l-1-1c-1 0-1-1 0 0v-1l-1-1v-1h-1v-1h1v-1 1h-1v-2c1 0 1 0 0 0 0-1 0-1 0 0l-1-1v-1h1l-1-1v-1h-1l-1-1h2l-2-1-1-2h1l-1-1v-1-1c0 1 0 1 0 0h-1v-2l-1-1v-2c1 1 1 1 0 0v-1l-1-1h-1l1-1-1-1v-1l-1-2-1-1a16 16 0 0 0-1-1h1v-1-1c-1 0-1 0 0 0l-1-1v-1l-1-1 1-1-1-1h-1s0-1 0 0l1-1h-1l-1-1v-3l-1-1s0-1 0 0v-1l-1-2-1-3v-1l-1-1c-1-1-1-1 0 0h1l-1-1v-1-1h-1l-1-1h1v-1c1 0 1 0 0 0h-1v-1h-1v-1-1-1l-1-1v-1l-1-1h0v-1l-1-1c1 0 1 0 0 0v-1-2-1h-1l1-1-2-3-1-1-1-1v-1-1h1v-1l-2-1v-2c-1 1-1 0-2-2v-2-1h-1v-1-1l-1-1h1a3 3 0 0 1-1-1l-1-1v-2-2h-1v-1l-1-1v-1h-1v-1-1-1-1l-1-1v-2-1c0 1-1 1-2-1h1l-1-1v-1l-1-1h1v-1h-1v-1l-1-2-1-1v-1l-1-1v-1-1h-1v-1h-23m-179 9h0m151 1l1 1-1-1 1-1-1 1m209 28a9 9 0 0 0 2 0h-3m14 17v0l1-1-1 1M4 157v0c0-1 0-1 0 0m-1 6v-1 1m-1 8s0 1 0 0v-1 1m20 3v-1 1m-22 3v2l1-2-1-1v1m21 20v7a467 467 0 0 0 0-7m378-8v3a68 68 0 0 0 0-3m-22 10v-6 6m22 11v3a53 53 0 0 0 0-5v2M0 218v2l1-2-1-2v2m398 0v-2 2m-375 0v1a6 6 0 0 0 0-2v1m-1 4v1a9 9 0 0 0 0-2v1m-20 3v-1 1m-1 4v-1 1m395 1v-1-1 2m1-1v-1 1M3 236v2l1-1c0-2 0-2-1-1m22 6l1 1c0 1 0 1 0 0s0-2-1-1m348 1v-1 1m21 1c-1 1 0 1 0 0v-2 2m-366 7v-1 2m3 7v1l1-1-1-1v1m213 3v1h-1l2-1h-1m-135 16c-1 1 6 1 20 1l21-1h-41m141 0l21 1a250 250 0 0 0-21-1m129 6v1h1l-1-1m-266 72h2-2m129 17h1-1m-136 2v0m74 2h0m104 2l1 1v-1h-1m-40 15h-1 0m-74 3h0s-1 0 0 0m47 1h2-2m-9 1" fill="#142c4c"/>
    <path d="M176 1v1l-1-1h-8l-4 1-4 1v1s1 0 0 0h7c0-1 1-2 2-1l8-1 1-1h6c1 0 1 0 0 0l6 1 5-1V0h-11l-3 1h-3c0 1 0 0 0 0V0l-1 1m27-1l1 1 7 1 7-1h1l3 1h2l-1-1-1-1-1 1s0 1 0 0h-1l-1-1h-16m22 2l4 1h1l1 1h1V3l5 1h-1c-1 0-1 0 0 0h3c1 1 2 2 3 1h2l1-1h-3l-4-1-4-1-4-1-5 1m-55-1h-1c-1 0 0 0 0 0h1m5 1h-4 4m59 1a6 6 0 0 1-2 0h2m-71 0a6 6 0 0 1-2 0h2m-9 1l2 1 1-1-2 2h1l1-1h1l-2-1h-2m-6 1l-3 1-2 1h-2c-2 0-2 0-2 2h-1-3l-2 1-2 1h-2l-2 1-1 1h-2c1 1 0 1-1 1l-3 1h5v-1h1v1c1 0 1 0 0 0l1-1h1v-1h2l2-1h2v-1c0-1 0-1 0 0h1l1-1 1 1 2-1 2-1h3l1-1h2c0-1 0-1 0 0s0 1 0 0l2-1 1-2v2h3l-1-1h-1 2 1V5h-6m97 0v1h1l1 1h2l2 1h1c0-1 0-1 0 0h1l1-1v1h1v1h3c1 0 2 0 1 1l3 1h1l3 1h1v1c0-1 0 0 0 0h4l1 2h2l1 1h1c-1 0-1 0 0 0h2v1h2v1l1 1h2l1 1h2v1h1v-1l1 1v1l2 1h1c1 2 2 1 2 0v1l1 1v-1 1l2 1v-1l1 1v1h2v1c1-1 2 0 2 1-1 0-1 0 0 0 0 0 1 0 0 0l1 1 1-1 1 1 1 1 2 1c0-1 0-1 0 0l1 1 1 1c0 1 0 0 0 0h1v1h1l1 1 2 1v-1l1 2 1 1h1l2 1 1 1 1 2 1 1 1-1h1v2l1 1 1 1 4 1h1l4-1h2l1-1v1l4 1h1l1-1v-1h-16l-1-1-1-1-1-1-1-1-2-1-1-1-1-1-2-1-1-1h-1-1c0-1 0-1 0 0l1-1-1-1h-1l-1-1-1-1h-1l-1-1-1-1h-1l-2-1-1-1h-1l-1-1-1-1h-1l-2-1h-1l-1-1-1-1-1-1h-1l-1-1h-1l-2-1-1-1-1-1h-2l-1-1h-1v1l-1-1c1-1 1-1-1-1l-1-1-2-1h-2l-1-1-2-1h-1l-2-1-2-1h-1l-2-1-2-1h-2l-2-1-3-1h-3-4V6 5h-5M118 16l-2 1-1 1v1h-3-1l-1 1-2 1h-1l-1 1-2 1h-1l-1 1-2 1-1 1-1 1h-1l-2 1-1 1c-1 0-2 0-1 1l-1 1v-1l-1 1h-1l-1 1-1 1h-1c1 1 0 1-1 1l-2 1-1 1-1 1h-2v1l-1 1-1 2c1 0 1 0 0 0h-3l1 1h-1l-1 1h-1l-1 1v1l-1 1-1 1h1v1l1-1s0-1 0 0l1-1v-1h1l1-1 1-1h2l2-3h1v-1l2-1h-1v1l1-1h1v-1l1-1v1l1-1c1-1 0 0 0 0h2v-1c0-1 0-1 0 0l1-1h1c1 0 2-1 1-2s1 0 1 0h1v-1l1-1v1h1l1-1v-1c-1 0-1 0 0 0v-1l1 1c0 1 0 1 0 0l1-1h1l1-1 1-1v1h1v-1-1h1c0-1 0-1 0 0h1s0 1 0 0h1c0-2 1-2 2-2v1l2-3 1 1v-1h1s2 0 1-1h-1c0 1 0 1 0 0h2c0 1 0 0 0 0 2 0 3-1 3-2l1 1c1 0 2 0 1-1l1-1 1-1v1h-1v1l1-1c2 0 2 0 1-1h-3m81 4l-12 1 1 1a229 229 0 0 0 27 1h5l5 1c1 1 7 0 7-1h-1l-2-1-3 1h-1l-2-1-2-1-10-1h-12m-23 1l-2 1v1h10l2-1h-3l-7-1m2 1h-3 1l2-1v1m44 0h-1c-1 0 0 0 0 0h1m-52 0l-2 1h-2l-3 1h-1-1l-2 1h-1v1l-2-1-2 1 5 1 3-1 3-1 5-1h2l1-1h-1c-1 0-1 0 0 0l-1-1h-1m12 1a9 9 0 0 1-2 0h2m37 0a6 6 0 0 1-2 0h2m14 1c0 2 1 2 4 2l3 1h2l2-1c1-1 1-1-1-1v1c1 0 1 0 0 0h-1v-1l-1 1-1-1h-1l-1-1h-1-3-1m-83 2h-1v1l-2 1h-1l-1 1h-1c0 1 0 1 0 0h-1v1l-1-1h-1l-1 1-3 1h-1v1s0 1 0 0h-2v1h-1-1l-2 1-1 1h-2l-1 1h4c-1-1 0-1 1-1l3-1c0-1 0-1 0 0l3-1 3-1h2c-1-1-1-1 1-1h1l2-1 2-1 3-1h3v-2l-1 1-3-1m95 1v1h4l-1-1h1-1l-1-1v1h-1v-1h-1v1m5 1h1-1c-2 0-1 2 1 2l2 1h2l2 1h5v1h-1l2 1 1 1h4l-1-1v-1h-2v1l1 1-1-1-1-2-2-1h-2l-2-1-3-1h-1c0-1 0-1 0 0h-1l-2-1h-1m18 6v1c1 0 1 0 0 0l1 1 2-1a37 37 0 0 1-1-1v1l-1-1h-1m3 2c-1 1 0 2 1 2l1 1h5s0 1 0 0l-1 1h3l-1-1s0-1 0 0l-1-1c0-1 0 0 0 0h-3l-1-1c0 1 0 0 0 0 0-2-2-2-3-1m-146 1h-2l-2 1-1 1h-2c0 1 0 1 0 0l1 1h-1v1h-1-2v1h-1c-1 0-3 1-2 2h-1c0 1 0 1 0 0-1 0 0 0 0 0 1 0 1 0 0 0h-1-1c1 0 0 0 0 0v1h-1v1h-1l-2 1-1 1h-1l-1 1h-1v1h-1v1h-1l-1 1c0-1-1-1 0 0h-1l-1 1s0 1 0 0l-1 1v-1l-1 1-1 1v1c-1 0 0 0 0 0v-1l-2 1h1v2h-2l1-1h-1-1l-1 1v2h-2v1c0-1 0-1 0 0l-1 1-1 1h-1s-1 0 0 0l-1 1-1 1h-1l-1 1v1c0-1 0 0 0 0l-2 2-1 1c-1 0 0 0 0 0v1-1-1l-2 1-1 2h1v1c-1-1-2 0-1 1h-1c-1 0 0 0 0 0v1-1-1l-1 1v2h-1v1h-1c1-1 0 0 0 0l-1 1v1-1-1l-1 1-1 2h-1v1l-1 1h-1v2h-1v1l-1 1c-1 0-1 0 0 0h-1v2h-2l-1 1v1c1 1 0 3-1 2l1-1h-1l-1 1v1h-1 1v1l-2 1c1 0 1 0 0 0v1l-1 1c0-1 0-1 0 0v1c-1-1-1 0 0 0l-1 1-1 1h-1v2h-1v2h-1a1 1 0 0 0 1 1s0 1 0 0l-1 1c0 1 0 0 0 0-1-1-2 1-1 1v1h-1v1h-1s0 1 0 0v1h3v-2l1-1v-1l1-2h1l1-1v-1l1-2 1-1 1-2v-1h1l1-1v-1l1-1 1-1 1-1v-1h1v-1l1-1h1v-1l1-1 1-2 1-1v-1h1l1-1 1-1 1-1 1-1 1-1 1-1 1-1 1-1 1-1 1-1 1-1 1-1v-1h1l1-1 1-1 1-1v-1h1l1-1h2v-1l1-1h1v-1l1-1h1l1-1 3-2v-1h1l1-1h2v-1l1-1 1-1h2v-1h1l1-1 1-1 1-1h1l1-1h2l1-1 1-1 1-1h1l-1-1c0 1 0 0 0 0h3l1-1 2-1 1-1h2l1-1h1l1-1 2-1h-2v-1 1m155 3l1 2 1-2h-2m2 2c-1 0-1 1 1 1l1 1h1l2 1 1 1h1l1 1 2 1 1 1 2 1 1 1 1 1h1l2 1 1 1 1 1v1h2l1 1 1 1v1h1l1 1h1l1 1 1 1h1v2h1l1-1h-1v-1l-2-2v-1h-2l-1-1v-1h-1l-1-1v-1h-1c0-1 0-1 0 0l-1-1h-1l-1-1v-1l-3-1v-1 1l-1-1-1-1c0 1 0 0 0 0h-1v-1h-1-2v-1c1 0 1 0 0 0l1 1v-1h-1l-1-1h-1l-1-1c0 1 0 1 0 0l-1-1h-1l-1-1s0-1 0 0l-1-1c0 1 0 1 0 0h-1v0h-3M67 48v1h-1a1 1 0 0 1-1 1v1h-1l-1 1-1 1-1 1-1 1-1 1-1 1-1 1-1 1-1 1-1 1-1 1v1h-1a1 1 0 0 0-1 1v1h-1a1 1 0 0 1-1 1v1h-1l-1 2v1l-1 1-1 1h-1l-1 1v1l-1 1v1a1 1 0 0 0-1-1v3l-2 1-1 1c0 1 0 1 0 0l-1 2-1 1-1 1-1 2c0 1 0 2-1 1v1l-1 1-1 1v1l-1 1h1l-1 1c-1-1-1-1-1 1l-1 1-1 1-1 2v1l-1 1-1 2-1 1v1l-1 2-1 1v1l1 1c0-1 0 0 0 0l-1 1h-2v1l-1 4c1 0 1 0 0 0l-1 1-1 2v3c1 1 1 1 1-1l1-1-1 1v-1l1-1v-1-1h1l1-2v-1-1h1v-1l1-2 1-1v-1l1-1c1 0 1-1 0 0l-1-1h1c0-1 0-2 1-1v-1c-1 0-1 0 0 0l1-1h1v-2l1-1v-2h1l1-1 1-1v-1h-1l1-1 1-1c-1 0-1 0 0 0v-2h1c1 1 1 1 0 0l1-1 1-2 1-1v-1l1-1h1l1-1v-1l2-2 2-2v-1-2l2-1 2-2c-1 0 0 0 0 0h1l1-2 1-1v-1l1-1 1-2s0-1 0 0l1-1h1v-1l1-1 2-1 1-2c-1 0-1 0 0 0 1 1 2 0 1-1 1 0 4-2 3-3 1 1 2 0 1-1h1v-1l1-1c-1 0 0 0 0 0l2-1 1-1 1-2c2 0 1-1 0-1l-2 1m267-1h-2 2m7 0h-2 2m3 1v1h1a125 125 0 0 0 2 1v1l1-1v1h2v2h3v1h1v1l1 1v1c-1-1-1-1 0 0l2 1v1l1 2 1 1v2l1 1v1c0-1 1-1 1 1l-1 1v8h1l-1 3c-1 0-1 0 0 0v-3 1l-1 1v3 1l-1 1c-1 0-1 0 0 0l-1 1v1l-1 1v-1l-2 4h-1c0-1-1 0 0 0l-1 1v1h-1l-1 1h-2l-1 1-2 1h0c0 1 0 1 0 0l-4 1h-1v1h-4l-5-1-1-1h-2l-2-1h-2v-1h-1-1v-1-1l-3-2-2-1h-1v-2l-1-1v-1 1l-1-1v3l1 1 1 1 1 1 1 1 1 1 1 1h1v1l1 1h2l1 1c1 0 2 0 1 1h3l3 1 4 1 5-1 2-1h3l1-1 2-1h1l2-1v-1h1v-1l1-1h1l1-1v-1h1v-1l1-1 1-2 1-1v-1l1-2v-1l1-7c0-7 0-8-2-8 0 0-1 0 0 0v-3-2l-1-1-1-1-1-1v-1l-1-1-1-1v-1h-1l-1-1h-1l-1-1-1-1-1-1h-2l-1-1-2 1M98 53c0-1 0 0 0 0l-1-1 1 1m216 8v1h-1 1v-1m-3 3v14l1 2c0 2 1 2 2 1 1 0 1 0 0 0h-1s0-1 0 0l1-1h-1l1-1-1-1h-1v-1-1-2-6 4a120 120 0 0 1 1-6l-1 2c-1 0-1 0 0 0v-2-1l1-1h-2M49 69h-1 1m126 31h2a300 300 0 0 1-2 0m-1 2v2l1 1 1-1v-2h-2m50 0v1l1 1v1l1 1 1 2v1h1v1h-1l1 1v1l1 1h-1l1 2 1 1v1l1 1v4h1v1l1 1v1l1 1v-2-2l-1-1v-2l-1-2-1-2-1-2v-2l-1-1v-2l-1-2-1-2v1l-1-2-1-2-1 1m-51 4l-1 1-1 1v2l-1 2v2l-1 1-1 2-1 2v2l-1 2v1l-1 2-1 2 1 2v-1s0-1 0 0c1 0 2-1 1-2l1-1 1-1-1-1h1v-2l1-2v-1l1-1v-1-1l1-1v-1-1h1v-1l1-2 1-1v-2-1h1v-1l-2 1m-1 4l1 1-1-1 1-1-1 1m-128 1l-1 1v1l-1 1v1h-1s1 0 0 0v1a1 1 0 0 0-1 1v1h-1c1 0 0 0 0 0v2l-1 1-1 1v2c-1-1-1 0-2 2v3l-1 1-1 2v1c0-1 0-1 0 0v1l-1 1h-1l1 1-1 1c1 0 0 0 0 0s-1 0 0 0l-1 2 1 1 1-2 1-2 1-1 1-1v-3c0-1 0-2 1-1v-3-1h1v1l1-1 1-2v-1l1-1v-2l1-1 1-2 1-1v-1l1-1v-2-2 1m-30 11l1 3v-1-4l-1 2m-1 4l-1 1-1 2v2l-1 2-1 2v1l-1 2-1 2v3l-1 3h2v-1c0 1 0 0 0 0v-1-1-1c-1 0 0 0 0 0h1v-1l1-3 1-1s0-1 0 0l-1-1 1-1v-1c-1 0-1 0 0 0h1v-2l1-2v-1-1h1v0-1l1-1c0 1 0 1 0 0l-1-1-1-1v2m221 0v1c-1 1 0 2 1 2v1l1 1h-1l1 2v1h1v3c1 2 1 3 2 2v2l1 1 1-3-1-1-1-2v1h-1v-5l-1-2v-2c-1 1-1 0-1-1l-1-1h-1m-71 4v1l-1 1v3c1 0 1 0 0 0v1h-1l-1 2v2l-1 2-1 1c-1 0-1 3 1 3l1-1v-1-1c-1 0-1 0 0 0h1v-1l-1-1c0 1 0 0 0 0h1v-1h1v-2l1-2v-1c1 1 0 0 0 0v-1h1v-1l1-2c0-1 0-1 0 0l-1 1v-1c0-1 0-2-1-1m37 8v1l-1 1c-1-1-1 0-1 1l-1 3v1h-1l1 1h-1v1s0 1 0 0l1 1h-2v4l-1 2c1 0 1 0 0 0l-1 1-1 3v2h-1v2h1l1-2v-2c1 0 1 0 0 0l1 1 1-2v-2l1-2 1-2v-1l1-3 1-2v-1l1-1h1v-1l1 3 1 2c0-1 0-1 0 0v4l1 2 1 2v2l1 2 1 2v2l1 1 1 1v2c0 2 0 2 2 3 0 0 1 0 0 0v3l1 2 1 2v2l1 2 1 2v2l1 2 1 1 1-1-1-1h1l-2-2 1-1v-1l-1-1c-1 0-1 0 0 0v-1h-1v-1-1l-1-1v-1-1l-1-1c0 1-1 1 0 0v-2h-1 1l-1-2v-1h-1v-1h1c-1 1-1 0-1-1v-1l-1-2v-1l-1-1v-3l-1-1c-1 1-1 0-1-2v-1l-1-2-1-2v-1h-1l1-1-1-1v-1l-1-3v-1c-1 1-1 0-1-1v-1-1l-1-1v-1h-1m177 0l1 1h1l1 1h6v1h2l1 1 1 1v2l1 1c-1 0 0 0 0 0v1 1h1v4l1 1h-1v-1 1l1 1c1 0 1 0 0 0v5l2 1v-6l-1-3-1-3v-2l-1-2-1-1v-1l-1-1-1-1-2-1-1-1h-9m6 0a9 9 0 0 1-3 0h3m-9 2h-1v1l-1 1v1l-1 2-1 5 1 5 1 2v3l1 3v2l1 4 1 4 1 1v11h1s1 0 0 0v1c0 2 1 1 1 0l-1-2v-4-6-2l-1-1v2-1-1l1-1-1-1-1-2v-1-1l-1-1v-1l1 1v-1-2c0 1 0 1 0 0l-1-2v-3l-1-2-1-1v-1h-1l2 1-1-1v-3-3-1-1l2-1c0-1 0-2 1-1v-1h1v-1h1c0-2-3-2-3 0m-344 1c0-1 0-1 0 0l-1 1 1 1h-1v1c1 0 1 0 0 0v1l-1 1v1l-1 2s-1 0 0 0l-1 1h1l-1 1v1h1c1-1 1-1 0 0h1v-2l1-2 1-2 1-2v-2c0-2 0-2-1-1m210 2v2l1 1 1 1 2 3-1-4-1-2c0-1-1-2-2-1M6 147l-1 3-1 2v6H3c1 0 0 0 0 0v8c0 1 0 1 0 0v-1l1-3 1-4v-2l1-2c0 1 0 1 0 0v-2-1h1v-1H6 5l2-1v-2H5m152 0l-1 2v1l-1 2-1 2v1l-1 1-1 2v2l-1 2-1 2v2l-1 1-1 1 1 4v-1h1v-1-1h1-1v-1h1v-1h1v-3-1l1-1v-1h1v-1-1-2 1h-1v-1h1l1-1h1l-1-1v-1s1 0 0 0h1v-1l1-1 1-2v-2-1h-1m87 3l-1 1h1v1 3c1 0 1 0 0 0v1h1v1h1v2l1 1v3h1v1h1c1 0 1 0 0 0v1h-1l1 1h1v-1-2l-1-1v-2l-1-1-1-2-1-2v-1l-1-2v-2h-1m-218 3h-1v4l1 1 1-3c0-3 0-3-1-2m368 2v0l1-1-1 1m-370 5v4l-1 1v3l-1 1v2l-1 6c1 0 1 0 0 0v1l1 1 1 1v-5l1-4v-3l1-4 1-6h-1l-1 2m371 0l-1 1v3c1-1 1 0 1 1v1l1 2v4c0 3 0 4 1 3v8l1-2v2h-1l1 13v-1l1-8v-8l-1-5-1-6v-4l-1-4h-1M3 164v-2 2m187-1v2l-1 1v2h-1v1l-1 1v2h2l-1 1h-2c0 1 0 1 0 0l1 1h-1v1h1v1l1-1 1-2v-2l1-1 1-2v-3-3l-1 1M1 169v3c1 0 1 0 0 0v3H0v1l1 1-1 2v3l1 4 1-4v-3l-1-4 1-1v-1c-1 0-1 0 0 0l1-2v-3l-1-1v-1H1v3m248-2l1 1 1 1h-1c-1-1-1-1 0 0l1 1v1l1 3 1 2v1c0-1 0 0 0 0a199 199 0 0 1 1 4l1 1c0 1 0 0 0 0h1l-1 1c0-1 0 0 0 0h2v-3l-1-1-1-1-1-3v-1l-1-2v-1l-1-2c0-2-2-3-3-2M2 171c0 1 0 0 0 0v-1 1m145 0v2l-1 1v2l-1 2-1 1v3l-1 1-1 1v3c1 1 2 0 2-1s0-1 0 0h-1l1-1 1-1v-1-1l1-1v-1l1-2 1-1v-2s0-1 0 0l-1-1h1l1-1-1-1-1-1m-125 4v-1-1 2m164 1l-1 1s-1 0 0 0v1c-1 1 0 2 1 2v-4c0-1 0-1 0 0m-165 5v-1 1m163-1v1l-1 2v2h-1v2h-1v4h1l1-2v-1l1-2 1-2v-4h-1m-164 3a281 281 0 0 0 2 41l1-9h-1v1-1a299 299 0 0 0-1-32h-1m236 1v1l1 1v1l1-1c0-2-1-3-2-2M21 204v-7-7 14m357-17l-1 13-1 13v6l-1 6-1 4-1 4v3l-1 3v2l-1 3-1 3-1 2v2l-1 2v2l-1 2-1 2 1 2v-1l1-1v-1l1-1v-1l1-1c-1 0-1 0 0 0v-1l1-2v-3c-1 0-1 0 0 0v-1l2-2h-1l-1 1h1v-2-1c1 2 2-1 2-3v-1-1-1h-1l1-1 1-1v-1l-1 1v-1l1-1v-1c0 1 0 0 0 0v-2l1-1v-1-1l1-1h-1c0 1 0 1 0 0v-1-1l1-1v-9 4-4l1-3v-2-22l-1-1m-236 1l-1 2v1l-1 2-1 2v2l-1 2-1 1v2l-1 2-1 1v2l-1 1-1 2v2l-1 4c1 0 0 0 0 0l-1 1-1 2-1 1v3l-1 1-1 1v2l-1 2v3h2l-1-1 1-1 1-2v-2l1-3v-1h1v-1s0-1 0 0l-1-1c2 1 4-3 3-4l-1-1h1l1-1v-1h1v-3l1-1v-1l1-1v-1c-1 0-1 0 0 0v-1l1-1v-1c-1 0-1 0 0 0 0-1 0-1 0 0v-1s0-1 0 0c1 0 2-1 1-2l1-2v-1-1l1-1c0 1 0 0 0 0h1v-2-2c1 1 2 0 1-2v-1h1-2m117 0v2h0-1l1 1 1 1 1 2v1l1 1-1 1h1l1 1v1c1 1 1 1 0 0v2l1 1v2h1c0 1 0 1 0 0v2l1 1h-1l1 2 2 1h-1-1l1 1h1v1l1-2-1-2-1-1v-2l-1-2-1-1v-2l-1-2-1-2v-1l-1-2v-2l-1-1v-2h-2c-1 0-1 0 0 0m-41 2c0 3 2 3 2 0v-1l-1-1-1 2m160 14v-5-6 11m-158-12c-1 1 0 4 1 4l1-1v-1l-1-1h-1 1v-1-1l-1 1m-40 0a34 34 0 0 1 0 1h1s0-1 0 0v1l-1 1h1c2 0 2-3 0-3h-1m-1 5v1c-1 1 0 1 1 1v-4l-1 2m221 3l-1 4v1l-1 8v8c0-1 1-1 1 1l-1 1-1 4h1l-1 2v2 2c-1-1-1 0-1 1a35 35 0 0 1-1 2l1 1v-1c0-1 0-1 0 0 1 1 1 1-1 3l-1 2v1c-1 2 0 4 1 3l1-3 1-4 1-3v-3l1-5 1-6v-13a287 287 0 0 0 0-8m-179-3l1 3 1-1h-1v-1l1-1h-2m-43 3v1h-1v1 2l-1 2h-1v3l-1 1v1c1-1 1-1 0 0v2 2a16181 16181 0 0 0 43 2v2a12 12 0 0 0 0 2l1 1h1v-1 2h1l-1 1v1c1 1 1 1 0 0v1l1 1 1 1v1 2l1 1v1 1l1 2v1l1 1v1c-1 1 0 2 1 1l1-3-1-2-1-2-1-1v-1l-1-1v-1c-1 0-1 0 0 0v-2l-1-3-1-1v-2l-1-2-1-3v-1l-1-1-21-1h-20v-1-2l-1-1v-1l1 1 1-1 1-3 1-1v-1-3l-1-1v1m44 2l1 2 1 2v2l1 1 1 2v2l1 2 1 2v2l1 2 1 1v2l1 2 1 2v2l1 2 1 2v2c0 1 2 2 3 0l-1-2c-1 0-2-1-1-2l-1-2v-1-2l-1-1h-1 1v-1h-1v-1s-1 0 0 0l-1-1v-1c1 0 1 0 0 0v-1-1l-1-1c0 1 0 0 0 0-1 0-1 0 0 0v-2-1l-1-1c-1 1-1 1 0 0l-1-1h1l-1-1v-1l-1-1v-1-1-2c-1 1-1 0-1-2 0-1 0-2-2-2 0 0-1 0 0 0v-2c-1-1-2-1-2 1M0 211v5l1 2-1 2v1l1 1c0 1 0 1 0 0l1-2v-2-2l-1-5v-5l-1 5m268 2v1l-1-1v1l1 1c0-1 0-1 0 0 1 0 1 0 0 0v2l1-1c-1 0 0 0 0 0v1h-1v1h1v1l1 1v1c-1-1-1 0 0 0l1 1v1c-1 1-1 1 0 0h1v1h-1v1c1 0 1 0 0 0v1h2l-1 1c0-1 0-1 0 0 0 2 2 2 2 0v-2l-1-1-1-1-1-1v-1l1-1-1-1-1-2v-2l-1-1c0-2-1-3-1-1m130 5c0 3 0 3 0 0v-2 2m-375 0c0 1 0 1 0 0v-1a6 6 0 0 1 0 1m-1 5v-1-1a9 9 0 0 1 0 2m-21 0v9h2v-5c0-3-1-4-2-4m1 3v-1-1 2m21-1v1l-1 3 1 2v1c2 0 2-6 0-7-1 0-1 0 0 0m-22 5v-1-1 2m395-1v-1 1m1 1v-1-1 2m-123-1v1 3l1 1 1 1v1h1l-1-4v-1l-1-2h-1M3 233c-2 0-1 7 0 7h1v-2-6l-1 1m21 0v5l1 1v2h1c-2 1-1 4 0 3l1-2-1-2v-3l-1-4h-1m100 0l-1 2v2l-1-1v2l-1 2-1 1v2l-1 2-1 2v2l-1 2-1 1v1l-1 2 1 2v-1l1 1v-1-1l1-1v-2l1-1v-1-1-1h1l1-2v-1-1-1l1-1a1 1 0 0 1 0 1v-1-1l1-1v-1l1-1 1-2v-1-2h-1M4 237l-1 1 1-3v2m273-1v2 3l2 2v-3l-1-2v-2h-1m-42 3l1 2c1 1 1 0 1-1-1 0-1 0 0 0l-1 1v-1-2l-1 1M4 243c0 3 1 3 1 0v-1-1l-1 2m220-2l1 1v3l1-1v-1-2h-2m-198 2c0 1 0 1 0 0v-1 1m210-1l1 3v2l1 2 2-1-1-2-1-2c0-2-1-3-2-2m137 1c0 1 0 1 0 0v-1 1m21 0v2-1-1m-115 0l-1 1h1v1l1 1v1c1 0 1 0 0 0v1c1 0 1 0 0 0v1l1 1c-1 0-1 0 0 0h1v1 2l1 1c-1 0 0 0 0 0v1l2 2-1-4v-2l-1-2-1-1v-1l-1-2c0-2-1-3-2-2M5 245v5h2v8l2 2 1-1v-1l-1 1H8c0-1 0-1 0 0l1-4c0 1 0 1 0 0l-1-1a2 2 0 0 0 0-2c-1 0-1 0 0 0v-1l-1-1v-1l-1-1c0-2 0-2 0 0l1 1-1-3v-1H5m21 0v1h1v1h-1l1 1v0l1 1-1-4h-1m200 0v3a820 820 0 0 0-65 2l-1 1-1 1c0 1 0 1 0 0l1 1-1 2h0l-1 1v1l-2 2h1v1c1 0 0 0 0 0v1h-1l1 1-2 1 1 1v1l-1-1v2l-1 1-1 1v2-1 1 2c0-1 0-1 0 0l-1 1v2l-1 1-1 1v1h-41c-1 0-1 0 0 0v-3l1-1 1-2h-1l1-1v-2l1-2 1-1c1 0 1 0 0 0v-1h1l-1-1-1 1 2-2v-1l1-1h-1l-1 1 1-1 1-1 1-1-1-2-1 2-1 1-1 2v2l-1 1 1 2c0-1 0 0 0 0l-1 1-1 1-1 1v4c-2 1-2 1-2 3v3h22l22-1v-1h1v-2h1l1-2v-1l1-2v-2l1-1-1-2 1-1c1 0 2 0 2-2v-2l1-1v-2l1-2 1-2 1-2v-2h1l32-1h33v-2l-1-2h-1m166 1v1h1l-1 1 1 1c0 2 1 2 1-1 0-2-1-3-2-2m-363 6v5l1 2v1l1 1v1l1 2c1 0 2 1 1 2h1v1c-1 0-1 0 0 0v2l1 1h-1l1 1h1v-3l-1-1-1-2h-1v-4 1l-1-3v-2l-1-1v-1l-1-3c0-4-1-4-1 0m-1-1v-1 1m211 0v2l1 2 1 2v1l1 2 1 2 1 2c1 0 2-1 1-3-1 0-1 0 0 0l-1-1v-1l-1-1v-1l-1-1v-1-1l-2-2 1-1v-1h-2c1 0 0 0 0 0v1m153-1l-1 1v1h-1v1h1c1 0 1 0 0 0l1 1v-4m-2 4l1 2h-1c-1-1-1-1-1 1v2c1-1 1 0 0 0l-1 1v4c0 1 0 1 0 0h-1v2l-1 1-1 1v2c1 1 0 2-1 2l-1 2v1h1v1h-1v-1 3l2-2v-2l1-2 1-2v-1l1-1 1-2v-2l1-2 1-2v-6h-1m-105 4v2h-1l1 1 1 1v1l1 1v2l1 1 1 1h-1l2 2v-3l-1-2-1-1v-3l-1-1h-1v-1c0-2 0-2-1-1m-253 1l-1 1v-1-1l1 1m-23 3v2l1 2 1 2v1l1 2 1 2v1l1 3 1 1v2l1 1 1 1v2l1 1c0 1 0 2 2 1v-1l-1-1v-3l-1-1h-1v-1l1-1h-1-1l-1-1 1-1-1-1v-1l-1-1 1-1h-1l-1-1v-1-1l-1-1v-1s0-1 0 0v-1-1h-1v-1-2l-1-1-1 1m356 1l-1 1v3l-1 1-1 1v2l-1 1-1 1v2l-1 1-1 1v2l-1 1-1 1v2l-1 1-1 1v2l-1 1-1 1v1l-1 2h-1v1l-1 2-1 1v1h-1l-1 1v1l-1 1-1 1v1h-1l-1 2v1l-1 1h-1v1l-1 1-1 1v1l-1 1-1 1-1 1v3l1-2 1-1h1-1l1-1c1 1 3-2 2-4h1l1-1h1l1-3 1-2v1l1-2c1 1 1 0 1-1v-1l2-2 1-1v-1h0v-1c1 1 2 0 2-1h-1 1c0-1 0-1 0 0h1l-1-1 1-1 1-1h-1 1l1-2c-1 0-1 0 0 0v-1h1l1-2h-2 1l1-1v-1h1v-1l1-1 1-2 1-1-1-1h-1 1l1-1 1-1v-1l1-1c-1 0 0 0 0 0v-1l1-2v-1-1l1-1v-1l1-1 1-4v1l-1 1c1-1 0-2-1-2v2m-120-1l-2 1h1v-1h1m-1 2l1 4v2l1 2v1l1 2 1 2 1 1v1l22 1 22-1v-2l-1-3c-2 0-2 1-1 2s1 1 0 0-1-1 0 0v1h-41v-2 1h-1l-1-3-1-1c0 1 0 1 0 0 1-2 0-4-1-3 1-1 1-2-1-3h1c1-1-1-2-1-2m45 7v1l-1 1h2v1l1-2-1-2h-1v1m-254 0c-1 1 0 3 1 3s1 0 0 0v2h2l-1 1 1 1v1l1 1v-1-2l-1-1v-2l-1-1c0-3-1-3-2-2m114 7l-21 1c-14 0-21 0-20-1h41m231 0l1 1v1h-1c1 0 1 0 0 0l-1 1c0-1 0 0 0 0l1 1-1 1-1 1-1 2-1 1v2h-1v1c0-1 0-1 0 0l-1 1a1 1 0 0 0-1 1v2 2h-1v-1 2c-1 0-1 0 0 0l-1 1v1c0-1 0-1 0 0h-1v1c-1 0-1 0 0 0v-1 1h-1l-1 1v1l1 1-1 1v-1c0 1 0 0 0 0l-1 1-1 2-1 1s0 1 0 0v1l-1 1c1 0 0 0 0 0v1l-1 1-1 1c-1 0-1 0 0 0v1h-1v1h-1v1l-1 1-1 2v1c0 1 0 1 0 0l-1 1c0 1 0 0 0 0h2l1-2v-1l1-1h1l1-2v-1a1 1 0 0 0 1-1l1-2 1-1 1-1 1-2v-1l1-1 1-1 1-1v-1l1-1v-2h1l1-1 1-2v-1l1-1v-1l1-2 1-1 1-1v-2l1-1v-1l1-2 1-1-1-3h-1m-341 3l1 1v2l1 1v1l1 1c-1 0 0 0 0 0l1 1c-1 0-1 0 0 0l1 2v1l1 1h-1l1 1 2 1-1-1c0 1 0 1 0 0h1v2 1c1 1 0 0 0 0h1v1s1 0 0 0l1 1 1 2s-1 0 0 0a1 1 0 0 0 1 1c0-1 0-1 0 0l1 1 1 2 1 1v1c1-1 1-1 1 1h1l1 2v2h2s0 1 0 0v1c0 1 0 1 0 0l1-1v2l2 1s1 0 0 0l1 2v1l3 3 1 1 2 3h1c-1 0 0 0 0 0l2 2v1h1c0 1 0 1 0 0v1h1l1 1 2 2 1 1c-1 0 0 0 0 0l1 2 2 1c0-1 0-1 0 0l2 1h1l1-1-2-1h-1l-1-1v-1h-1l-1-1v-1h-1l-1-1v-1h-1l-1-1v-1h-1l-1-1v-1h-1l-1-1v-1h-1-2v-1-1l-1-1v-1h-1-2v-1-3a1 1 0 0 0-1 1v-2l-1-1h-1v-1l-1-1h-1-1c-1 1-1 1 0 0v-4h-1l-1-1-1-1-1-2v-1h-1l-1-1-1-2v-1l-1-1-1-1-1-2-1-1-1-2-1-1v-1l-1-1-1-1v-1c-1 1-1 0-1-1l-1-2v-1c0-1-1-2-2 0m340 4h-1l1-1v1m-361 3l1 1 1 1v2l1 1 1 1v1l1 2 1 1c0 1 0 2 1 1v1l1 1v1l1 1 1 2 1 1v1l1 1v1l1 1 1 1v1l1 1 1 1v1l1 1 1 1v1l1 1 1 1 1 1 1 1c0 2 1 2 1 0 1-1 0-2-1-2v-1l-2-1c0-1 0-2-1-1h1v1h-1v-1-1c1 0 1-1-1-1l-1-2c1-1 0-2-1-2v-1h-1v-1l-1-1-1-2-1-1v-1l-1-1h-1c0 1 0 0 0 0v-1l-1-1v-1-1l-1-1v-1h-1v-1l-1-1-1-1-1-1v-1-1c-1 0-1 0 0 0l-1-2h-1v-1-1s-1 0 0 0h-1l-1 1m314 27l-1 2h-1l-1 1v2h-1l-1 1v1h-1l-1 1v1h-1l-1 1v1h-1l-1 1v1h-1l-1 1v1h-1l-1 1-1 1-2 1v1s1 0 0 0h2v-1l1 1 1-1 2-2c-1 0 0 0 0 0l2-2 1-1 1-1c-1 0 0 0 0 0l3-3 1-1 2-2s0-1 0 0l1-1v-1c-1-1 0-2 1-1l1-1v-2c0 1 0 0 0 0h-2m25 5l-1 1-1 1c-1 0-1 1 0 0v1l-1 1-1 1c1 1 0 1-1 1l-1 2-1 1c-1-1-1 0-1 1l-2 1-1 1 1 1 1 1-1-1c-2 0-2 0-1 1 0 1 0 2-2 2h-1l1 1c0-1 0 0 0 0l-1 1h-1v1l-1 1-1 1-1 1a8 8 0 0 0-1 0v1l-1 1s-1 0 0 0l-1-1v1c0 2-1 2-2 2-1-1-1-1-1 1v2l3-3 1-1 3-3 1-1 1-1 3-3 1-1 3-3v-1l1-1 1-1h1v-1l1-1 1-1 1-1 1-1 1-1v-2-1-1m-315 3l1 2 1 1 1 1 1 1 1 1v1l3 3 4 4v1h1v1l1 1 1 1h1l1 1v1l1 1 1 1h1l1 1h1l-1 1 1 1h1v1h1l1 1v1l2 1 1-1h-1v-1c1 0 1 0 0 0h-1s-1 0 0 0v-1l-1-1c0-2-1-2-1-1v1c0-2-2-3-3-3 1-1 0-2-3-5a327 327 0 0 1-3-2l-2-2v1c1-1 1-1 0 0l-1-1v-1c0-1 0-1 0 0v1l-1-1-1-1v-1-1a9 9 0 0 1-1-1h-1v1l-1-1c-1 0-1 0 0 0a1 1 0 0 0-1-1h1c1 1 1 0 1-1l-1-1-3-3-1-1h-2l-1-1m271 12l-1 1-1 1-1 1h-1l-1 1-1 1h-1v1l-1 1h-1l-2 1a1 1 0 0 1 0 1h-1v1l-1 1h-2l-1 1v1h-1l-1 1-2 1h-1l-2 1v1a1 1 0 0 0-1 0l-1 1-1 1h-2l-1 1-1 1h-2v1l-1 1h-2v2h-5l-1 1-1 1h-2l-1 1-1 1h-1-2l-1 1h-2c0 1 1 2 2 1l-1 1h-1l4-1 1-1h1l1-1h2l2-1h1s0-1 0 0l1-1h2v-1-1h3l2-1 1-1h1v-1h1l1-1v-1 2l2-1v-1h1c0-1 0-1 0 0l2-1v-1 1l1-1 1-1v1l1-1h1v-2h1v0h1l1-1h1l1-1 1-1h1l1-1 2-2 3-1v-1l1-1v-1c2 1 5-1 4-2l1-1v0l2-2h2-4m-228 1v2l1-1v1h1l-1 1h2v1h1v2l2-1c-1-1 0-1 0 0h1v1c-1 1 0 2 1 1h-1v-1l2 2v1h2l1 1v1h1c0 1 0 1 0 0l1 1c-1 0-1 0 0 0h1l1 1c0-1 0-1 0 0 0 0 0 1 0 0l2 1v1h3v1l1 1c-1 0 0 0 0 0h1l1 1v1h1l2 1 1 1h2l1 1c1-1 1-1 0 0v1h1l1 1h2l1 1 2 1h1v-2h-1l-1-1-2-1h-1l-1-1-2-1h-3v-2h-1l-1-1-1-1h-2l-1-1-1-1h-1l-1-1-1-1h-2l-1-1v-1h-1l-1-1v-1h-2l-1-1-1-1-1-1-1-1h-1l-2-1c1-1 1-1 0 0l-1-1c0-2-2-3-3-2m247 11v2l-1-1c1 0 0 0 0 0l-1 1c-1 0-2 0-1 1l-1 1h-1l-2 2-1 1-1 1h-1c1-1 0-1 0 0l-1 1-1 1-1 2-3 1-1 1h-1v1h-1v1h-1c0-1 0-1 0 0l-1 1-1 1h-1s0 1 0 0l-1 1h-1c1 0 0 0 0 0l-1 1-2 1-1 1s1 0 0 0h1l-1 1-1-1h-1l-1 1v1h-1 1c0-1 0-1 0 0h-1v1c-1 0-1 0 0 0h-1l-1 1c0-1 0-1 0 0l-1 1v-1l-2 1h-2l-1 1-1 1c-1 0-1 0 0 0h-1v1h-2l-1 1-2 1-1 1-1 1-1-1s-1 0 0 0l-1 1c0 1 0 1 0 0v1h-1l-1-1v1h-1l-2 1-1 1-1 1-1-1-1 1h-1v0h-1s0 1 0 0l-1 1-1 1h-2s0 1 0 0l-1 1h-1-1c-1 0 0 0 0 0h-2l-1 1c0 1-1 1 0 0h-1-1c-2 0-2 0-1 1v1h-2 6l2-1 2-1h2l2-1 2-1h2l1-1 1-1h2l2-1v-1c0 1 0 1 0 0h3l1-1 2-1h1l1-1h2l1-1 1-1 2-1h1l1-1h1l1-1 2-1v-1h2l1-1h1l1-1 1-1 1-1h1l2-1 1-1 1-1 2-1 1-1h1l2-1v-1l1-1h1l2-1 1-1v-1l1-1h2l1-1 1-1 1-1 1-1 1-1h1v-1l2-1 1-2-1-1m-262 4l1 2 1 1v1l1 1h1l1 1 2 1h1l1 2 1 1 2 1 1 1 1 1 2 1h1l1 1 1 1 1 1h1l1 1h1c-1 1 0 1 1 1l1 1 2 1h1v1h1l1 1 2 1 1 1h1l2 1h1l1 1 2 1 1 1h1l2 1h1l1 1 2 1h1l1 1 3 1h1l2 1 1 1h2l2 1 2 1h2l2 1 2 1h3v-1l1 1a705 705 0 0 1 16 4v2h8l4 1 5 1a460 460 0 0 0 69-5c1-1-1-2-3-1h-1l-2 1c-2 2-2 2-3 1-1 0-1 0 0 0h1l-1-1-2 1c-1 0-2 0-1 1h-5l-1 1v-1l-4 1-1 1c-2 0-2-1-1-1h-8a49 49 0 0 0-8 1h-1-9-1v0l-5-1h-6v1h-3c-3 0-4-1 0 0l3-1h-6-1c0 1 0 1 0 0a1 1 0 0 1-1 0c1-1 0-1-3-1h-3 1-3l-1-1h-4-2l-1-1-2-1h-4-1v-1h1-2c-1 0-2 0-1 1 1 0 1 0 0 0h-1v-1h-1v-1h-2s0-1 0 0v-1h-1l-1 1v-1h-1-1l-1-1h-1-1c-1 0-1 0 0 0h-1v-1h-1-1-1-1l-1-1c0 1-1 0 0 0l-1-1h-1l-1-1h-2v1l-1-1-1-1c1 0 1 0 0 0h-1l-1-1h-1l-2-1-2-1-1-1c-1-1-1 0-1 1l-3-2h-1-1v-1h-1l-1-1-1 1v-1l-3-3h-1l-1-1v1l-2-1-1-1h-1l-1-2v1h-1s0-1 0 0l-1-1h-2l1-1-1-1h-1-1v-1l-1-1h-2l-1-1-1-1h-1 1v-1h-2v1l-1-1v-2h-1l-1-1h-1v1l-1-1-1-1v-1l-1-1h-1l-1-1s-1 0 0 0h-1l-1-1-1-1h-1v-2h-1l-1-1h-1m55 10v2h1v-1l1 1c-1 0 0 0 0 0l1 1h2v1h0l2 1c0-1 0-1 0 0h1l1 1h1l1-1v1l2 1h1l1 1v-2 1l1 1 3 1c0-1 0-1 0 0h1v1h3v-1l1 1h1v1l1 1 1-1v-1 1h1v1c2 0 0-3-1-3l-3-1h-2l-1-1h-2l-3-1-2-1-2-1h-1l-2-1h-2l-1-1-1-1h-2l-3-1m132 6l-2 1h-2l-2 1h-2l-2 1-3 1-2 1h-2l-3 1h-4l-4 1-5 1 2 1h2-1l-2 1h1l2-1h2l1-1h2s1 0 0 0h1l1-1h1l-1 1h2l2-1h1l1-1 2 1c2-1 2-1 1-2h3v-1l-1 1v1l2-2h1c-1 0 0 0 0 0h3l2-1h1c0-1 0-1 0 0l1-1h1l1-1h1l1-1h1l-2-1-2 1m-103 5h1v1c-1 1-1 1 1 1s2-1 1-1h-1l1-1 1 1v1h1l2 1h3l-1-1h1l1 1h1c-1 1 0 1 2 1h2c0 1 0 1 0 0h3-2l1 1 2-1 1 1h8c1 0 1 0 0 0l2 1c2 0 3-1 1-1l-2-1h-5l-6-1-4-1-4-1h-3l-3-1h-5m90 1h-2 2m-138 2c0 1 0 1 0 0m107 1l-13 1-13 1 1 1a168 168 0 0 0 27-2h2-2 10l-1-1h-11m-30 1h-3 3m102 2v1l-1-1h1m-33 11v1h-1l-1 1h4v-1h-1v-1h-1m-6 2c-1 2 0 2 2 2 3 0 3-1 1-1a30 30 0 0 1-1-1l-1 1v-1h-1m-2 2h-2 2m-74 3h-1c-1 0 0 0 0 0h1m50 1h-4 4" fill="#142c44"/>
  </g>
</svg>
