<svg xmlns="http://www.w3.org/2000/svg" viewBox="0 0 400 400">
  <g fill-rule="evenodd">
    <path d="M279 19h-1l-4 2-1 1h-1l-1 1-5 5a35 35 0 0 0-6 6l-3 4-2 2-1 2-1 1-2 2-1 1-1 1-1 1-2 4-2 2-1 2-1 1-1 1-1 1-2 4-1 1-1 2-1 2-1 1v1l-1 1-2 2v2l-1 1-1 1-1 1v2l-1 2-1 2-1 2-1 1-1 1-1 3v1l-1 3-1 3-1 2-1 2-1 2-1 2-1 3-1 4v2l-1 3-1 3-1 3v2l-1 1v5l-1 2a43 43 0 0 1-2 12v5l-1 5v5h1l1 1h2l2 1 2 1h2l1 1c0-1 0-1 0 0l2 1 2 1 1 1 2 1 2 1a81 81 0 0 0 11-11l4-5 3-2v-1l1-1 1-2 1-1 1-1 1-2 1-1 1-1 1-1v-1l1-2 1-1 1-1 1-1v-1l1-2s1 0 0 0h1v-2l1-1 1-1 1-2 1-1v-1l1-2 1-1 3 1 1 1 2 1h1l1 1 1 1 1 1v1h2l1 1v1h1l5 5 1 1 1 1 1 1 2 2 3 6 1 1 1 1 1 1 2 3v1h1l1 3 1 2 1 1v2h1v2l1 1 1 3 1 3 1 2 1 2 1 6v1l2 12v2a103 103 0 0 1-1 27v1l1-1v-2l1-3v-2h1l1-4v-4l2-12v-2-4-4-2a63 63 0 0 0-2-16l-1-4-1-3-1-5-1-2-1-1v-2l-1-2-1-3-1-2-1-1-1-2-1-2-1-1v-1l-1-2-1-1-1-2-1-1-1-2-1-1v-1h-1l-1-2-1-1-4-4-1-2-4-4-3-4h-1l-2-2-2-1-1-2v-1l1-2 1-2v-2l1-1v-1l1-2 1-3v-1h3l2 1 1 1h1l1 1 2 1 2 1 1 1 2 1 1 1v1l2 1 2 1v1l2 1 2 2a177 177 0 0 1 25 29l1 2 1 2 1 1v1l1 1 1 3 1 2 1 2v1h1l1 2v2l1 2 1 2 1 3 1 3 1 3 1 2v3l1 4 1 2v3l1 4v3l1 2v2a225 225 0 0 1-3 42l-1 3v3l-2 6v1h-1v1l-1 4v1h1l1-4 1-2 1-2v-1l1-1 1-4 1-2 1-2v-3l1-1c0-1 0 0 0 0l1-3v-3l2-7 1-4a807 807 0 0 1 1-10 103 103 0 0 0 0-27 103 103 0 0 1-2-13l-1-4-1-4v-3l-1-2-1-1v-3l-1-1v-2l-1-1-1-3v-1l-1-2-1-3-1-1-1-3-1-2-1-2-1-1v-1l-1-1-1-3-1-2-1-1-1-1v-1l-1-1v-1l-1-1-1-2-1-1-2-3-1-1-1-1-1-1-1-1a325 325 0 0 0-26-26h-1l-1-1-2-1-1-1-1-1h-1l-1-1-1-1v-5l2-9v-1l1-4 1-4 1-6v-2-3-2-3l-1-3-1-3-1-1-4-3h-5M168 54v1h-2a76 76 0 0 0-20 4l-3 1-2 1h-2-1l-2 1-1 1h-2l-3 1-2 1-2 1-1 1-2 1-3 1-1 1h-1l-2 1-2 1-2 1-1 1-1 1h-1l-1 1h-1l-1 1-1 1h-1l-1 1-1 1-1 1-3 2-1 1-1 1-2 1-1 1-2 2-2 1a99 99 0 0 0-14 15l-1 1-1 2-1 1-1 1-1 1v1l-1 1-1 1-1 2-1 1-1 1-1 1v2l-1 1-1 1-1 2-1 2-1 2-1 2-1 2-1 3-1 2-1 1-1 1-1 2-1 3-1 3v2l-1 3-1 2-1 5-1 1v1l-1 3v2a63 63 0 0 0-2 13l-1 5-1 6h-1l-3 1h-2l-1 1-4 1-3 1-2 1-3 1-4 1h-2l-2 1-1 1-1 1-2 1H9v1a1 1 0 0 0-1 0l-1 1a14 14 0 0 0-5 5v2l-1 5 1 1 3 4h1l2 1 1 1 2 1 1 1 3 1h2l1 1a43 43 0 0 1 3 0l3 1h2l1 1 8 1 5 1 6 1h4l3 1h10l10 1 11-1h11c2 1 2 0 2-1h5l5-1 5-1 7-1h1v-1h3l3-1h1c-1 0 0 0 0 0l1-1h1l5-1 3-1 3-1h1l2-1 3-1 2-1h2l2-1 2-1 2-1 2-1 5-1v-1-2a72 72 0 0 1-1-21l-5-1h-3l-3-1-3-1-4-1h-2l-3-1h-1-2l-3-1a222 222 0 0 0-28-2h-7v-5a82 82 0 0 1 5-22l1-3 1-3 1-1v-2l1-1 1-2 1-1 1-2 1-2 1-1v-2l1-1h1l1-2 1-1 2-4 1-1 2-2 1-2 3-3 3-3 2-1 2-1 1-1v-1l2-1 1-1 1-1 2-1 1-1 1-1 1-1h1l2-1 2-1 1-1 2-1 2-1 1-1h2l2-1 2-1 2-1 3-1 2-1c3 0 4-1 1-1h-1l-4 1-3 1-4 1-3 1-2 1-3 1h-2l-1 1h-1l-1 1h-2v1h-1l-2 1s-1 0 0 0h-1v1h-1l-2 1-1 1-1 1h-1l-1 1h-2v1l-1 1-3 2-3 2-5 4-2 2h-1l-2 3-3 4h-1l-2 2-2 4-2 1-1 2-1 2-2 2-1 1v2l-1 1-1 1-1 2-1 3-1 1-1 1-1 2v2c-1-1-1 0-1 1l-1 2-1 2-1 3v1l-1 3-1 2-1 6-1 2-1 5a112 112 0 0 0-15 1h-1v-6a196 196 0 0 0 1-12v-1l1-4v-3l1-4 1-3v-1s0-1 0 0l1-2v-2l1-4 1-3 1-2 1-2 1-2 1-2 1-2 1-2v-2l1-1 1-2 1-1 1-1v-2l1-1 2-3 2-3 1-2h1v-1l1-2 1-1 2-2 1-2 2-2v-1l4-3a80 80 0 0 1 14-14l2-1a13 13 0 0 0 3-2l1-1 1-1h1l1-1h1l1-1 2-1 1-1 2-1 1-1 1-1 2-1 2-1h2l1-1 1-1 2-1 2-1 3-1 2-1h3l2-1 2-1 2-1 3-1 5-1 4-1h4l4-1 2-1h-10m27 122l-1 1-2 1h-2l-2 2-2 1h-1l-2 2a2769 2769 0 0 1-2 3l-2 2-1 2v2l-1 3v10l1 2v3h1l1 3 1 1 1 1 1 1 1 1 1 1 1 1 1 1h1l1 1 3 1 3 1h11l2-1 3-1h1l1-1 1-1 6-6h1v-2l1-2 1-3v-13l-1-2-1-3v-1l-9-8-2-1-2-1h-2l-11-1m32 51l-3 2v1l-2 1-1 1-2 1-1 1h-1l-1 1h-1v1h-1l-2 1-1 1v2l1 2 1 3 1 5 1 1 1 3 1 3v2l1 1 1 2 1 2 1 3 1 2v2l1 2 1 2 1 1v1l1 2 1 1 1 2v2l1 1 1 2 1 1v1l2 2 1 2v1l1 2v2l-1 1-2 1h-1l-2 1-2 1-3 1-3 1-2 1-3 1h-3l-4 1a135 135 0 0 1-42-1l-3-1-3-1-3-1-3-1-1-1h-2l-2-1-2-1-2-1-2-1-2-1-1-1-1-1h-2l-1-1-3-2v-1l-2-1-2-1v-1l-1-1-2-1-2-1 1 1v2h1l3 3 4 3 2 1 1 2 1 1 2 1 1 1 1 1h1l1 1 1 1 2 1 1 1 1 1 2 1h1l1 1h1l1 1 2 1s0 1 0 0l1 1h2l2 1 2 1 2 1h2l1 1 2 1 3 1 6 1 1 1h4l5 1 5 1h5l6 1 5-1h5l5-1 4-1h4l1-1h1l3-1h3l2-1 3-1 4-1 3 3v1h1l2 2 1 2 1 1 1 1 1 1c1 1 1 2-1 3l-2 1-1 1-2 1h-1l-1 1-3 1-2 1-2 1-1 1-2 1h-2l-2 1h-1l-1 1h-1l-3 1-3 1-3 1-3 1h-4l-4 1-1 1h-4a80 80 0 0 1-9 0l-8 1a41 41 0 0 1-10-1 58 58 0 0 1-16-2h-4l-3-1-2-1-4-1-3-1-3-1-2-1h-2l-2-1v-1l-3-1-3-1-2-1-1-1h-2l-1-1-2-1-1-1-2-1-2-1-1-1h-1l-1-1-1-1-1-1-2-1-1-1h-1l-2-2-2-1-5-4-2-2a158 158 0 0 1-11-10l2 2 2 3 5 5 2 3v1l8 8h1l2 2 2 1 1 2 2 1 2 1 1 1 2 1a336 336 0 0 0 11 8l2 1 2 1 1 1h1l2 1 1 1 2 1h1l2 1h1l1 1 2 1h1l4 2h1l2 1 2 1h2l2 1 3 1h3l4 1 4 1 4 1a196 196 0 0 0 56-3h3l3-1 3-1 1-1a44 44 0 0 0 5-1l3-1h1l2-1 2-1v-1c1 1 4-1 4-1l1-1 2-1h2v-1h1c0-1 2-1 3 1l2 1 2 2 3 3 2 1 1 2 3 2 3 2v1l4 3 1 1c1 0 2 0 1 1h1l3 1 2 1 6 1 5-1 3-4 1-1v-5-5-2-1l-1-3-1-3-1-2-1-2v-2l-1-2-2-5c1 0 0 0 0 0l-1-4-1-1-1-1v-2l-1-2-1-2-1-3-1-2-1-1-1-1v-2l-1-1-1-2-1-2-1-2-1-1-1-2v-1l-1-2-1-2-1-1-1-1-1-2-1-1-1-1-1-2v-1l-1-1-1-1v-1l-2-2-1-1v-2l-2-1-1-1-1-2-1-1-1-1-1-1a56 56 0 0 1-2-3l-2-3-3-2v-1l-3-3-2-3-1-1h-1l-1-1s-3-2-2-3h-1l-3-3-7-7-3-2-2-1-4-4h-1l-1-1-1-1-1-1h-1l-1-1-1-1-3 2" fill="#241c24"/>
    <path d="M277 18l-2 1-1 1h-2l-1 1-7 7a88 88 0 0 1-5 6l-1 1-2 2-2 3-1 1-1 1-1 2a266 266 0 0 1-12 15l-1 2-1 1-1 2-1 1-1 1-1 2-1 1v2l-1 1-1 1-1 2-1 1-1 3-1 1v2l-1 1-1 2-1 1-1 2a22 22 0 0 1-1 3l-1 2v2l-1 1-1 2-1 2-1 3-1 4-1 2v2l-1 3a92 92 0 0 0-4 15l-1 4v5l-1 5-1 6-1 12 2 1 3 1 1 1 5 2 4 2 2 1 2 1 1 1 1 1 7-7 3-3 2-2 2-2 1-2 1-1 3-4 2-2 3-5h1l1-1v-1l1-1 1-2 1-2h1l1-2 1-2 1-1v-1l1-1 1-2 2-4 2-2 1 1 2 1 1 1 1 1h1l2 1 1 1 7 7 3 3 3 3 3 4 1 2 1 1 1 1 1 2v1l1 2 1 1 1 1v1l2 3 1 3v1l1 2 1 2 1 2 1 2 1 3 1 4v3l1 4a136 136 0 0 1-1 42l-2 5 1 1v-1h1v-2l1-2 1-2 1-3 1-3 1-2 1-3v-4l1-4 1-4a230 230 0 0 0-2-38v-4l-1-3-1-3-1-2-1-2-1-4-1-3-1-2-1-1-1-2-1-2-1-2-1-1v-1l-1-2-1-1-1-1-1-2-1-2h-1l-2-3-1-2-15-16c-2-1-2-2-1-3l1-3v-1l1-2 1-2 1-2c0-3 0-3 2-2l3 2 1 1h1l1 1 3 2a45 45 0 0 1 6 4l5 5 2 2a96 96 0 0 1 12 12l3 4a83 83 0 0 0 4 5l1 1 1 1v2l3 4 1 1 1 1 2 5 1 2 1 2 1 2 1 2 1 2 1 2v3l1 1 1 3 1 4 1 2 1 4v3l1 4 1 3 1 3v-2l-1-3a5 5 0 0 0 0-1v-3l-1-2-1-4v-3l-1-2-1-3-1-3-1-3-1-2-1-2v-2l-1-2h-1v-1l-1-2-1-2-1-3-1-1v-1l-1-1-1-2-1-2-1-1-1-1v-1l-1-1-1-2-1-1-1-1-1-1-1-2-2-2-1-1v-1h-1v-2a177 177 0 0 0-27-23l-2-1-1-1h-1l-1-1-2-1h-3v1l-1 3-1 2v1l-1 1v2l-1 2-1 2-1 1 2 2 2 1 2 2a84 84 0 0 1 16 17v1l1 1 1 2 1 1 1 2 1 1 1 2v1l1 1 1 2 1 2 1 1 1 2 1 3 1 2v2l1 1 1 2 1 5 1 3 1 4v4l2 12v12a70 70 0 0 1-4 20v2l-1 3v2l-1 1v-1l1-6v-4a103 103 0 0 0-31-82h-1v-1l-1-1h-2v-1l-1-1-1-1-1-1h-1l-2-1-1-1-3-1-1 1-1 2v1l-1 1-1 2-1 1-1 1v2h-1c1 0 0 0 0 0l-1 2v1l-1 1-1 1-1 1-1 2v1l-1 1-1 1-1 1-1 2-1 1-1 1-1 2-1 1v1l-3 2-4 5-2 3-9 8-2-1-2-1-1-1-2-1-2-1c0-1 0-1 0 0l-1-1h-2l-2-1-2-1h-1-1l-1-1h-1v-2-1-2a124 124 0 0 1 1-11l2-11 1-2v-3-2l1-1v-2l1-3 1-3 1-3v-2l1-4 1-3 1-2 1-2 1-2 1-2 1-3 1-3v-1l1-3 1-1 1-1 1-2 1-2 1-2v-2l1-1 1-1 1-1v-2l2-2 1-1v-1l1-1 1-2 1-2 1-1 2-4 1-1 1-1 1-1 1-2 2-2 2-4 1-1 1-1 1-1 2-2 1-1 1-2 2-2 3-4 1-1 5-5 5-5 1-1h1l1-1 4-2h6l4 3 1 1 1 3 1 3c0 3 1 4 1 1l-2-7-3-4h-1c0-1-6-2-9-1m14 16l1 2v-2-1l-1 1m0 5l-1 6-1 4-1 4v1l-2 9v5l1 1 1 1h1l1 1 1 1 2 1 1 1h1l1 1 1 1 1 1 1 1 9 8a63 63 0 0 0 6 6l2 1a325 325 0 0 1 17 23l1 2 1 3 1 1v1l1 1 1 2 1 2 1 3 1 1 1 3 1 2v1l1 3 1 1v2l1 1v3l1 1 1 2v3l1 4 1 4 1 1 1 12 1 7a103 103 0 0 1-2 25 807 807 0 0 0-5 23v3l-1 2-1 2-1 2v1l-1 3-1 2-1 2-1 4h-1v-1l1-4v-1h1v-1-1l2-5v-3l1-3 1-1v-4l1-5v-2l1-2c0-4-1-2-2 3l-1 6-1 3v4l-1 3-1 3-1 3-1 4-1 2-1 2v2l-1 2-1 2-1 3-1 3h1v-1l2-4 1-1 1-2 1-1 1-2 1-2 1-2 1-2 1-3 1-3 1-3 1-3 1-2 1-2v-3l1-4 1-4 1-4 1-5 1-14 1-4v-3-2l-1-5a96 96 0 0 0-4-28l-1-4v-3l-1-2-1-2-1-3-1-2-1-3-1-2v-2l-1-2-1-1v-1a42 42 0 0 0-6-10v-1l-1-2-2-2-1-2v-1l-1-1-1-1-1-1-2-4-1-1-1-1a21 21 0 0 1-2-2l-4-5-1-1a131 131 0 0 0-24-21l-1-1h-1c-2-1-4-4-3-5l1-3v-4l1-4 1-4 1-13v2M174 53l-2 1a64 64 0 0 0-16 2h-4l-4 1-4 1-3 1-2 1v1l-5 1h-2l-3 1-2 1-1 1-2 1-2 1h-1l-2 1-2 1-2 1-1 1-2 1-2 1-1 1v1c-1-1-4 1-6 3l-1 1a56 56 0 0 0-6 4l-1 1-4 3a197 197 0 0 0-30 35l-1 2-1 2-1 2-1 2-1 1v2l-1 2-1 2-1 1-1 2-1 3-1 2v2l-1 2-1 3-1 2-1 2-1 4-1 4v4l-1 4-1 7-1 7v2c0 2 0 2-2 2h-1l-3 1-3 1-3 1-3 1-3 1-2 1h-2l-3 1-1 1a20 20 0 0 0-7 3l-6 6v1c-1 0-2 6-1 9l3 4 4 3 2 1 4 1 1 1 3 1h3l4 1 5 1 4 1 4 1h10-2l-6-1-5-1-8-1-1-1h-2l-3-1a43 43 0 0 0-3 0l-1-1h-2l-3-1-1-1-2-1-1-1-2-1H5l-3-4-1-1 1-5v-1-1l1-2 4-3 1-1a1 1 0 0 1 1 0v-1h1l2-1 1-1 1-1 2-1h2l4-1 3-1 2-1 3-1 4-1 1-1h2l3-1h1l1-6 1-5v-1a63 63 0 0 1 2-14l1-3v-1l1-1 1-5 1-2 1-3v-2l1-3 1-3 1-2 1-1 1-1 1-2 1-3 1-2 1-2 1-2 1-2 1-2 1-1 1-1v-2l1-1 1-1 1-1 1-2 1-1 1-1v-1l1-1 1-1 1-1 1-2 1-1 2-2 1-2h1v-1a99 99 0 0 1 18-16l1-1 3-2 1-1 1-1 1-1h1l1-1 1-1h1l2-1 1-1 1-1 2-1 2-1 2-1h1l1-1 3-1 2-1 1-1 2-1 2-1 3-1h2l1-1 4-1 3-1 3-1 2-1h3l4-1a76 76 0 0 1 13-2l6-1h4l-2 1-4 1h-4l-4 1-5 1-2 1-3 1-2 1-2 1h-3l-2 1-3 1-2 1-2 1-1 1-1 1h-2l-2 1-2 1-1 1-1 1-2 1-1 1-2 1-1 1h-1l-1 1h-1l-1 1-1 1a13 13 0 0 1-3 2l-2 1v1l-2 1-2 2-10 10-4 3v1l-2 2a34 34 0 0 0-1 2l-2 2-1 1-1 2v1h-1l-1 2-2 3-2 3-1 1v2l-1 1-1 1-1 2-1 1v2l-1 2-1 2-1 2-1 2-1 2-1 2-1 4-1 3v3l-1 2-1 4-1 3v3l-1 4v3l-1 2v14h5l11-1 1-5 1-2 1-6 1-2 1-3v-1l1-3 1-2 1-2c0-1 0-2 1-1v-2l1-2 1-1 1-1 1-3 1-2 1-1 1-1v-2l1-1 2-2 1-2 1-2 3-3 1-2 2-2h1a44 44 0 0 1 8-9 30 30 0 0 1 8-6l3-2 1-1v-1h2l1-1h1l1-1 1-1 2-1h1l1-1 2-1 4-1 1-1 1-1h2l3-1 2-1 3-1 4-1 3-1 4-1h1c3 0 2 1-1 1l-2 1-3 1-2 1-2 1-2 1h-2l-1 1-2 1-2 1-1 1-2 1-2 1h-1l-1 1-1 1-1 1-2 1-1 1-1 1-2 1v1l-1 1-2 1-2 1-3 3-3 3-1 2-2 2-1 1-2 4-1 1-1 2h-1l-1 1v2l-1 1-1 2-1 2-1 1-1 2-1 1v2l-1 1-1 3-1 3-1 3-1 2-1 3v3l-1 1v3l-1 7v5h7a442 442 0 0 1 0-1h-6v-5l1-4v-4l1-4 1-3 1-4 1-2 1-2 1-2v-2h1a45 45 0 0 1 5-10l1-3 1-2h1l2-3 2-2v-1l8-8a49 49 0 0 1 10-9l4-3 1-1 2-1 2-2h1l2-1 1-1 2-1 2-1 2-1h2l2-1 1-1 1-1 5-1 3-1 3-1h2l4-2h-5l-2 1a69 69 0 0 0-22 5h-2l-3 1-2 1-5 3h-1l-6 3-2 1-1 1-1 1-1 1-2 1-1 1h-1l-2 2-3 2-1 1-1 1-3 3a48 48 0 0 0-11 11l-2 2a118 118 0 0 1-1 3l-1 1-1 2-1 1-1 1-1 1-1 2-2 4-1 1v1l-1 2-2 4v1l-1 2-1 2-1 3-1 2-1 4-1 3-1 7c0 2 0 2-5 2l-4 1h-6v-3a101 101 0 0 1 3-24l1-6v-1l1-1 1-3v-2l1-2 1-3 1-2 1-3 1-1 1-2v-1-1c0 1 0 0 0 0l1-1 1-2 1-2 1-1 1-2v-1l1-2 3-5 1-1 3-4a126 126 0 0 0 6-7 149 149 0 0 1 18-17 28 28 0 0 1 2-2 38 38 0 0 0 1-1l2-1 3-2 2-2 1-1h1l1-1 5-3 2-1h1l2-1a37 37 0 0 1 8-4l1-1h2l2-1 3-1 3-1 3-1 3-1 3-1h3l3-1a88 88 0 0 1 15-2l3-1h3l-1-1h-16m23 122l-2 1-4 1-2 1h-1l-2 1a29 29 0 0 0-8 9l-1 2v1l-1 9 1 9v1l1 2 1 1c0 2 4 5 7 7l2 2 2 1h1l6 1 1 1h4l2-1 5-1h1l6-3v-1l5-6s0-1 0 0l1-1 1-2 1-2 1-3v-10l-1-3-1-2v-1l-2-2-1-2a31 31 0 0 0-8-7l-2-1-5-1-1-1h-7m9 2h2l2 1 2 1 5 4 4 5 1 3 1 2v13l-1 3-1 3-1 1a40 40 0 0 1-8 8h-1l-3 1-2 1h-11l-3-1-3-1-1-1h-1l-1-1-1-1-1-1-1-1-1-1-1-1-1-1-1-3h-1v-3l-1-2v-10l1-2v-3l1-2 2-2 2-3 3-2 2-1 2-2h2l2-1h12m-67 9l5 1-2-1h-3m205 2l1 2 1-2-1-2-1 2m-200-1l4 1 3 1 3 1h3l5 1v2 3l1-4c0-1-1-2-5-2l-2-1-3-1-4-1h-5m18 16l1 9v3l-5 1-2 1-2 1-2 1-2 1h-2l-2 1-3 1-2 1h-1c-1 0 0 0 0 0l-3 1-3 1-5 1h-1l-8 2v1h-1l-7 1-5 1-5 1h-5 12l4-1 5-1 3-1 4-1h3l3-1 3-1 4-1 3-1 2-1 3-1h2l2-1 3-1 3-1 2-1 1-1 2-1h2l1-2a80 80 0 0 1 0-3l-1-1v-5c-1-4-1-5-1-2m64 23l-6 5-1 1-2 1-2 1-2 1-2 1-1 1 1 7 1 3 1 2 1 2v3l1 2 1 3 1 3 1 2 1 1 1 2v2l1 1 1 3 1 3 1 1 1 2 1 1v2l1 2 1 2 1 2 3 4v1l1 1 1 3a174 174 0 0 1-19 8l-3 1-8 1h-1a112 112 0 0 1-40-3l-2-1-3-1-2-1-2-1h-1l-3-1-2-1-2-1-1-1-1-1-2-1a24 24 0 0 1-6-3l-1-1-4-3-8-7-4-4-1 2 2 2a142 142 0 0 0 4 4l12 13a10 10 0 0 0 2 1l2 1 1 1 1 1 1 1 2 1 1 1 2 1 1 1h1l2 1 1 1 2 1 2 1 1 1 2 1h2l2 1 2 1 2 1 3 1 5 1 1 1 10 2 13 1-5-1-5-1-5-1h-4l-1-1-6-1-3-1-2-1-1-1h-2l-2-1-2-1-2-1a14 14 0 0 1-2 0l-1-1c0 1 0 0 0 0l-2-1-1-1h-1l-1-1h-1l-2-1-1-1-1-1-2-1-1-1-1-1h-1l-1-1-1-1-2-1-1-1-1-2-2-1-4-3-3-3h-1v-2l-1-1c1 0 0 0 0 0l2 1 2 1 1 1v1l2 1 2 1v1l3 2 1 1h2l1 1 1 1 2 1 2 1 2 1 2 1 2 1h2l1 1 3 1 3 1 3 1 3 1h3l4 1a135 135 0 0 0 42-1l3-1 2-1 3-1 3-1 2-1 2-1h1l2-1 1-1v-2l-1-2v-1l-1-2-2-2v-1l-1-1-1-2-1-1v-2l-1-2-1-1-1-2v-1l-1-1-1-2-1-2v-2l-1-2-1-3-1-2-1-2-1-1v-2l-1-3-1-3-1-1-1-5-1-3-1-2v-2l1-1 2-1h1v-1h1l1-1h1l1-1 2-1 1-1 2-1v-1l3-2 3-2 1 1 1 1h1l1 1 1 1 1 1h1l4 4 2 1 3 2 7 7 3 3h1c-1 1 2 3 2 3l1 1h1l1 1 2 3a19 19 0 0 1 3 4l3 2 2 3a56 56 0 0 0 2 3l1 1 1 1 1 1 1 2 1 1 1 1 1 1v1l1 1 2 2v1l1 1 1 1v1l1 2 1 1 1 1 1 2 1 1 1 1 1 2 1 2v1l1 2 1 1 1 2 1 2 1 2 1 1v2l1 1 1 1 1 2 1 3 1 2 1 2v2l1 1 1 1 1 4s1 0 0 0l2 5 1 2v2l1 2 1 2 1 3 1 3v13l-1 1-3 4-5 1-6-1-2-1-3-1-2-1-1-1-4-3v-1l-3-2-3-2-1-2-2-1-3-2-2-3-2-1c-1-2-3-2-3-1h-1v1h-2l-2 1-1 1s-3 2-4 1v1l-2 1-2 1h-1l-3 1-2 1a52 52 0 0 0-7 2l-3 1h-3l-3 1-4 1-4 1a196 196 0 0 1-60-3l-3-1-2-1h-1-1l-2-1-2-1h-1l-4-2h-1l-2-1-1-1h-1l-2-1h-1l-2-1-1-1-2-1h-1l-1-1-2-1-2-1-1-1-2-1-2-1c-1-1-1-2-3-2l-2-2a336 336 0 0 1-32-32 158 158 0 0 0 34 27l1 1 2 1 1 1h2l1 1 2 1 3 1 3 1v1l2 1h2l2 1 3 1 3 1 4 1 2 1 3 1h4l4 1 5 1h5l-2-1-5-1h-6l-3-1-3-1-4-1-4-1-2-1-2-1h-2l-2-1a32 32 0 0 0-4-1l-2-1-1-1-2-1a46 46 0 0 1-11-6l-4-2-2-1-2-2a347 347 0 0 1-31-30l-1-1v-1l-1-1-1-1-1-1v2l1 1v1l1 2 3 4 1 2 1 1v1l3 5 3 2 1 2 1 1 1 2a89 89 0 0 0 12 11l2 3 2 1 2 2 1 1 6 4 1 1 1 1 1 1h2a33 33 0 0 0 6 4l4 2 1 1 3 1 1 1 1 1h2a69 69 0 0 0 13 5l1 1 3 1 2 1 5 1h1l5 1 5 1 10 1 1 1a177 177 0 0 0 52-5h3l2-1 3-1 3-1 2-1h2l3-1 2-1 1-1 2-1 2-1 2-1 2-1 3 1 4 4 3 3a141 141 0 0 1 8 6l1 1 1 1 1 1h1l3 2 1 1 2 1 2 1 2 1h9l2-1 3-4c2-2 2-17 0-17v-1l-2-6-1-2-1-2v-2l-1-2-1-2-1-2-1-3-1-2-1-2v-2l-1-1-1-4-2-3-1-1v-1l-1-1v-2l-1-1-1-2-1-2-1-2-2-4-1-1-1-1-1-2-1-1-1-2-1-1-1-1-1-2v-1l-1-1-1-1-1-2-1-1-1-1-1-1v-1l-2-3-2-2-1-1v-1a87 87 0 0 1-7-7l-2-3a283 283 0 0 0-37-31l-3 2m-175 7h0m41 0h5l-3-1-2 1m-36 0l4 1 3-1h-7m28 0l3 1 4-1h-7m-18 1h8-8m177 79l-1 1-3 1-2 1h-3l-3 1h-1l-1 1h-4l-4 1-5 1c-5 0-7 1-3 1a96 96 0 0 0 33-7 155 155 0 0 0 8 10c1 1 1 2-1 3l-1 1-2 1-2 1h-2l-2 1-1 1-2 1-2 1-2 1-3 1h-2l-1 1-3 1-4 1-3 1-4 1-3 1h-5l-5 1-3 1h-3 9a61 61 0 0 1 4-1l4-1h4l3-1 3-1 3-1 3-1h1l1-1h1l2-1h2l2-1 1-1 2-1 2-1 3-1 1-1h1l2-1 1-1 2-1c2-1 2-2 1-3l-1-1-1-1-1-1-1-2-2-2h-1v-1l-3-3h-3m-40 8l3 1c3 0 2-1 2-1l-2-1-3 1m-22 23l8 1 8-1h-16" fill="#241c1c"/>
  </g>
</svg>
