<svg xmlns="http://www.w3.org/2000/svg" viewBox="0 0 400 400">
  <g fill-rule="evenodd">
    <path d="M2 2L0 3v66a960 960 0 0 0 7 123l1-1 1-1 1-1 1-1 2-2 2-2a109 109 0 0 0 8-7l1-1 4-4 1-1 1-2 2-1 1-1 1-1 1-1v-1a460 460 0 0 0 40-38l7-8L197 3C197 2 4 1 2 2m202 0v1l22 22a208740 208740 0 0 1 173 173l1-65a743 743 0 0 0-1-66l-2-1-3-1-2-1c-2 0-2 0-2-2s0-1-2-1l-2-1-2-1-1-1-1-1-1-1c0-2 0-2-2-2l-2-1-1-1-2-1-1-1-1-1-2-1h-2v-1l-1-1-1-1-2-1-1-2-1-1-1-1-1-1-1-1-1-1-1-1-1-2-2-1-1-1-1-2-1-2-1-1-1-1-1-1-1-1-1-3c0-2 0-2-2-2l-1-1-1-1-1-2-1-3-1-1-1-1-1-1-1-2c-2-2-1-2 3-3a14386 14386 0 0 1-134-2m41 135h8-8m73 145a78879 78879 0 0 0-116 117l99 1h98v-99l-1-98-80 79M3 205v7c0 7 1 8 2 2 0-3 0-4 1-3h2l-1-1-1-2-1-1-1-1-1-1m6 8h1l-1-1v1m178 177v1h1c0-2 0-2-1-1m2 2c-1 1 1 2 1 2v-2h-1m1 3l-2 1c-2 0-2 1 0 1h7l-1-1-1-1h-3" fill="#a03128"/>
    <path d="M200 3A47389 47389 0 0 0 2 200l198 198c2 0 199-197 198-198l-25-26A55434 55434 0 0 1 200 3m66 131l1 1v132l-133-1a4348 4348 0 0 1 1-132h131" fill="#fbf9e1"/>
    <path d="M135 191v74l1 1h42a2155 2155 0 0 0 30-2c-1 0-2-2-2-5l-1-3-1-5-1-2-1-1v-2l-3-6-1-2-2-3-2-4-2-2c0-1 0-2-2-3l-3-4-7-7-3-3-5-3-3-2-5-3a82 82 0 0 1-9-5h-2l-3-1-3-1-5-2h-4c-1 1-1 1-2-8l-1-6v10m-91 61l-2 1h-1l-2 2-2 1-2 1-3 1-1 1c-2 0-3 1-3 2h-1l-2 1v1l-4 2-1 1-1 1-1 1h-1L7 278c-1-1-2 0-2 2l-1 3-1 2v-5l-1-10c-1-6-1-5-1 22v29l-1 24 1 23v14l1 16v2h60a367 367 0 0 0 59-2h-1l-1-1c-2-1 1-3 3-3l2-1c0-1 0-2 4-5a35 35 0 0 0 6-7l1-1 1-1 1-1v-1l2-3 1-1 1-2 1-1 2-3v-1l2-4v-1l2-3v-1-5a16 16 0 0 1-1-2l-1-3-43-43-50-49-1-1-2-1h-2l-4-1M5 395v3l-2 1v-1-6l1 2 1 1" fill="#f14e25"/>
    <path d="M0 1c0 2 0 2 2 1s195-1 195 1A10504 10504 0 0 1 71 129a37 37 0 0 0-2 2l-4 4a19263 19263 0 0 0-64 62H0v3l1 3 1 1h1l3 3a12333 12333 0 0 0 197 192 21566 21566 0 0 1 197-199l-1-2-75-75a9933631 9933631 0 0 1-98-98L204 2h196V0H0v1m275 75a435263 435263 0 0 0 123 124c1 1-196 198-198 198L2 200a778 778 0 0 1 59-59l3-3a583 583 0 0 0 4-4A47389 47389 0 0 1 201 3l74 73m-140 58l-1 1v131l133 1V135l-1-1H135m130 2l1 65v65H136l-1-1V136h130M0 279a316 316 0 0 0 1 0 316 316 0 0 0-1 0m0 105v16h1l1-1-1-16v-15l-1 16" fill="#db7960"/>
    <path d="M255 2a2525 2525 0 0 1 84 2c-4 1-5 1-3 3l1 2 1 1 1 1 1 1 1 3 1 2 1 1 1 1c2 0 2 0 2 2l1 3 1 1 1 1 1 1 1 1 1 2 1 2 1 1 2 1 1 2 1 1 1 1 1 1 1 1 1 1 1 1 1 2 2 1 1 1 1 1v1h2l2 1 1 1 1 1 2 1 1 1 2 1c2 0 2 0 2 2l1 1 1 1 1 1 2 1 2 1 2 1c0 1 0 2 2 2l2 1 3 1 2 1v1l1-33V3l-44-1H223h32M0 166v31h3v-2a1752 1752 0 0 1-3-29m136-30l-1 1v21a332 332 0 0 0 3 37h4l5 2 3 1 3 1h2a50 50 0 0 0 5 3l4 2 5 3 3 2 5 3 3 3 7 7 3 4c2 1 2 2 2 3l2 2 2 4 2 3 1 2 3 6v2l1 1 1 2 1 5 1 3c0 3 1 5 2 5h1l2 1h1l27 1h27v-65l-1-65-64-1h-64l-1 1m128 1h-10 10M22 178c-1 1-1 1 0 0l1-1-1 1m-4 4l-1 1 1-1 1-1-1 1m-3 2l-1 2-2 1h1l3-3h-1m-5 5l-1 1-1 1h1l2-3-1 1m-3 3l-1 2-1 1-1 1 2-2 2-2H7m-7 28l1 17v12l2 31v5l1-2 1-3c0-2 1-3 2-2l10-10h1l1-1 1-1 1-1 4-2v-1l2-1h1c0-1 1-2 3-2l1-1 3-1 2-1 2-1 2-2c0-1 6-2 7 0h2l2 1 1 1-28-28a1484 1484 0 0 1-24-24l-1 17m5-13l1 1 1 2 1 1H6c-1-1-1 0-1 3-1 6-2 5-2-2s0-8 1-6l1 1m5 5c1 1 0 1-1 1v-1h1m136 135v1l1 2 1 2v6l-2 3v1l-2 4v1l-2 3-1 1-1 2-1 1-2 3v1l-1 1-1 1-1 1-1 1-5 6c-4 3-4 4-4 5l-2 1c-2 0-5 2-3 3l1 1h1l1 1a798 798 0 0 0 76 0 984 984 0 0 0-52-52m84 24l-2 3 5-5-3 2m-15 16a117 117 0 0 0-11 12l1-1 11-12 11-12-12 13m-27 4h-1v-1c1-1 1-1 1 1m3 2l-1 1s-2-1-1-2l2 1M3 395v4l2-1v-3l-1-1-1-2v3m190 0l1 1 1 1h-7c-2 0-2-1 0-1l2-1h3" fill="#cb4129"/>
  </g>
</svg>
