<svg xmlns="http://www.w3.org/2000/svg" viewBox="0 0 256 256">
  <path fill="#a5a5ce" d="M70.7 230.2c-31-13.5-56.1-25-57-26.2-2.2-3-2.4-150.8-.2-152.5.8-.6 27-12 58.4-25.2L129 2 187.8 28A2742 2742 0 0 1 248 55c1 .7 1.5 5.4 1.5 16.5 0 8.5.5 41.1 1.3 72.5 1.1 49.5 1 57.4-.4 59.5-1.1 1.7-19 10-57.8 26.7-47 20.3-57 24.2-61.2 24.2-4-.1-17.2-5.4-60.7-24.2zm80-60.8c16-7 20.4-9.2 18.7-9.9l-21.4-9-19-8.1-20.2 8.5c-11 4.6-20.4 8.8-21 9.3-.7.7 38 18 40.8 18.2.6 0 10.6-4 22.1-9zm-51.3-30.8l21.2-8.9.3-31.9a294 294 0 0 0-.6-31.8c-.5 0-11 4.3-23.6 9.6L74 85.2l-.3 31.9-.3 32 2.4-.8c1.3-.4 12-4.8 23.6-9.7zm84.2-23V83.5l-23.3-9.8-23.3-9.8v64.2l11.7 5a3662.9 3662.9 0 0 1 34.6 14.6c.2 0 .3-14.4.3-32.1z"/>
  <path fill="#7171e8" d="M71 229.8c-49-21.2-56.6-24.8-57.7-27.4-.8-2-1.1-25.8-1-76.7l.4-73.8 58.1-24.7 58.1-24.7 58.3 25.6c32 14.1 59 26.3 59.7 27 2 1.8 5.3 143.7 3.5 147.7-1 2.1-12.4 7.5-58.1 27.2-40.5 17.4-58.1 24.5-61 24.4-2.4 0-25-9.3-60.3-24.6zm82.3-61a73.8 73.8 0 0 0 17-8.7c-.5-.5-10-4.8-21.2-9.5l-20.3-8.7-20.6 8.8c-11.3 4.8-21 9-21.4 9.5-.5.3 8.7 4.8 20.4 9.8 19.7 8.5 21.6 9 24.7 7.8l21.4-9zM109 135a50.7 50.7 0 0 0 11.7-6c.3-.6.3-15.3.2-32.5l-.3-31.4L97.3 75 74 84.7l-.3 32.6-.3 32.6 12.2-5.1A9264 9264 0 0 1 109 135zm75.7-19.4V83.5l-22.4-9.3-24.4-10c-1.9-.7-2 1.3-2 31.6v32.3l23 9.8c12.6 5.3 23.6 9.7 24.4 9.8 1.1 0 1.4-7.1 1.4-32.1z"/>
  <path fill="#6565d3" d="M71 229.8c-49-21.2-56.6-24.8-57.7-27.4-.8-2-1.1-25.8-1-76.7l.4-73.8 58.1-24.7 58.1-24.7 58.3 25.6c32 14.1 59 26.3 59.7 27 2 1.8 5.3 143.7 3.5 147.7-1 2.1-12.4 7.5-58.1 27.2-40.5 17.4-58.1 24.5-61 24.4-2.4 0-25-9.3-60.3-24.6zm49.9-14.7l-.3-21.2-30.7-13.4c-16.8-7.5-31.1-14-31.8-14.7-.7-.7-1.3-16.5-1.7-42l-.6-41-14.5-6.2a373 373 0 0 0-15-6c-.3 0-.6 28-.6 62.4v62.5l2.6 1.1L75 217c24.4 10.6 44.7 19.3 45.2 19.3s.7-9.5.6-21.2zm62.9 1.3c25.1-11 46.2-20.3 46.6-20.8.5-.5.8-28.8.6-62.9l-.3-62-14.2 6-14.2 6.1-.5 39.6c-.4 28-1 40.2-2 42-1.5 2.7-3.9 3.8-38 18.6L137 193.7V215c0 11.7.1 21.3.4 21.3l46.3-19.9zm-30.5-47.6a73.8 73.8 0 0 0 17-8.7c-.5-.5-10-4.8-21.2-9.5l-20.3-8.7-20.6 8.8c-11.3 4.8-21 9-21.4 9.5-.5.3 8.7 4.8 20.4 9.8 19.7 8.5 21.6 9 24.7 7.8l21.4-9zM109 135a50.7 50.7 0 0 0 11.7-6c.3-.6.3-15.3.2-32.5l-.3-31.4L97.3 75 74 84.7l-.3 32.6-.3 32.6 12.2-5.1A9264 9264 0 0 1 109 135zm75.7-19.4V83.5l-22.4-9.3-24.4-10c-1.9-.7-2 1.3-2 31.6v32.3l23 9.8c12.6 5.3 23.6 9.7 24.4 9.8 1.1 0 1.4-7.1 1.4-32.1zM209 63.2a38 38 0 0 0 8.6-4.5c-.3-.3-20.4-9.2-44.6-20l-44.2-19.4L84 39.1 39 59l3.9 1.6L56 65.9l9.3 3.9 28.1-12.3a523.6 523.6 0 0 1 31.9-13.1c3-.8 8.4 1.1 35.7 12.5 30.3 12.5 32.3 13.2 35.5 11.8 2-.7 7.5-3.2 12.4-5.5z"/>
  <path fill="#5c5cc4" d="M70.7 229.6c-35.9-15.5-55-24.4-56.5-26.1-2-2.5-2.1-5.7-1.8-77l.3-74.5 58.1-24.7 58.1-24.7 58.7 25.8a2142 2142 0 0 1 59.6 27c.6.5 1.8 33.4 2.7 73 1.7 68.5 1.6 72.3-.2 74.9-1.5 2-17.2 9.3-57 26.4-50.5 21.7-55.5 23.7-61.3 23.6-5.6-.1-12.4-2.8-60.7-23.7zm50.4-14v-21.9l-29.8-13c-16.4-7-30.8-13.8-32-15-2.2-2-2.4-4-2.9-42.6l-.6-40.5-14.1-6a210 210 0 0 0-15.1-6c-.5 0-.8 28.1-.6 62.6l.3 62.7 47.1 20.7 47.4 20.8c.2 0 .3-9.8.3-21.8zm63.9.6l46.3-20.2v-62.9c0-56.5-.2-62.8-1.8-62.1-1 .3-7.9 3.3-15.3 6.5l-13.6 5.8V123c0 38.3 0 40-2.2 42.3a280 280 0 0 1-31.8 15.3l-29.6 13V215c0 11.7.4 21.3.8 21.3.5 0 21.7-9 47.2-20.1zm-32.6-47c19.2-8.3 20.2-8.9 17.2-10l-22-9.3-18.7-8-20.6 8.7c-11.4 4.8-21 9.1-21.6 9.6-1.2 1.1 41.4 19.2 43.5 18.4l22.2-9.4zm-40-35.5l8.7-3.6V97.5c0-31 0-32.6-2-31.8l-23.9 10-21.7 9V150l15-6.3 23.8-9.9zm72.3-18.2V83.4l-23.6-9.9a598 598 0 0 0-24.4-9.8c-.4 0-.8 14.5-.8 32.2v32.3l15.6 6.5 23 9.8c4 1.7 8 3.2 8.8 3.2 1.1 0 1.4-7.1 1.4-32.2zm20.6-50.2c6.5-3 12.1-5.6 12.6-6 .4-.4-19.4-9.6-44-20.5-37.2-16.3-45.3-19.5-47.4-18.6L81.7 39.9c-23.3 10.2-42 19-41.5 19.4 1.4 1.3 23.1 10 25 10 1 0 14-5.3 29-11.8 15.2-6.6 29.5-12.2 32-12.5 4-.6 8.6 1 35.3 12.3 16.8 7.2 31 13 31.3 13.1.3 0 6-2.3 12.5-5.1z"/>
  <path fill="#4848a2" d="M70.6 229.5c-34-14.8-55.2-24.6-56.5-26.2-1.9-2.3-2-7-1.7-76.8l.3-74.4 57.2-24.3c31.4-13.4 58-24.3 59-24.3 2 0 117 50.5 118.4 52 .5.4 1.4 27.1 2 59.3.7 32.2 1.6 64.7 2 72.3.5 13.2.4 13.9-2 16.6-1.8 1.8-21.6 11-57.2 26.2-50 21.5-55 23.5-60.7 23.3-5.6 0-12.8-2.9-60.8-23.7zm50.5-14v-22l-31-13.6c-24-10.5-31.2-14.2-32.3-16.3-1-2-1.4-13.2-1.4-42.2V82.1L53.3 81l-15.4-6.3-12.2-5.2v126.6l47.5 20.6 47.6 20.7c.2 0 .3-9.8.3-22zm62.7 1.5a1490 1490 0 0 0 47.7-21.3c.5-.5.8-29.1.7-63.6l-.3-62.5-15.4 6.5-15.3 6.6-.3 40.3c-.3 38-.4 40.4-2.5 42.3-1.1 1-15 7.6-30.9 14.6-15.8 7-29.4 13.1-30.2 13.6-1 .7-1.4 6.5-1.4 22.4 0 11.9.2 21.6.5 21.6s21.6-9.2 47.4-20.5zM151 170c11.6-5 20.7-9.4 20.3-9.8-.5-.4-10.2-4.7-21.6-9.6l-20.8-8.8-21 8.9a295 295 0 0 0-21.5 9.6c-.5.7 41.4 19.2 42.7 18.9l21.9-9.3zm-49.6-31.7l19.6-8V64.7l-4.2 1.8-23.9 10-19.5 8.1V150l4.2-1.8 23.8-9.9zm83.2-22.2V83.3l-23.5-9.8c-13-5.4-24-9.8-24.5-9.8-.4 0-.7 14.6-.5 32.4l.3 32.5 23.8 10 24.1 10.2c.2 0 .3-14.7.3-32.7zM98.4 56c12.8-5.6 25-10.6 27.2-11 3.3-.6 8.7 1.3 35.6 12.4A238.5 238.5 0 0 0 194.8 70c6-2.2 24-10.4 24-11 0-.3-20.2-9.6-45-20.5l-45-19.8-45.2 20A596.6 596.6 0 0 0 39 59.2c.5.4 6.5 3 13.3 5.9l12.5 5 5.1-2c2.8-1 15.6-6.6 28.4-12.1z"/>
  <path fill="#44449d" d="M105 244a248 248 0 0 1-21-9.5c.2-.2 9.9 3.7 21.5 8.7 16.4 7 22.3 9 26.4 9 4.2 0 10-2 26.5-9 11.6-5 21.2-9 21.5-8.7.2.2-9.3 4.5-21.2 9.6-17.2 7.4-22.6 9.3-27 9.2-4.3 0-10-2-26.8-9.2zm30.2-28.7c0-11.9.2-16.6.4-10.4.2 6 .2 15.8 0 21.5-.2 5.8-.4.8-.4-11zm-57.2 17c-1.6-.8-2.4-1.6-1.7-1.6.6 0 2.4.8 4 1.6 1.5 1 2.3 1.7 1.7 1.7-.7 0-2.5-.8-4-1.7zm105.6 0c1.6-.8 3.3-1.6 4-1.6.6 0-.2.8-1.7 1.6-1.6 1-3.4 1.7-4 1.7-.6 0 .1-.8 1.7-1.7zM70 229c-1.5-.9-2.3-1.6-1.7-1.6.6 0 2.4.7 4 1.6 1.6 1 2.3 1.7 1.7 1.7-.6 0-2.4-.8-4-1.7zm121.5 0c1.6-.9 3.4-1.6 4-1.6.6 0-.1.7-1.7 1.6-1.5 1-3.3 1.7-4 1.7-.6 0 .2-.8 1.7-1.7zM41.3 216.8C28.3 211 18 206.3 18.1 206c.4-.4 47.3 19.5 48.3 20.5 1.5 1.5-3-.3-25-9.8zm156 10c1-1.1 48-21.2 48.4-20.7.3.2-10 4.9-22.6 10.3-26 11.2-26.7 11.5-25.8 10.4zM14.3 204c-.7-1-1.2-2-.9-2.2.3-.3 1.1.5 1.9 1.7 1.6 2.7 1 3-1 .5zm234.1-.2c.9-1.4 1.8-2.2 2-2 .4.4-.3 1.5-1.4 2.6-2 1.8-2 1.8-.6-.6zm-236-77l-.3-74 4-1.9c5.4-2.5 6.7-2.3 1.7.3l-4 2.2-.6 73.6-.6 73.6zM250.8 197c0-1.8.3-2.5.6-1.4s.3 2.7 0 3.5c-.4.7-.6-.2-.6-2zm-225.7-.8c-.3-.8-.4-29.5-.2-63.9l.3-62.5.5 64c.3 35 .5 63.8.3 63.8s-.6-.6-.9-1.4zM233 133c0-34.7.1-48.9.3-31.5.2 17.3.2 45.7 0 63-.2 17.3-.3 3.1-.3-31.5zm17 35.2c0-12.8.1-18 .3-11.7.2 6.4.2 17 0 23.3-.2 6.4-.4 1.2-.4-11.6zm-142.4 3.4c-11.5-5-21.4-9.5-22-10.1-.6-.6 9 3.3 21.2 8.5 18 7.8 22.7 9.4 24.5 8.5 3.3-1.8 4.4-1.4 1.2.5-1.6.9-3.1 1.6-3.4 1.6-.3 0-10-4-21.5-9zm30.6 4c1.5-1 3.3-1.7 4-1.7.6 0-.2.8-1.8 1.7-1.5.9-3.3 1.6-4 1.6-.6 0 .2-.7 1.8-1.6zm8-3.4c1.5-1 3.3-1.7 3.9-1.7.6 0-.1.8-1.7 1.7-1.6.8-3.4 1.6-4 1.6-.6 0 .2-.8 1.7-1.6zm12.3-5.3c4-1.8 7.5-3.1 7.7-2.9.5.5-13 6.5-14.2 6.4-.4 0 2.5-1.6 6.5-3.5zm11.4-4.9c2.6-1.4 2.6-1.5.5-2.7-1.2-.7-1.6-1.3-.9-1.3.7 0 2 .7 2.7 1.6 1 1.3.9 1.9-1 2.8a9.5 9.5 0 0 1-3.1 1.2c-.6 0 .3-.7 1.8-1.6zm30.1-39.2c0-22.2.2-31.3.3-20.2.2 11 .2 29.2 0 40.3-.1 11.1-.3 2-.3-20.1zM92.6 156.2c3.4-1.6 6.3-2.7 6.6-2.4.2.3-1.7 1.4-4.4 2.4-7.8 3.2-8.8 3.2-2.2 0zm66.6-1.6c-3.8-1.8-6.3-3.3-5.7-3.3.6 0 4.2 1.4 8 3.2 3.7 1.8 6.3 3.3 5.6 3.3-.6 0-4.2-1.5-8-3.2zm-52.3-4.6c3.8-1.8 7.4-3.3 8-3.3 1.4 0-12.1 6.5-13.6 6.5-.7 0 1.9-1.4 5.6-3.2zm-33.8.4c-.5-.4-.8-15.5-.8-33.6V84.1l5.3-2.3c2.9-1.2 5.5-2 5.7-1.8.3.3-1.9 1.4-4.7 2.5l-5.2 2 .3 33.3.2 33.3-.8-.7zm74.2-1c-1.6-.8-2.4-1.6-1.7-1.6.6 0 2.4.8 4 1.6 1.5 1 2.3 1.7 1.6 1.7-.6 0-2.4-.8-4-1.7zm-66-2.3c3.3-1.5 6.3-2.6 6.5-2.4.3.3-1.7 1.4-4.4 2.5-7.8 3.1-8.8 3-2.2 0zm87.8-3.6a119 119 0 0 1-14.7-6.7c.3-.2 6 2 12.8 4.8l15 6.2 2.5 1V83.3l-3.4-1.4c-1.9-.8-3.2-1.7-3-2 .3-.2 2.1.3 4 1.3l3.6 1.9v32.8c0 18-.4 33-.9 33.4-.5.3-7.6-2.3-16-5.8zm-29.8 2.5c-1.6-.9-2.3-1.6-1.7-1.6.6 0 2.4.7 4 1.6 1.5 1 2.3 1.7 1.7 1.7-.6 0-2.4-.8-4-1.7zm-20.4-1.1c1.5-.9 3.3-1.6 4-1.6.6 0-.2.7-1.8 1.6-1.5.9-3.3 1.6-4 1.6-.6 0 .2-.7 1.8-1.6zm-27.3-2.3c1.6-.9 3.4-1.6 4-1.6.6 0-.2.7-1.7 1.6-1.6 1-3.4 1.7-4 1.7-.6 0 .1-.8 1.7-1.7zm40.5.5c-1.1-.7-3.4-1-5-.6-3 .6-3 .6-.5-.7 2-1 3.3-.9 6.2.6 2 1 3.2 1.8 2.5 1.8-.6 0-2-.5-3.2-1.1zm-29.3-5c3.4-1.6 6.3-2.7 6.6-2.5.3.3-1.7 1.4-4.4 2.5-7.8 3.1-8.8 3.1-2.2 0zm146-22.7c0-14.4.2-20.1.4-12.7.2 7.3.2 19 0 26s-.4 1-.4-13.3zm-103.2 18.2c-3.2-1.5-5.2-2.7-4.6-2.7.6 0 3.7 1.1 6.8 2.6 3.1 1.5 5.2 2.7 4.6 2.7-.7 0-3.7-1.2-6.8-2.6zm-34.6 1.2c1-1 11.3-5.1 11.3-4.6 0 .3-2.4 1.6-5.2 2.8-5.1 2.2-7 2.8-6 1.8zm25-5.7c-.9-1-1.2-10.9-1-33.7l.4-32.3.2 32.6c.3 29.7.5 32.7 2.3 33.8 1 .6 1.4 1.2.7 1.2s-1.9-.7-2.6-1.6zm111.2-57.8V56l-4.6-2c-2.5-1.2-4.3-2.3-4-2.6.2-.2 2.5.6 5 2l4.7 2.3V71c0 8.4-.2 15.3-.5 15.3s-.6-6.8-.6-15.1zm-162.4 8c1-1 19.6-8.9 20-8.4a38 38 0 0 1-8.3 4.1c-10.8 4.6-12.4 5.2-11.7 4.3zm84.6-2.5c-3.1-1.5-5.2-2.7-4.5-2.7.6 0 3.6 1.2 6.8 2.6 3.1 1.5 5.1 2.7 4.5 2.7-.6 0-3.7-1.1-6.8-2.6zm-10.8-4.6c-1.5-.9-2.3-1.6-1.7-1.6.6 0 2.4.7 4 1.6 1.5 1 2.3 1.6 1.7 1.6-.6 0-2.4-.7-4-1.6zm33.9-1.3c.8-.4 1.8-.3 2.1 0 .4.4-.2.7-1.4.7-1.4-.1-1.6-.4-.7-.7zM113 67c4-1.8 7.4-3.2 7.7-3 .4.6-13 6.6-14.2 6.4-.4 0 2.5-1.6 6.5-3.4zm34.7.7c-3.1-1.5-5.1-2.7-4.5-2.7.6 0 3.7 1.2 6.8 2.6 3.1 1.5 5.2 2.7 4.5 2.7-.6 0-3.7-1.1-6.8-2.6zm-9.6-4c-1-.6-1.2-1.1-.6-1.1s1.9.5 2.8 1.1c1 .6 1.2 1.1.6 1.1s-1.9-.5-2.8-1.1zm64.7-12.5c-1-.6-1.2-1.1-.6-1.1.7 0 2 .5 2.9 1.1 1 .6 1.2 1.1.5 1.1-.6 0-1.9-.5-2.8-1zm19.6-6c-7-3.1-12.6-5.9-12.4-6.1.4-.4 25.7 10.6 26.7 11.6 1.4 1.4-2.6-.2-14.3-5.4zm-197.9 2c1.6-.9 3.3-1.6 4-1.6.6 0-.2.7-1.7 1.6-1.6 1-3.4 1.7-4 1.7-.6 0 .1-.8 1.7-1.7zm98.6-1.3c.8-.3 1.8-.3 2.2 0 .3.5-.3.7-1.5.7-1.3 0-1.6-.4-.7-.7zm-92.9-.7c1-1 35.5-15.7 36-15.2.1.2-7.2 3.6-16.4 7.5-18.7 8-20.4 8.7-19.6 7.7zm97.4-.4c.9-.4 1.8-.3 2.2 0 .4.4-.3.7-1.5.6-1.3 0-1.6-.3-.7-.6zm-52-3.8c1-.6 2.2-1.1 2.8-1.1.7 0 .4.5-.5 1-1 .7-2.2 1.2-2.9 1.2-.6 0-.3-.5.6-1.1zm118.4-8.2c-7-3.2-12.6-6-12.4-6.2.4-.4 25.7 10.6 26.7 11.6 1.4 1.4-2.6-.2-14.3-5.4zM70 27.9c1.5-.9 3.3-1.6 3.9-1.6.6 0-.1.7-1.7 1.6-1.6 1-3.4 1.6-4 1.6-.6 0 .2-.7 1.7-1.6zm7.9-3.4c1.5-.9 3.3-1.6 4-1.6.6 0-.2.7-1.8 1.6-1.5 1-3.3 1.6-4 1.6-.6 0 .2-.7 1.8-1.6zm87.7-4.2c-7-3.2-12.6-6-12.4-6.2.4-.4 25.7 10.6 26.8 11.6 1.3 1.4-2.7-.1-14.4-5.4zm-82 2.2c1-1 19.5-8.9 20-8.4a38 38 0 0 1-8.4 4.1c-10.8 4.6-12.4 5.2-11.6 4.3zm27.8-12.2c3.7-1.8 7.3-3.3 8-3.2 1.4 0-12.2 6.5-13.7 6.4-.6 0 2-1.4 5.7-3.2zm34.6 1.2c-2.2-1.2-3.4-2.2-2.8-2.2.6 0 2.9 1 5 2.2 2.3 1.2 3.6 2.1 3 2.1-.7 0-3-1-5.2-2.1zm-10.8-4.7a14.3 14.3 0 0 0-12.5-.5c-1.4.5-1.2.2.6-1 4-2.4 6.5-2.2 13 1 3.2 1.5 5.2 2.7 4.6 2.7-.6 0-3.2-1-5.7-2.2z"/>
  <path fill="#39399c" d="M121.1 251c-.9-.5-1.2-1-.5-1 .6 0 1.9.5 2.8 1 1 .7 1.2 1.2.6 1.2-.7 0-2-.5-2.9-1.1zm19.3 0c1-.5 2.3-1 2.9-1 .6 0 .3.5-.6 1-1 .7-2.2 1.2-2.8 1.2-.7 0-.4-.5.5-1.1zm-27.2-3.3c-1-.6-1.2-1.1-.6-1.1s2 .5 2.9 1c.9.7 1.1 1.2.5 1.2-.6 0-1.9-.5-2.8-1.1zm35.2 0c1-.6 2.2-1.1 2.8-1.1.7 0 .4.5-.5 1-1 .7-2.3 1.2-2.9 1.2-.6 0-.3-.5.6-1.1zm-101-28.4c-1-.6-1.3-1.1-.7-1.1.7 0 2 .5 2.9 1 1 .7 1.2 1.2.6 1.2-.7 0-2-.5-2.9-1.1zm166.9 0c.9-.6 2.2-1.1 2.8-1.1.6 0 .4.5-.6 1-.9.7-2.2 1.2-2.8 1.2-.6 0-.4-.5.6-1.1zm-182.9-6.8c-1-.6-1.2-1.1-.6-1.1.7 0 2 .5 2.9 1 1 .7 1.2 1.2.6 1.2-.7 0-2-.5-2.9-1.1zm198.8 0c.9-.6 2.2-1.1 2.8-1.1.6 0 .4.5-.6 1-1 .7-2.2 1.2-2.8 1.2-.6 0-.4-.5.6-1.1zm-216-8.8c-1.4-1.8-1.3-1.9.5-.5 1.9 1.5 2.5 2.5 1.5 2.5-.2 0-1.1-1-2-2zm234.2 0c.9-1.4 1.8-2.2 2-2 .4.4-.3 1.5-1.4 2.6-2 1.8-2 1.8-.6-.6zm-235.8-77c0-40.6.2-57 .4-36.5V164c-.2 20.1-.4 3.3-.4-37.3zm238.2 71c0-1.6.2-2.2.6-1.4.3.8.3 2 0 2.8-.4.8-.6.2-.6-1.4zm-132-21.6c-.9-.6-1.1-1-.5-1 .6 0 1.9.4 2.8 1 1 .6 1.2 1.1.6 1.1s-1.9-.5-2.8-1zM250 162.5c0-8.4.2-11.9.4-7.7.2 4.3.2 11.2 0 15.4-.2 4.2-.4.7-.4-7.7zm-147 6.8c-.9-.6-1.1-1-.5-1 .6 0 1.9.4 2.8 1 1 .6 1.2 1.1.6 1.1s-1.9-.5-2.8-1zM95 166c-1-.6-1.2-1-.6-1 .7 0 2 .4 2.9 1 1 .6 1.2 1.1.6 1.1-.7 0-2-.5-2.9-1zm-8.6-4c-2-1.7-2-1.7.7-.4 3.4 1.6 4 2.1 2.6 2.1-.6 0-2-.8-3.3-1.7zm7.5-6.2c1-.6 2.2-1.1 2.8-1.1.6 0 .4.5-.6 1-.9.7-2.2 1.2-2.8 1.2-.6 0-.4-.5.6-1.1zm-21-6c-.4-.8-.5-15.7-.3-33.2l.3-31.8.5 33.2c.3 18.3.5 33.2.3 33.2s-.6-.6-.9-1.4zM185.1 116c0-17.8.2-25 .4-16.1.2 8.9.2 23.4 0 32.3-.2 9-.4 1.6-.4-16.2zm-10.7 29.6c-1-.6-1.2-1.1-.6-1.1.7 0 2 .5 2.9 1 1 .7 1.2 1.2.6 1.2-.7 0-2-.5-2.9-1.1zM114.3 133c1-.6 2.2-1.1 2.9-1.1.6 0 .3.5-.6 1-1 .7-2.2 1.2-2.8 1.2-.7 0-.4-.5.5-1.1zm21-4.9c-.3-.8-.4-15.7-.3-33.2l.3-31.8.6 33.2c.3 18.3.4 33.3.2 33.3-.1 0-.5-.7-.8-1.5zm113.5-19.5c0-10 .2-14 .4-8.8.2 5.2.2 13.4 0 18.2-.2 4.8-.4.6-.4-9.4zm-67.5-26.7c-1-.6-1.2-1.1-.5-1.1.6 0 1.9.5 2.8 1 1 .7 1.2 1.2.6 1.2-.7 0-2-.5-2.9-1.1zM247.2 64c-.3-5-.2-8.9.3-8.4s.8 4.7.6 9.3l-.4 8.5zM41.6 39.8c1-.6 2.2-1 2.9-1 .6 0 .3.4-.6 1-1 .7-2.2 1.1-2.8 1.1-.7 0-.4-.4.5-1zm169.3 0c-1-.6-1.2-1-.6-1s1.9.4 2.8 1c1 .7 1.2 1.1.6 1.1s-2-.4-2.8-1zm-10.3-4.5c-.9-.6-1.2-1.1-.5-1.1.6 0 1.9.5 2.8 1.1 1 .6 1.2 1.1.6 1.1-.7 0-2-.5-2.9-1zM57.6 33c.9-.6 2.1-1 2.8-1 .6 0 .3.4-.6 1-1 .6-2.2 1.1-2.8 1.1-.7 0-.4-.5.5-1zm124.9-5.6c-1-.6-1.2-1.1-.6-1.1s1.9.5 2.8 1c1 .7 1.2 1.2.6 1.2s-1.9-.5-2.8-1.1zm-10.3-4.6c-.9-.6-1.2-1-.5-1 .6 0 1.9.4 2.8 1 1 .6 1.2 1.1.6 1.1s-2-.5-2.9-1zm-85.1-2.3c.9-.6 2.2-1 2.8-1 .6 0 .4.4-.6 1-.9.6-2.2 1.1-2.8 1.1-.6 0-.4-.5.6-1zm56.7-10.2c-.9-.6-1.1-1-.5-1 .6 0 1.9.4 2.8 1 1 .6 1.2 1.1.6 1.1s-2-.5-2.9-1z"/>
</svg>
