<svg xmlns="http://www.w3.org/2000/svg" viewBox="0 0 256 256">
  <path fill="#a5a5ce" d="M71 230c-31-13-56-25-57-26-2-3-3-151 0-152l58-26 57-24 59 26a2742 2742 0 0 1 60 27 4249 4249 0 0 0 2 149c-1 1-19 10-57 26-47 20-57 24-62 24-4 0-17-5-60-24zm80-61c16-7 20-9 18-10l-21-9-19-8-20 9-21 9c-1 1 38 18 41 18l22-9zm-52-30l22-9V98a294 294 0 0 0-1-32L97 76l-23 9v32l-1 32 3-1 23-9zm85-23V84l-24-10-23-10v64l12 5a3663 3663 0 0 1 34 15l1-32z"/>
  <path fill="#7171e8" d="M71 230c-49-21-57-25-58-28l-1-76 1-74 58-25 58-24 58 25 60 27c2 2 5 144 3 148-1 2-12 7-58 27-40 17-58 25-61 24l-60-24zm82-61a74 74 0 0 0 17-9l-21-9-20-9-21 9-21 9c-1 1 9 5 20 10 20 9 22 9 25 8l21-9zm-44-34a51 51 0 0 0 12-6V65L97 75 74 85v32l-1 33 13-5a9264 9264 0 0 1 23-10zm76-19V84l-23-10-24-10c-2 0-2 2-2 32v32l23 10 24 10c1 0 2-7 2-32z"/>
  <path fill="#6565d3" d="M71 230c-49-21-57-25-58-28l-1-76 1-74 58-25 58-24 58 25 60 27c2 2 5 144 3 148-1 2-12 7-58 27-40 17-58 25-61 24l-60-24zm50-15v-21l-31-13-32-15-2-42V83l-15-6a373 373 0 0 0-15-6v125l2 1 47 20 45 19 1-21zm63 1l46-20 1-63V71l-15 6-14 6v39l-2 42c-2 3-4 4-38 19l-25 11v42l47-20zm-31-47a74 74 0 0 0 17-9l-21-9-20-9-21 9-21 9c-1 1 9 5 20 10 20 9 22 9 25 8l21-9zm-44-34a51 51 0 0 0 12-6V65L97 75 74 85v32l-1 33 13-5a9264 9264 0 0 1 23-10zm76-19V84l-23-10-24-10c-2 0-2 2-2 32v32l23 10 24 10c1 0 2-7 2-32zm24-53a38 38 0 0 0 9-4l-45-20-44-20-45 20-45 20 4 2 13 5 9 4 28-12a524 524 0 0 1 32-14c3 0 9 2 36 13 30 12 32 13 36 12l12-6z"/>
  <path fill="#5c5cc4" d="M71 230l-57-27c-2-2-2-5-2-76l1-75 58-25 58-24 59 25a2142 2142 0 0 1 59 27 1303 1303 0 0 1 3 148c-2 2-17 10-57 27-51 21-56 23-62 23-5 0-12-2-60-23zm50-14v-22l-30-13-32-15c-2-2-2-4-3-43V83l-14-6a210 210 0 0 0-15-6l-1 62v63l47 21 48 20v-21zm64 0l46-20v-63c0-56 0-63-1-62l-16 7-13 5v40c0 38 0 40-3 42a280 280 0 0 1-31 16l-30 13v21l1 21 47-20zm-33-47c20-8 21-9 18-10l-22-9-19-8-21 9-21 9c-1 1 41 19 43 19l22-10zm-40-35l9-4V98c0-31 0-33-2-32L95 76l-21 9v65l15-6 23-10zm73-19V83l-24-9a598 598 0 0 0-24-10l-1 32v32l15 7 23 9 9 4c1 0 2-7 2-33zm20-50l13-6a623 623 0 0 0-92-39L82 40 40 59c2 2 23 10 25 10l29-12 32-12c4-1 9 1 36 12l31 13 12-5z"/>
  <path fill="#4848a2" d="M71 230c-34-15-56-25-57-27-2-2-2-7-2-76l1-75 57-24c31-14 58-24 59-24 2 0 117 50 118 52a4286 4286 0 0 0 4 132c1 12 1 13-2 16-1 2-21 11-57 26-50 21-55 23-61 23-5 0-12-3-60-23zm50-14v-22l-31-14c-24-11-31-14-32-16s-2-14-2-43V82l-3-1-15-6-12-5v126l47 21 48 20v-22zm63 1a1490 1490 0 0 0 48-21V70l-16 6-15 7v40c0 38-1 40-3 42l-31 15-30 13-1 23v21l48-20zm-33-47c12-5 21-9 20-10l-21-9-21-9-21 9a295 295 0 0 0-22 9l43 19 22-9zm-50-32l20-8V65l-4 2-24 10-20 8v65l5-2 23-10zm84-22V83l-24-10-24-9-1 32v33l24 10 24 10 1-33zM98 56c13-6 25-11 28-11 3-1 8 1 35 12a239 239 0 0 0 34 13l24-11s-20-10-45-20l-45-20-45 20a597 597 0 0 0-45 20l13 6 13 5 5-2 28-12z"/>
  <path fill="#44449d" d="M105 244a248 248 0 0 1-21-9l22 8c16 7 22 9 26 9s10-2 26-9a223 223 0 0 1 1 1c-17 7-23 9-27 9-5 0-10-2-27-9zm30-29a385 385 0 0 1 0 0zm-57 17l-2-1 4 1 2 2-4-2zm106 0l4-1-2 1-4 2 2-2zm-114-3l-2-2 4 2 2 2-4-2zm122 0l4-2-2 2-4 2 2-2zM41 217zm156 10zM14 204l-1-2c1 0 2 0 2 2 2 2 1 3-1 0zm234 0l2-2-1 2c-2 2-2 2-1 0zM12 127V53l4-2c6-3 7-2 2 0l-4 2-1 74v74zm239 70v-1 1zm-226-1V70l1 64v64l-1-2zm208-63v-31a3308 3308 0 0 1 0 31zm17 35v-12a452 452 0 0 1 0 12zm-142 4a309 309 0 0 1-1-2c18 8 22 9 24 9 4-2 5-2 2 0l-4 2-21-9zm30 4l4-2-2 2-4 1 2-1zm8-4l4-2c1 1 0 1-2 2l-4 2 2-2zm12-5l8-3-14 6 7-3zm12-5c3-1 3-2 0-3v-1l2 2c1 1 1 1-1 2a10 10 0 0 1-3 2l2-2zm30-39v-20a1353 1353 0 0 1 0 20zM93 156l6-2-4 2c-8 3-9 3-2 0zm66-1l-6-4 9 3 5 4-8-3zm-52-5l8-3-14 6 6-3zm-34 0l-1-33V84l6-2 5-2-4 3-6 2 1 33v33l-1-1zm74-1l-1-1 4 1 1 2-4-2zm-66-2l7-2-5 2c-7 3-8 3-2 0zm88-4a119 119 0 0 1-15-6l13 5 15 6 3 1V83l-4-1-3-2 4 1 4 2v33l-1 33-16-6zm-30 3l-1-2 4 2 1 2-4-2zm-20-1l4-2-2 2-4 2 2-2zm-27-2l4-2-2 2-4 1 2-1zm40 0l-5-1c-3 1-3 1 0 0h6l2 2-3-1zm-29-5l6-2-4 2c-8 3-9 3-2 0zm146-23v-12 12zm-103 19l-5-3 7 3 4 2-6-2zm-35 1l11-5-5 3-6 2zm25-6l-1-34V63l1 33c0 29 0 32 2 33l1 2-3-2zm111-58V56l-4-2c-3-1-5-2-4-3l5 2 4 3v30l-1-15zM85 79c1-1 19-9 20-8a38 38 0 0 1-8 4c-11 5-13 5-12 4zm84-2l-4-3a42 42 0 0 1 11 5l-7-2zm-10-5l-2-1 4 1 2 2-4-2zm34-1h2l-2 1v-1zm-80-4l8-3c0 1-13 7-14 6l6-3zm35 1l-5-3a39 39 0 0 1 12 5l-7-2zm-10-4l-1-1 3 1 1 1-3-1zm65-13l-1-1 3 1 1 1-3-1zm19-6l-12-6a270 270 0 0 1 12 6zM25 47l4-1-2 1-4 2 2-2zm98-1h2l-1 1c-2 0-2-1-1-1zm-93-1zm98 0h0c-1 0-1 0 0 0zm-52-4l2-1v1l-3 1 1-1zm118-8l-12-6a270 270 0 0 1 12 6zM70 28l4-2-2 2-4 1 2-1zm8-4l4-1-2 1c-1 2-3 2-4 2l2-1zm88-4l-13-6a282 282 0 0 1 13 6zm-82 3l20-9a38 38 0 0 1-9 4l-11 4zm27-13l8-3-13 7 5-4zm35 2l-3-3 5 3 3 2-5-3zm-11-5a14 14 0 0 0-12-1c-2 1-1 0 0-1 4-2 7-2 13 1l5 3-6-2z"/>
  <path fill="#39399c" d="M121 251v-1l2 1 1 1-3-1zm19 0l3-1v1l-3 1v-1zm-27-3v-1l3 1v1l-3-1zm35 0l3-1v1l-3 1v-1zM47 219v-1l3 1v1l-3-1zm167 0l3-1v1l-3 1v-1zm-183-7v-1l3 1v2l-3-2zm199 0l3-1-1 1-2 2v-2zm-216-8c-1-2-1-2 1-1 2 2 2 3 1 3l-2-2zm234 0l2-2-1 2c-2 2-2 2-1 0zM13 127V90v37zm238 71v-2 2zm-132-22l-1-1 3 1 1 1-3-1zm131-13v-8a198 198 0 0 1 0 8zm-147 6v-1l2 1 1 1-3-1zm-8-3l-1-1 3 1 1 1-3-1zm-9-4c-2-2-2-2 1 0 4 1 4 2 3 2l-4-2zm8-6l3-1-1 1-3 1 1-1zm-21-6V85v33a910 910 0 0 1 0 32zm112-34v-16a869 869 0 0 1 0 16zm-11 30v-2l3 2v1l-3-1zm-60-13l3-1v1l-3 1v-1zm21-5V63l1 33a787 787 0 0 1-1 32zm114-19v-9a276 276 0 0 1 0 9zm-68-27v-1l3 1v1l-3-1zm66-18v-8l1 9v8zM42 40l2-1v1l-3 1 1-1zm169 0l-1-1 3 1 1 1-3-1zm-10-5l-1-1 3 1 1 1-3-1zM58 33l2-1v1l-3 1v-1zm125-6l-1-1 3 1v1l-2-1zm-11-4v-1l2 1c2 0 2 1 1 1l-3-1zm-85-3l3-1-1 1-3 2 1-1zm57-10l-1-1 3 1 1 1-3-1z"/>
</svg>
