<svg xmlns="http://www.w3.org/2000/svg" viewBox="0 0 793 341">
  <path fill="#FFF" d="M34 341H2a2 2 0 0 1-2-2V2a2 2 0 0 1 2-2h32a2 2 0 0 1 2 2v8a2 2 0 0 1-2 2H13v317h21a2 2 0 0 1 2 2v8a2 2 0 0 1-2 2z"/>
  <path fill="#FFF" d="M11 10v321h23v8H2V2h32v8H11zm241 224h-33a2 2 0 0 1-2-2v-68-12l-2-8-6-6-10-2c-4 0-7 1-10 3-3 1-5 3-6 6l-3 9a73 73 0 0 0-1 11v67a2 2 0 0 1-2 2h-33a2 2 0 0 1-2-2v-68-10l-2-9c-1-3-3-5-5-6-2-2-6-3-11-3l-5 1-7 4-6 8-2 13v70a2 2 0 0 1-2 2H69a2 2 0 0 1-2-2V112a2 2 0 0 1 2-2h31a2 2 0 0 1 2 2v11c4-5 8-9 13-11 7-4 14-6 22-6s15 2 22 5c6 3 10 7 14 13 3-4 7-8 13-11 6-5 14-7 22-7 7 0 13 1 19 3 5 1 10 4 14 8 4 3 8 8 10 14 2 5 3 12 3 20v81a2 2 0 0 1-2 2z"/>
  <path fill="#FFF" d="M100 112v16c5-6 10-11 16-15a48 48 0 0 1 42-1c6 4 11 9 14 16 4-5 9-10 15-14s13-6 21-6c7 0 13 1 18 3 6 1 10 4 14 7 4 4 7 8 9 13 2 6 3 13 3 20v81h-33v-68-12l-3-9c-1-3-3-5-6-6-2-2-6-3-11-3s-8 1-11 3l-7 7c-1 3-3 6-3 10a74 74 0 0 0-1 11v67h-33v-68-10l-2-10c-1-3-3-5-6-7s-7-3-12-3l-6 1-7 4c-3 2-5 5-7 9l-2 14v70H69V112h31zm205 125l-17-2-13-7c-4-3-7-7-10-12-2-5-3-11-3-17 0-7 1-13 4-18 2-5 6-8 10-11s8-5 13-6a143 143 0 0 1 15-4 262 262 0 0 1 15-1l13-2 8-4 2-6-2-8-3-4-6-2-8-1c-6 0-11 2-15 4-3 3-5 7-5 13a2 2 0 0 1-2 2h-33a2 2 0 0 1-2-1 2 2 0 0 1 0-2c0-8 2-14 6-20a42 42 0 0 1 14-13l18-7a104 104 0 0 1 20-2l19 2c6 1 12 2 17 5 6 2 10 6 14 11 3 5 5 11 5 18v63l1 15c0 5 1 8 3 11v2a2 2 0 0 1-2 1h-33l-2-2a49 49 0 0 1-2-6 49 49 0 0 1 0-2 45 45 0 0 1-17 9 77 77 0 0 1-22 4zm37-60l-3 1a56 56 0 0 1-14 3l-8 1a57 57 0 0 0-7 2l-6 3-4 4-1 7 1 6 4 4 6 2 7 1c6 0 11-1 14-3 4-2 6-4 7-7l3-9 1-7v-8z"/>
  <path fill="#FFF" d="M274 129c3-5 7-9 13-12l17-7a101 101 0 0 1 20-2l19 2c6 0 11 2 17 5 5 2 9 6 12 10s5 10 5 17v63l1 16c0 5 2 8 3 11h-33a47 47 0 0 1-2-6 48 48 0 0 1-1-6c-5 6-11 9-18 11a75 75 0 0 1-22 4l-16-2-13-7c-4-3-7-7-9-11s-3-10-3-16c0-7 1-12 4-17 2-4 5-8 9-10 4-3 8-5 13-6a140 140 0 0 1 15-4 254 254 0 0 1 14-1l13-2c4-1 7-3 9-5 2-1 3-4 3-7l-2-9-4-5-7-2-8-1c-7 0-12 2-16 5-3 2-6 7-6 14h-33c0-8 2-15 6-20zm65 47a54 54 0 0 1-7 2l-8 1-7 1a59 59 0 0 0-8 2l-6 3-4 5-2 8 2 7 4 5 7 2 7 1c7 0 12-1 15-3 4-3 7-5 8-8l3-9 1-8v-12l-5 3zm106 59l-15-1c-5-1-9-2-13-5-4-2-7-5-9-9s-3-9-3-15v-69h-18a2 2 0 0 1-2-2v-22a2 2 0 0 1 2-2h18V76a2 2 0 0 1 2-2h33a2 2 0 0 1 2 2v34h22a2 2 0 0 1 2 2v22a2 2 0 0 1-2 2h-22v57c0 6 1 9 2 10s3 2 10 2h5a44 44 0 0 0 4-1 2 2 0 0 1 2 1l1 1v26a2 2 0 0 1-2 2l-9 1h-10z"/>
  <path fill="#FFF" d="M464 112v22h-24v59c0 6 1 9 2 11 2 2 6 3 12 3h5a46 46 0 0 0 5-1v26l-9 1a229 229 0 0 1-25-1l-12-4c-4-2-6-5-8-9s-3-8-3-14v-71h-20v-22h20V76h33v36h24zm49 122h-33a2 2 0 0 1-2-2V112a2 2 0 0 1 2-2h31a2 2 0 0 1 2 2v15a43 43 0 0 1 3-5 44 44 0 0 1 10-8 47 47 0 0 1 11-6l13-2 8 2a2 2 0 0 1 1 2v30a2 2 0 0 1-2 2l-6-1a57 57 0 0 0-6 0c-6 0-10 1-14 3l-10 7-5 12-1 15v54a2 2 0 0 1-2 2z"/>
  <path fill="#FFF" d="M511 112v22l7-10a41 41 0 0 1 9-9 44 44 0 0 1 11-5l12-2 7 2v30l-6-1a59 59 0 0 0-6 0c-6 0-11 1-15 3s-8 5-10 8l-6 12-1 16v54h-33V112h31zm93 122h-33a2 2 0 0 1-2-2V112a2 2 0 0 1 2-2h33a2 2 0 0 1 2 2v120a2 2 0 0 1-2 2zm0-139h-33a2 2 0 0 1-2-2V66a2 2 0 0 1 2-2h33a2 2 0 0 1 2 2v27a2 2 0 0 1-2 2z"/>
  <path fill="#FFF" d="M571 93V66h33v27h-33zm33 19v120h-33V112h33zm138 122h-37a2 2 0 0 1-2-1l-24-36-23 36a2 2 0 0 1-2 1h-37a2 2 0 0 1-1-1 2 2 0 0 1 0-2l42-62-39-56a2 2 0 0 1 2-3h39l20 29 19-29a2 2 0 0 1 2 0h36a2 2 0 0 1 2 3l-39 55 44 63v2a2 2 0 0 1-2 1z"/>
  <path fill="#FFF" d="M621 112h38l21 31 21-31h36l-39 56 44 64h-37l-26-38-25 38h-37l44-63-40-57zm170 229h-32a2 2 0 0 1-2-2v-8a2 2 0 0 1 2-2h21V12h-21a2 2 0 0 1-2-2V2a2 2 0 0 1 2-2h32a2 2 0 0 1 2 2v337a2 2 0 0 1-2 2z"/>
  <path fill="#FFF" d="M782 331V10h-23V2h32v337h-32v-8h23z"/>
  <path d="M11 10v321h23v8H2V2h32v8H11zm89 102v16c5-6 10-11 16-15a48 48 0 0 1 42-1c6 4 11 9 14 16 4-5 9-10 15-14s13-6 21-6c7 0 13 1 18 3 6 1 10 4 14 7 4 4 7 8 9 13 2 6 3 13 3 20v81h-33v-68-12l-3-9c-1-3-3-5-6-6-2-2-6-3-11-3s-8 1-11 3l-7 7c-1 3-3 6-3 10a74 74 0 0 0-1 11v67h-33v-68-10l-2-10c-1-3-3-5-6-7s-7-3-12-3l-6 1-7 4c-3 2-5 5-7 9l-2 14v70H69V112h31zm174 17c3-5 7-9 13-12l17-7a101 101 0 0 1 20-2l19 2c6 0 11 2 17 5 5 2 9 6 12 10s5 10 5 17v63l1 16c0 5 2 8 3 11h-33a47 47 0 0 1-2-6 48 48 0 0 1-1-6c-5 6-11 9-18 11a75 75 0 0 1-22 4l-16-2-13-7c-4-3-7-7-9-11s-3-10-3-16c0-7 1-12 4-17 2-4 5-8 9-10 4-3 8-5 13-6a140 140 0 0 1 15-4 254 254 0 0 1 14-1l13-2c4-1 7-3 9-5 2-1 3-4 3-7l-2-9-4-5-7-2-8-1c-7 0-12 2-16 5-3 2-6 7-6 14h-33c0-8 2-15 6-20zm65 47a54 54 0 0 1-7 2l-8 1-7 1a59 59 0 0 0-8 2l-6 3-4 5-2 8 2 7 4 5 7 2 7 1c7 0 12-1 15-3 4-3 7-5 8-8l3-9 1-8v-12l-5 3zm125-64v22h-24v59c0 6 1 9 2 11 2 2 6 3 12 3h5a46 46 0 0 0 5-1v26l-9 1a229 229 0 0 1-25-1l-12-4c-4-2-6-5-8-9s-3-8-3-14v-71h-20v-22h20V76h33v36h24zm47 0v22l7-10a41 41 0 0 1 9-9 44 44 0 0 1 11-5l12-2 7 2v30l-6-1a59 59 0 0 0-6 0c-6 0-11 1-15 3s-8 5-10 8l-6 12-1 16v54h-33V112h31zm60-19V66h33v27h-33zm33 19v120h-33V112h33zm17 0h38l21 31 21-31h36l-39 56 44 64h-37l-26-38-25 38h-37l44-63-40-57zm161 219V10h-23V2h32v337h-32v-8h23z"/>
</svg>
