<svg xmlns="http://www.w3.org/2000/svg" viewBox="0 0 400 400" version="1">
  <path fill="#1a1a1a" stroke="#000" stroke-linejoin="round" stroke-width="5" d="M386 214c0 97-81 174-179 174-99 0-179-77-179-174 0-96 80-174 179-174 98 0 179 78 179 174z" transform="matrix(1.0811 0 0 1.10435 -22 -34)"/>
  <path fill="#fff" d="M388 200a186 186 0 1 1-372-1 186 186 0 0 1 372 1z"/>
  <path fill="#fff" stroke="#333" stroke-linejoin="round" d="M386 214c0 97-81 174-179 174-99 0-179-77-179-174 0-96 80-174 179-174 98 0 179 78 179 174z" transform="matrix(1.06413 0 0 1.07868 -21 -32)"/>
  <path fill="none" stroke="#000" stroke-linejoin="round" stroke-width="2" d="M386 214c0 97-81 174-179 174-99 0-179-77-179-174 0-96 80-174 179-174 98 0 179 78 179 174z" transform="matrix(1.08566 0 0 1.109 -24 -36)"/>
  <path fill="url(#K)" d="M386 214a179 174 0 1 1-358 0 179 174 0 1 1 358 0z" transform="matrix(1.0765 0 0 1.10093 -21 -35)"/>
  <g fill-rule="evenodd">
    <path stroke="#fff" d="M155 34c-26-1-52 16-59 42l-2 18v67h26V90c1-15 13-30 29-30v71c1 20 19 36 39 34 12 0 24 1 36-1 19-3 31-22 30-40V60c16-1 29 15 30 30v71h26V90c-1-8-2-17-6-24a62 62 0 0 0-60-32c-7-1-14 4-16 10v84c-1 12-12 21-24 20-8 0-17 0-23-7-7-8-5-20-5-30V43c-4-7-11-10-19-9h-2z"/>
    <path fill="url(#L)" d="M107 156v178c-35-4-62-42-62-89s27-85 62-89z"/>
  </g>
  <g fill-rule="evenodd" stroke="#fff">
    <path d="M300 329h-5l-4 6-10 7-9 6-5 1h-34c-2 0-3 2-3 4v1c0 2 1 3 3 3h36l6-1 12-8 15-11a4 4 0 0 0 1-5v-1a4 4 0 0 0-3-2z"/>
    <path d="M297 156v178c35-4 63-42 63-89 0-46-28-85-63-89zm-191 1v178c-35-4-63-42-63-89 0-46 28-85 63-89z"/>
    <path d="M195 326a22 14 0 1 1-45 0 22 14 0 1 1 45 0z" transform="matrix(1.30479 0 0 1.21464 -20 -44)"/>
    <rect width="13" height="172" x="275" y="146" rx="4" ry="4" transform="matrix(1.04333 0 0 1.05002 -5 0)"/>
    <rect width="13" height="172" x="107" y="147" rx="4" ry="4" transform="matrix(1.04333 0 0 1.05002 -4 0)"/>
  </g>
  <path fill-rule="evenodd" d="M132 189h140v112H132z"/>
  <path style="text-align:center" fill="url(#M)" d="M190 227l-1 6c0 2-3 3-4 4a16 16 0 0 1-6 3l-8 1h-18v-47h16l8 1 5 1 4 4 1 5-2 6-5 4c3 1 6 2 7 4 2 2 3 5 3 8zm-15-19l-1-3a3 3 0 0 0-2-1l-2-1h-6v10h6l2-1 2-2 1-2zm3 18l-1-3-3-2h-10v11h1a208 208 0 0 0 10 0l2-3 1-3z" font-family="Tahoma" font-size="64" font-weight="700" text-anchor="middle" transform="matrix(1.10072 0 0 2.00007 -24 -190)"/>
  <path style="text-align:center" fill="#fff" d="M181 263l-2 12-4 9-6 6-9 1h-20v-93h18l8 1 6 3 4 7 1 11c0 4 0 8-2 12-1 4-3 6-5 8 3 2 6 4 8 8 2 3 3 8 3 15zm-17-38v-5l-2-4-3-1h-6v20h6l2-1 3-4v-5zm3 37l-1-6-2-4-4-1h-7v23h7l4-2 3-4v-6z" font-family="Tahoma" font-size="64" font-weight="700" text-anchor="middle"/>
  <path style="text-align:center" fill="url(#N)" d="M228 241h-31v-47h11v38h20z" font-family="Tahoma" font-size="64" font-weight="700" text-anchor="middle" transform="matrix(1.10072 0 0 2.00007 -24 -190)"/>
  <path fill="#fff" d="M187 198v94h36v-19h-21v-75h-15z"/>
  <path style="text-align:center" fill="url(#O)" d="M233 241v-47h32v9h-20v8h18v9h-18v12h20v9z" font-family="Tahoma" font-size="64" font-weight="700" text-anchor="middle" transform="matrix(1.10072 0 0 2.00007 -24 -190)"/>
  <path fill="#fff" d="M228 198v94h35v-19h-21v-22h20v-19h-20v-15h21v-19h-35z"/>
  <g fill-rule="evenodd">
    <path fill="url(#P)" d="M155 33c-26-1-52 16-58 42l-3 18v67h27V90c1-15 12-31 28-31v72c2 19 20 35 40 33 12 0 24 1 36-1 18-3 31-22 29-40V59c17-1 30 15 30 31l1 70h26V89c-1-7-2-17-6-24a62 62 0 0 0-60-32c-7-1-14 4-16 11v84c-1 12-13 20-24 19-8 0-18 0-23-7-8-8-5-19-6-29V42c-3-6-11-10-18-9h-3z"/>
    <path fill="url(#Q)" d="M155 34c-32 0-57 22-60 49h27c3-12 13-21 24-23a4 4 0 0 1 3-1h27V44l-5-6-8-4h-8z"/>
    <path fill="url(#R)" d="M195 326a22 14 0 1 1-45 0 22 14 0 1 1 45 0z" transform="matrix(1.30479 0 0 1.21464 -20 -44)"/>
    <path fill="url(#S)" d="M299 157v178c35-4 62-42 62-89s-27-85-62-89z"/>
    <path fill="url(#T)" d="M248 33c32 0 56 22 60 49h-27c-4-12-13-21-25-22a4 4 0 0 0-2-2h-27V43l4-6c2-2 5-3 8-3l9-1z"/>
    <path fill="url(#U)" d="M108 156v178c-35-4-63-42-63-89s28-85 63-89z"/>
  </g>
</svg>
