<svg xmlns="http://www.w3.org/2000/svg" viewBox="0 0 512 512">
  <path fill="#fff" d="M463 6.3c-4.2-4.2-9.2-6.3-15-6.3H64c-5.8 0-10.8 2.1-15 6.3-4.2 4.2-6.3 9.2-6.3 15v256c0 19.1 3.7 38 11.2 56.8 7.5 18.8 16.7 35.5 27.7 50 11 14.6 24.1 28.7 39.3 42.5 15.2 13.8 29.3 25.2 42.2 34.3s26.3 17.7 40.3 25.8c14 8.1 24 13.6 29.8 16.5 5.9 2.9 10.6 5.1 14.2 6.7 2.7 1.3 5.5 2 8.7 2s6-.7 8.7-2c3.5-1.5 8.3-3.8 14.2-6.7 5.9-2.9 15.8-8.4 29.8-16.5s27.4-16.7 40.3-25.8c12.9-9.1 27-20.5 42.2-34.3 15.2-13.8 28.3-28 39.3-42.5 11-14.5 20.2-31.2 27.7-50 7.4-18.8 11.2-37.7 11.2-56.8v-256c-.2-5.8-2.3-10.8-6.5-15zm-57.7 271c0 39.1-26.1 79.1-78.3 120-20.9 16.5-44.6 31.7-71 45.7V64h149.3v213.3z"/>
  <linearGradient id="a" x1="42.67" x2="469.33" y1="256" y2="256" gradientUnits="userSpaceOnUse">
    <stop offset="0" stop-color="#00d7af"/>
    <stop offset="1" stop-color="#46737a"/>
  </linearGradient>
  <path fill="url(#a)" d="M463 6.3c-4.2-4.2-9.2-6.3-15-6.3H64c-5.8 0-10.8 2.1-15 6.3-4.2 4.2-6.3 9.2-6.3 15v256c0 19.1 3.7 38 11.2 56.8 7.5 18.8 16.7 35.5 27.7 50 11 14.6 24.1 28.7 39.3 42.5 15.2 13.8 29.3 25.2 42.2 34.3s26.3 17.7 40.3 25.8c14 8.1 24 13.6 29.8 16.5 5.9 2.9 10.6 5.1 14.2 6.7 2.7 1.3 5.5 2 8.7 2s6-.7 8.7-2c3.5-1.5 8.3-3.8 14.2-6.7 5.9-2.9 15.8-8.4 29.8-16.5s27.4-16.7 40.3-25.8c12.9-9.1 27-20.5 42.2-34.3 15.2-13.8 28.3-28 39.3-42.5 11-14.5 20.2-31.2 27.7-50 7.4-18.8 11.2-37.7 11.2-56.8v-256c-.2-5.8-2.3-10.8-6.5-15zm-57.7 271c0 39.1-26.1 79.1-78.3 120-20.9 16.5-44.6 31.7-71 45.7V64h149.3v213.3z"/>
</svg>
