<svg xmlns="http://www.w3.org/2000/svg" viewBox="0 0 400 400">
  <g fill-rule="evenodd">
    <path d="M0 200v200h400V0H0v200M214 7a121 121 0 0 0 15 2l5 1 5 1 3 1 3 1 4 1 3 1 2 1 4 1 3 1h1l3 1 3 1 1 1 2 1 3 1 2 1 2 1h1l2 1 2 1 2 1 2 1 1 1a66 66 0 0 1 9 5l3 2 2 1 1 1 2 1 3 2 2 1 1 1 1 1 5 4a182 182 0 0 1 56 73l1 2 1 2v2l1 3 1 2 1 3 1 3 1 1 1 4 1 3 1 3 1 4v4l1 3 1 4 1 6a240 240 0 0 1-2 67l-1 4v3l-1 4a78 78 0 0 1-4 12l-1 2-1 2-1 3-1 2v2l-1 2-1 3-2 2a7 7 0 0 1 0 2l-1 2-1 2-2 3-2 4-1 2-1 2-1 1-1 1v2l-2 3a53 53 0 0 1-3 4l-1 1-1 1-4 6-1 1-1 2a80 80 0 0 0-5 6l-2 3a176 176 0 0 1-30 26 39 39 0 0 1-1 2 139 139 0 0 0-7 5l-4 2-5 3h-1c0 1-1 2-5 3l-2 2h-2l-1 1-2 1-2 1-6 3h-1l-2 1-2 1-2 1-3 1-3 1-2 1-4 1-3 1h-2l-3 1-4 1-4 1-4 1-6 1-4 1h-7a220 220 0 0 1-76-6l-3-1-3-1-2-1-2-1-3-1-2-1-2-1-3-1-2-1h-2l-1-1-6-3-2-1-1-1-2-1-3-1-3-2-2-1-1-1-2-1-4-2-1-1-2-1a146 146 0 0 1-18-15A196 196 0 0 1 8 236l-1-6-1-6a255 255 0 0 1 4-73l1-3 1-4 1-2 1-3 1-3 1-2 1-3 1-2 1-3v-2l1-2 1-2 1-2 1-1 1-2v-1l1-2 1-2 1-2 1-2 1-1 1-2 1-2 1-1v-1l1-2 2-1v-1l1-2 1-2 1-1 1-1 2-2 1-3a169 169 0 0 1 29-30 27 27 0 0 0 1-2 133 133 0 0 1 16-12 94 94 0 0 0 3-2l2-1 1-1 2-1 4-3h2l2-1 2-1v-1l2-1 2-1 2-1h1l2-1 3-1 1-1 2-1 3-1 2-1 2-1 2-1 7-2 4-1 4-1 2-1 3-1 5-1 3-1h4l7-1 9-2h36m-22 56l-3 1-2 1h-1l-2 1a39 39 0 0 0-10 11l-1 1-3 4-1 2-1 2a30 30 0 0 0-3 7l-1 2-1 3-1 2-1 3-1 2v3l-1 3-1 3-1 3-1 4-1 4-1 4-1 5-1 6v5c-1 5-3 8-7 8l-3 1-6 1-6 1-4 1-5 1-3 1a44 44 0 0 0-9 2l-4 1-3 1-3 1-2 1-2 1-2 1-3 1h-2l-2 1-2 1-1 1-2 1-1 1-2 1-2 1h-1l-3 3a41 41 0 0 0-8 9c-4 3-5 17-2 22l1 1 9 10a260 260 0 0 1 3 3l2 1 2 1a52 52 0 0 0 6 3l5 3 2 1 3 1 2 1h3l2 1 3 1 2 1 4 1 3 1 4 1 3 1h4l4 1 6 1 6 1 4 1 5 1v2l1 5 1 6 1 6 1 4 1 4 1 5 1 4 1 3c1 2 0 4-2 3a199 199 0 0 0-8-5l-1-1h-1l-1-1c-6-4-9-4-12 1-2 4 0 7 10 13l1 1h1l1 1 2 1 1 1 2 1 1 1 1 1 4 3 2 1 3 1 2 2 1 1c4 4 10 2 13-5a58 58 0 0 1 4-8l1-1 1-1 1-2v-2l1-2 1-1 1-2 1-2 1-1 1-2 1-2v-1c3-4 3-9 0-11l-1-1c0-2-5-1-7 1l-4 6-1 2-1 1-1 2-1 2v1l-1 2c-1 4-5 2-5-2v-3l-1-4-1-4-1-4-1-5-1-5-1-4c-1-5 1-5 8-5 8 2 37 2 46 1 12-2 13-1 11 6l-1 5-1 6-1 5a84 84 0 0 1-4 16l-1 2-1 4-1 3-1 2-1 2-1 2v2l-1 1-1 2-1 2a173 173 0 0 0-5 7l-5 6c-3 2-9 2-11 0l-2-1-2-1h-4l-2 2c-4 3-2 10 3 12h1v1l3 1 8 1c6 0 6 0 10-3l3-1a47 47 0 0 0 11-12l3-5v-1l1-2 1-2 1-1 1-3 1-2 1-2 1-3 1-2 1-2 1-3v-3l1-2 1-4 1-4 1-4a198 198 0 0 1 3-14l1-4c1-10 1-12 6-12l5-1 6-1 5-1 4-1a88 88 0 0 0 14-3c2 0 3 1 2 2l-1 3-1 1-2 5-3 5v9l2 1c2 2 9 0 9-2l1-2 1-2v-1l1-2 3-5 1-2 1-1v-1l1-2a126 126 0 0 0 6-12c3-4 4-9 1-11-1-2-5-4-6-4l-2-1h-2l-2-1-3-1-2-1-1-1-3-1-2-1-2-1-3-1h-1l-2-1-3-1c-2-1-6-2-8-1-4 1-5 7-2 9 1 2 6 4 7 4l2 1 3 1 1 1 2 1c5 1 5 4 1 4l-3 1-4 1-5 1-4 1-5 1h-9v-20-19l-1-24c1-1 6-2 10 0l6 1h4l4 1 5 1 3 1 3 1 2 1 4 1 2 1 3 1 2 1h2l2 1 3 1 2 1 2 1 1 1 2 1 1 1h2l1 1 8 8c2 3 2 6 1 9l-1 2-1 1-1 4v3l2 2 4 1 5-2 1-2 1-1 1-1 1-3 1-3v-10l-1-2-1-3-1-1-1-2-1-1a42 42 0 0 0-10-10 5 5 0 0 0-1 0l-1-1-2-1-5-3-1-1-7-2-2-1-2-1-3-1-2-1-3-1-3-1-3-1h-3l-4-1-5-2h-3l-4-1-7-1-5-1-3-1c-3 0-5-1-6-3v-2l-1-6-1-7-1-4-1-5-1-4-1-4-1-2-1-4-1-3v-2l-1-4-1-2-1-3-1-2-1-1-1-3-1-2-1-2-1-2v-2l-1-1-3-5h-1l-3-5-1-1-3-3-3-3-2-1-2-1h-2c-1-1-9-2-12-1m11 16c3 3 6 5 7 8l1 1v1l1 2 1 2 1 2 1 1 1 2 1 3 1 2v2l1 3 1 3 1 2 1 3 1 4 1 3 1 4v4l1 4 1 6 1 5v4h-55c-5 1-9 0-8-2l1-5 1-5v-4l1-4 1-4 1-4 1-3v-3l2-4 1-3v-2l1-3 1-3 1-1 1-2 1-2 1-2 1-2 1-2v-1l1-1c1-3 9-11 11-11 4-1 6 0 9 2m23 86c5 1 5 0 5 11l1 13v21l-1 13c0 10 0 10-4 10a73 73 0 0 0-5 1c-5 1-51 0-55-1-5-1-5 0-5-13-1-24 0-52 1-54 2-2 53-3 63-1m-79 3v62h-9l-4-1-4-1-5-1-4-1h-3l-3-1-4-1-3-1-2-1-3-1-2-1-2-1-3-1h-2l-1-1-3-1-1-1-2-1-2-1-1-1h-1l-8-9c-3-5-1-8 6-14l2-2 1-1 2-1 2-1 3-1 2-1 2-1 3-1 1-1 2-1 3-1 2-1h3l3-2 3-1h4l3-1 4-1 4-1 6-1 4-1 3-1h3l1 1" fill="none"/>
    <path d="M186 8a223 223 0 0 0-23 3l-5 1-5 1-4 1-3 1-3 1-3 1h-3l-2 1-3 1-2 1-3 1-2 1-2 1-2 1h-2l-2 1-2 1-1 1-2 1-2 1-2 1-2 1-1 1h-2l-2 1-1 1-1 1-2 1-2 1v1l-5 3h-2v1l-4 3-2 1-1 1-1 1-5 3-21 21a377 377 0 0 1-4 4l-1 2-5 6-1 1-1 2-1 1-1 1v1l-1 2-1 1-1 1-1 2-1 1-1 1-1 2-1 1-1 2-1 2v1l-1 1-1 2-1 2-1 1-1 2-1 2v2l-1 2-1 2-1 2-1 3-1 2-1 1-1 3-1 3v2l-1 3-1 3-1 2-1 4-1 3-1 4-1 4-1 5v6l-1 6a202 202 0 0 0 19 108l1 2 1 1 1 2 1 2 1 2 1 2 1 2 1 1 1 1 1 2 1 1 1 1 1 2 1 1v1l2 2 1 1v1l1 2 2 2a46 46 0 0 0 3 3l1 2 2 2a213 213 0 0 0 73 53h2l3 1 2 1 3 1 2 1 3 1 3 1 3 1h3l5 1 4 1 5 1 5 1 7 1 8 1a152 152 0 0 0 47-3l6-1 3-1 5-1h3l3-1 3-1 3-1 2-1 3-1 2-1 3-1h2l2-1 2-1 2-1 2-1 2-1 2-1 2-1 2-1 1-1h2l1-1 2-1 2-1 2-1 1-1 4-2 1-1 2-1 2-2h1l1-1 2-2a35 35 0 0 0 6-4 81 81 0 0 0 6-4l4-4 14-15a279 279 0 0 1 5-4l1-2 5-6 1-2 1-1 3-4v-1l1-1 1-2 1-1 1-1 1-2 1-1 1-1 2-5 1-2 1-1 1-2 1-2 1-1v-2l1-2 1-2 1-2 1-2 1-2 1-2 1-3 1-2 1-2v-3l1-2 1-3 1-3 1-3 1-3 1-4 1-4 1-5v-4l1-7a290 290 0 0 0-3-67l-1-4-1-3-1-3-1-3-1-3v-2l-2-4v-1l-1-3-1-2-1-2-1-3-1-2-1-2-1-2-1-2v-1l-1-2-1-2-1-2-1-1-1-1-1-2-2-5-1-1-1-2-1-1-1-1-1-2-1-1v-1l-1-1-1-2-1-1a41 41 0 0 1-2-2 44 44 0 0 0-1-2l-4-4-1-1-3-4a289 289 0 0 0-27-25 98 98 0 0 1-2-2l-2-1-1-1a88 88 0 0 0-2-2 70 70 0 0 1-2-1l-2-1-2-1-1-1-1-1-2-1-1-1-1-1-2-1-2-1h-1l-2-1-2-1-2-1-1-1-2-1-2-1-2-1-2-1h-2l-2-1-2-1-2-1-3-1-2-1-2-1-3-1h-3l-3-1-4-1-3-1-3-1-5-1-5-1-5-1-8-1-9-1h-22m13 53l4 1 3 1 1 1 2 1 2 1 2 1 2 2 1 1 1 1 3 4 1 2 1 1 1 1 1 1v1l1 2 1 2 1 1 1 3 1 1 1 2 1 3 1 2v2l1 3 1 3 1 2 1 3 1 3 1 3 1 3 1 4 1 5v4l1 7 1 4 1 4 1 4 1 1 6 1h5l5 1 5 1 4 1 4 1 3 1 4 1 3 1 3 1h3l2 1 3 1 3 1 1 1 2 1 3 1 2 1 2 1 2 1h1l2 1a112 112 0 0 0 6 4l5 4 2 2 3 4 1 1 1 2 1 2 1 2v15l-1 2-1 1-1 2-1 1-1 2-1 1h-1c-1 2-7 2-9 0-3-2-3-9-1-11l1-2 1-2v-5l-1-1a35 35 0 0 0-9-9l-2-1-2-1h-1l-2-1-2-1-2-1-2-1-3-1-1-1-3-1-3-1h-3l-3-1-2-1-4-1-4-1-5-1-3-1-5-1-5-1a8 8 0 0 0-4 0h-2v3l1 5a315 315 0 0 1 0 55l5-1 6-1 3-1 5-1 5-1 3-1h3l-4-2-2-1-2-1-2-1-2-1h-1a43 43 0 0 0-3-2c-5-2-5-10 0-13 2-1 5-2 6-1l2 1 3 1 2 1 2 1 2 1 3 1h2l2 1 1 1 3 1 2 1 2 1 2 1 3 1 2 1 2 1h1l3 3 1 1 1 3-1 2-1 1-1 3-1 2v1l-1 2-1 2-1 2-1 1-1 2-1 1-1 2-1 2v2l-1 1-1 2-1 2-1 1-1 2-1 1-1 2-1 2-3 2-1 1h-3l-1-1c-5 0-7-9-4-12l1-1 1-2 1-2 1-2 1-2 1-2c2-2-3-3-7-1l-4 1-4 1-4 1-5 1-6 1-6 1-2 1v3l-1 4-1 6-1 5-1 4v4l-1 5-1 3-1 3-1 3-1 3-1 3-1 2-1 3v2l-1 3-1 2-1 2-1 2-1 1-1 2-1 2-1 2v1l-1 2-1 1-1 1-1 2-1 1-1 1-1 1v1l-3 2-4 3-1 1-1 1-2 1h-2l-3 1h-7-3l-4-1-2-1-1-1-1-1-4-4v-2l-1-3 1-2 2-2 2-1h7l1 1h2c2 2 7 2 8 1l2-2 2-2 2-2 1-1v-1l1-1 1-2 1-2 1-1 1-2 1-2 1-2 1-2 1-2v-2l1-2 1-3 1-3 1-3 1-3 1-3 1-4 1-4v-4l1-5 1-5 1-5c1-2 0-2-4-2h-58v4l1 5 1 5 1 5v4l1 3 1 4c0 2 1 3 2 3l1 1v-1l1-2 1-1v-2l1-2 1-1 1-2 1-2 1-1 3-4c3-2 10 0 10 3l1 1v6l-1 2-1 2-1 2v1l-1 2-1 2-1 1-1 2-1 1-1 2-1 2-1 2v1l-1 2-1 2-1 2-1 1-1 2-1 1-1 2-1 2h-1l-1 1c-1 2-5 1-7 0h-1l-1-1-2-1-1-1-2-1-1-1-1-1-2-1-1-1-2-1-2-1-2-1-4-3h-1l-1-1-2-1-1-1-1-1-2-1-1-1-1-1-1-1h-1l-1-2v-7l1-2h1l1-1c1-1 5-2 7-1l2 2 2 1 1 1h1l3 3 3 1 2 1-1-6-1-3-1-5v-4l-1-4-1-6-1-6-1-3c0-2-1-3-6-3l-6-1-5-1-5-1-4-1-5-1-3-1h-4l-3-1-3-1-2-1-3-1-3-1-2-1-2-1-2-1h-2l-2-1-2-1-2-1-2-1-1-1-1-1-2-1-2-1h-1l-1-1-8-8-3-4-1-1-1-2-1-3v-12l1-3 1-1 1-1c0-2 2-4 4-6l7-6 4-3 1-1 1-1 2-1 2-1h2l2-1 1-1 2-1 3-1 3-1 2-1 2-1 3-1 3-1h3l2-1 4-1 3-1 4-1 5-1 5-1 5-1h5l5-1 1-1 1-2 1-2 1-6 1-6 1-5v-4l1-4 1-4 1-3 1-3 1-3 1-3 1-3 1-3v-2l1-2 1-3 1-1 1-2 1-3 1-2 1-1 1-2 1-1v-2l1-1 1-1 3-4a34 34 0 0 1 10-9h1l2-1 3-1 3-1h5" fill="#44bb84"/>
    <path d="M186 7h2-2m18 0h1-1m-25 1c-1 0-1 0 0 0h0m36 1h2l-1-1-1 1m-45 0h1-1m52 0h0c-1 0-1 0 0 0m-58 1h2-2m63 0h1c1 0 1 0 0 0h-1c-1 0-1 0 0 0m-66 1h1v-1l-1 1m69 0h1-1m-82 2l-1 1 2-1s1 0 0 0h-1m96 0l1 1v-1h-2 1m-119 8l-1 1 2-1h-1m-15 7h1l1-1-2 1m-3 2h-1 1c1-1 1-1 0 0m-16 9l-1 1 2-1c1-2 1-2-1 0m-4 3c-2 1-1 1 0 0l1-1-1 1m239 16l2 2-1-2-2-2 1 2M62 62v1l2-2-2 1m-6 7l-2 2h1a63 63 0 0 1 3-4l-2 2m122 1l-2 2 2-2 3-2-3 2m159-1l1 1 2 1-1-1-2-1m-120 3l4 5-2-3-2-2m135 15l1 1c0 1 0 1 0 0l-1-1M34 97v1l1-2s1 0 0 0l-1 1m336 20v1l1 1v-1l-1-1m4 9v2l1 1-1-2v-1m-132 12v0c0-1 0 0 0 0m-91 2v-1 1m91 4l1 2v-1l-1-1m-230 4v-1 1m131 5h0c-1 0-1 0 0 0m107 0h1-1m14 2h-1 1m16 4h1c1 1 1 1 0 0l-1-1v1m-174 2l-1 1 2-1v-1l-1 1m187 2l1 1v-1l-2-1 1 1m4 1l1 1v-1h-2 1m11 5l2 1h1-1l-1-1h-1m-36 3h0c-1-1-2-1 0 0M6 174a17 17 0 0 1 0 2v1-1l1-2H6m380 0l1 1v-1h-1m1 5v-1 1m-141 2v-2 2M5 185v1a9 9 0 0 0 0-2v1m242 0v-1 1m141 3v-1 1m-327 2l-1 1 1-1c1-1 0-1 0 0m186 9v5a223 223 0 0 0 0-10v5m141 0v2a36 36 0 0 0 0-4v2m-329 0v-1 1m275 4c0 1 0 1 0 0v-1 1m54 5v-1 1M5 210v-1 1m242 2v-1 1m141 1v1a6 6 0 0 0 0-2v1m-59 0l-2 3-1 1 4-5-1 1m-69 2l1 2-1-2-2-1 2 1m-14 2v-1 1m16 0l1 1h1-1l-1-1m60 0a9 9 0 0 0 2 0h-2m-76 4v0c0-1 0-1 0 0m141 1s0 1 0 0v-1 1m-80 2v-1 1M7 225v-1 1m247 5c-1 0-1 0 0 0h1c1 0 1 0 0 0h-1m19 11v1l1-1h-1m-10 2v1l2-1h-2m120 2l-1 1 1-1c1-1 1-2 0 0m-244 0h3-3m5 0h1-1m106 0h0c-1 0-1 0 0 0m-5 2l-2 1 2-1 1-1-1 1m-77 1h1-1m55 0c-1 0-1 0 0 0h3-3m4 0l1 1 1 1-1-1-1-1m-53 1h1-1m44 0h1-1m25 1v-1 1m0 2v2c-1 1-1 1 0 0v-2m-92 2v-1 1m77 0v0m-215 2l1 2v-2h-1m153 2v2h1l-1-1v-1m76 1v-1 1m-16 4v2l1-1c0-2 0-3-1-1m61 1l-2 1 2-1 1-1-1 1m-46 1v-1 1m41 0h1-1m-87 6c0 2 1 2 1 1l-1-2v1m-57 6h1-1m17 1l1 2-1-2s0-1 0 0m215 2v0c1-1 1-1 0 0m-238 2v0c1-1 1-2 0 0m-108 1l1 2-1-2v-1 1m147 0c1 1 2 2 3 1l-2-1h-1m50 2c0 1 0 1 0 0l1-1-1 1m-68 0l1 1-1-1-1-1 1 1m83 2c-1 1-1 1 0 0v-1 1m-90 11l1 1-1-1-1-1 1 1m20 13l1 1-1-1-1-1 1 1m43 2l-1 2 1-1v-1m139 4l-1 2 1-1v-1m-145 3l-1 1 1-1 1-1-1 1m-6 2h1c1 0 0 0 0 0h-1m138 9l-2 2 3-2 1-2-2 2m-277 1l2 1-2-1-2-2 2 2m6 6l3 2-2-2-3-2 2 2m265 0l-2 2 2-2c3-3 3-3 0 0m-134-1h2-2m120 13c-1 0-1 1 0 0l2-2-2 2m-11 8l-1 1 1-1 2-1-2 1m-3 2s-1 0 0 0l1-1h1l-2 1m-19 11l-1 1 1-1c2-1 1-1 0 0m-11 5c-2 1-1 1 0 0l1-1-1 1m-145 2h1l-2-1 1 1m22 7l2 1-1-1-1-1v1m24 4h1-1m47 0h1-1m-42 1h2-2m35 0c-1 0-1 0 0 0h3c1 0 1 0 0 0h-3m-30 1h1-1m10 0" fill="#94d4b4"/>
    <path d="M179 8l-7 1-7 1-4 1-4 1-4 1h1l3-1 6-1 4-1 6-1h7a173 173 0 0 1 6-1h3-10m27 0a101 101 0 0 0 15 1 201 201 0 0 1-15-1h-2 2m19 2l7 1 3 1 4 1h2l-1-1-4-1h-4l-4-1h-3m-76 3l-3 1c-2 1-2 1 0 1l3-1 2-1h-2m93 0l1 1 3 1c3 0 3 0 1-1l-3-1h-2c-1 0 0 0 0 0m-100 2l-2 1h-1 4v-1h-1m108 1h4-2l-1-1h-1v1m-113 1l-3 1-3 1-2 1-2 1-3 1h-2l-2 1-2 1-1 1-3 1a1125 1125 0 0 1 21-8l2-1h1v-1l-1 1m118 0h1l3 1 2 1 2 1 3 1 2 1 2 1 2 1-3-2-3-1-3-1-1-1-3-1-3-1-1-1v1m19 7l2 1 2 1 2 1 2 1 1 1h1l-1-1h-1l-2-1-1-1-2-1-2-1a1 1 0 0 0-1 0m11 6l2 1 2 1h1l2 1 2 1 1 1 1 1 2 1 1 1 1 1 2 1 2 1a70 70 0 0 0 2 1 88 88 0 0 1 3 3l2 1 2 2a195 195 0 0 1 27 25 112 112 0 0 0 4 5l4 4 1 2a41 41 0 0 0 2 2l1 1 1 2 1 1v1l1 1 1 2 1 1 1 1 1 2 1 1 2 5 1 2 1 1 1 1 1 2 1 2 1 2v1l1 2 1 2c1 1 1 1 0 0v-2l-1-2-1-2-1-1-1-2-1-2-1-2v-1l-1-2-3-4-1-1-1-3-2-3a15 15 0 0 0-1-1 85 85 0 0 1-2-3 248 248 0 0 0-35-37 27 27 0 0 0-2-2 642 642 0 0 1-3-3 153 153 0 0 0-4-2 109 109 0 0 1-7-5l-5-3-3-2a59 59 0 0 1-3-2l-3-1-2-2h-1v1m-185 4l-4 2-2 1v1l-2 1-2 1-2 1a80 80 0 0 0-2 2 213 213 0 0 1-11 8l-2 2-18 18a549 549 0 0 1-4 4l-4 4a241 241 0 0 1-3 4v1l1-1 2-2 2-3 1-2 4-4a244 244 0 0 1 48-39l-2 1m94 27h2l9 2h1l-3-1-4-1h-5m-4 1l-2 1-2 1h-1l-1 1a34 34 0 0 0-12 12l-1 1-1 1v2l-1 1-1 2-1 1-1 2-1 3-1 2-1 1-1 3v2l1-1 1-3v-1l1-3 1-2 1-1 1-3 1-1 1-1 4-7a35 35 0 0 1 11-10l2-1 1-1 3-1h1-2m18 3a43 43 0 0 1 15 15l3 5 1 2 1 2 1 2v2l1 2 1 3 1 2 1 1c0 1 0 1 0 0l-1-2v-2l-1-2-1-3-1-2-1-1-1-3-1-1-1-2-1-2v-1l-1-1-1-1-1-1-1-2-3-4-1-1-1-1-2-2-2-1-2-1-2-1 1 1M42 86l-1 1-1 2-2 3-1 1-3 5-1 2h-1l2-2 1-1 1-1 1-2 1-1 1-1 1-2v-1l1-1 1-1 1-2-1 1m119 13l-1 2v4-2l1-2 1-2h-1m-129 3a29 29 0 0 1-2 2l-1 3-1 2-1 1-1 2-1 2-1 1-1 3-1 2v1c0 1 0 1 0 0l1-1 1-2v-2l1-2 1-2 1-1 1-2 1-2 1-1v-1l1-2 1-2v1m201 1l2 4-1-2-1-2c0-1 0 0 0 0m-74 3l-1 3-1 3-1 3-1 3v3c-1 2-1 2 0 0l1-2v-4l1-2 1-3 1-4c1-1 0-1 0 0m76 3l1 2 2 8a216 216 0 0 0-3-10m136 12l1 2 1 3 1 2 1 2 1 2c0 1 1 1 0 0l-1-2-1-2-1-3v-2l-1-2-1-1v1m-350 3l-1 2-1 2-1 2-1 2v1l1-3 1-1 1-2 1-3 1-1c-1-1-1 0-2 1m134 0l-1 2v4 1l1-4v-4 1m86 6l1 3 1 6 1 6v3c1 3 2 4 7 5l6 1h4-1l-2-1h-5l-6-1-1-1-1-4-1-4-1-4-1-7v-2h-1m136 4l2 4v-1l-1-2c0-2-1-2-1-1m-224 1l-1 6-1 6-1 2-1 2-1 1 3-2v-2l1-6 1-6v-1c0-1 0-1 0 0m-136 0l-1 2-1 3v3l-1 3-1 3v1l1-4 1-2 1-3 1-3v-2-1m362 5l1 3 1 3 1 3 1 4 1 3v-1l-1-2-1-5-1-4a33 33 0 0 0-1-3l-1-2v1M11 153l-1 3-1 3v2l1-2v-2l1-4c0-1 0-1 0 0m128 0h-2l-2 1c-1 0-1 0 0 0h3l6-1h2-7m-12 2l-5 1-4 1-3 1-4 1-2 1h-3l-3 1-3 1-2 1-2 1c-2 1-1 1 0 0h2l3-1 3-1 2-1 3-1 3-1 4-1 3-1 4-1h5l3-1h2l-2-1-4 1m135 0l4 1h4l4 1 4 1 3 1 1 1c2 0-1-2-3-2l-4-1-4-1-5-1-3-1-3 1h2m122 5l1 5v4-2-3l-1-5v1m-100 0l3 1a76 76 0 0 0 11 3l3 1 1 1 2 1 2 1 3 1 1 1h1l-2-1-2-1-2-1-3-1-2-1-1-1-3-1-3-1-2-1h-3l-3-1h-1M9 162l-1 2v2l1-4c0-1 0-1 0 0m83 3l-2 2 1-1 2-1h-1m-5 2v1l1-1h1-1-1m161 0a6 6 0 0 0 1 0h-1c-1 0-1 0 0 0m-2 1c-1 1 0 6 1 16v30 17-9a312 312 0 0 0-1-54m6 0l5 1 5 1 3 1 5 1 3 1h2l-1-1-3-1h-3l-4-1-6-1-5-1h-1M7 172l-1 5v10-4l1-5 1-10-1 4m77-3l-1 1h-2l-2 1-1 1-1 1-4 3-7 6c-2 2-4 4-4 6l-1 1-1 2-1 2v12l1 3 1 2 1 1 3 4a42 42 0 0 0 9 9h1l2 1 2 1 1 1 1 1 2 1 2 1 2 1 2 1-1-1-3-1-1-1-2-1-2-1-1-1-2-1-3-2c-20-13-20-34 1-48l2-2 2-1 1-1h2l2-1 1-1v-1l-1 1m302 3v5c1 2 2 1 1-2l-1-3v-3 3m-73-1l2 1 1 1 3 2a46 46 0 0 1 13 14c2 4 3 14 1 18l-1 2v1a251 251 0 0 0-2 3c-2 3-4 4-7 4-6 0-9-6-6-12l1-2 1-1 1-1c0-1-2 0-2 2l-1 2c-2 2-2 9 1 11 2 2 8 2 9 0h1l1-1 1-2 1-1 1-2 1-1 1-2v-15l-1-2-1-2-1-2-2-3-1-1-1-1-2-2-5-4a194 194 0 0 0-3-2l-3-2h-1m-37 2l2 1 2 1 4 1h3l-3-1-3-1h-2l-2-1h-1m12 4h1l3 1c1 0 1 0 0 0l-3-1-1-1v1m5 2l3 1 2 1 2 1 2 1 2 1h1l2 1 2 1v1l9 8 1 1 1 1c0-2-6-7-9-9l-2-2-6-3-7-3-1-1h-2m94 21a334 334 0 0 0 0 0M5 197v5a263 263 0 0 0 0-5m315 2v-1 1m-59 5c-5 3-5 11 0 13l3 2h1l2 1 2 1 2 1 2 1c2 0 2 0 1-1l-2-1h-2l-3-1-2-1c-3 0-7-5-7-9 0-6 6-8 13-5l3 1 1 1 2 1 3 1 2 1 2 1 3 1h2l1 1 3 1 3 1 1 1 2 1 2 1h1l-2-1-2-1-3-1-2-1-2-1-2-1-3-1-1-1-2-1h-2l-3-1-2-1-2-1-2-1-3-1-2-1c-1-1-4 0-6 1M6 214v6l1 6v-1-6l-1-5v-5 5m298 6c2 1 3 3 3 5v-3l-1-1-2-3v2m82 3v6a467 467 0 0 1 0-6m-111 0l1 1v1h-1 4l-2-1-2-1m-4 3l-5 1-5 1-3 1-6 1h-2v1l3-1 5-1 6-1h3l4-1 3-1h-3m35 3l-1 1-1 1 2-2c0-2 0-2 0 0M8 231v2l1 3v1-2l-1-3v-1m377 1v1a6 6 0 0 0 0-1c0-1 0-1 0 0m-294 0l2 1 2 1 2 1 3 1 2 1h1l-2-1-2-1-2-1-4-1-2-1h-1 1m212 3l-2 3a25 25 0 0 1-1 2 110 110 0 0 0-5 9l-1 3-2 3-1 2-1 2c-3 7-9 9-13 4-2-1-2-7-1-9l1-2 1-2 2-3 2-4 1-2 1-1-2-1-3 1h1c3 0 3 1 2 2l-1 2-1 2-1 2-1 2-1 2-1 1c-3 4-1 12 4 12l1 1h3l1-1 3-2 1-2 1-2 1-1 1-2 1-1 1-2 1-2 1-1v-2l1-2 1-2 1-1 1-2 1-1 1-2 1-2 1-2v-1l-1 2m81 1v6-3l1-4-1 1m-279 2l3 1 3 1h6-2l-3-1-3-1-3-1c-1 0-2 0-1 1m-96 1l1 3 1 3c0 2 0 2 0 0l-1-4-1-2v-2 2m109 2l5 1 4 1 5 1 5 1 3 1 3-1h-2l-5-1h-4l-3-1-5-1-5-1h-1m157 0l-4 1h-3 3c3 0 7-2 5-2l-1 1m108 2l-1 4-1 3-1 3-1 3-1 2v2l1-2 1-2v-2l1-3 1-4 1-3 1-2-1 1m-118 0l-3 1h-5l-4 1 1 1 4-1 5-1 4-1h-2m-119 3c2 0 3 1 3 3l1 3 1 6 1 6 1 4v4l1 2c0 1 0 0 0 0l-1-4a64 64 0 0 1-1-5 82 82 0 0 0 0-4l-1-6c-1-8-2-9-6-9h-1 2m99 1l-1 2-1 3v3l-1 2 1-2 1-4c0-4 1-4 5-5h2-2l-4 1m-234 1l1 2 1 2 1 4v2l1 3 1 2c0 1 0 1 0 0v-3l-1-3-1-2-1-4-1-3h-1c0-1 0-1 0 0m154 1v4l1-2v-2h9a1404 1404 0 0 0 53 2l-1 5v3l1-2 1-5v-2l-1-1-3-1a386 386 0 0 1-60 1m1 6v3l1 5 1 3-1-4v-4l-1-3v-2 2m76 5l-1 5v1l1-9v3m-16 1v4l1-2c0-3 0-4-1-2m152-1l-1 1v3l-1 2-1 2-1 3-1 2-1 2-1 2c0 1 0 1 0 0l1-1 1-2 1-3 1-2 1-2 1-2 1-3v-2m-362 5l1 1 1 3 1 2 1 1 1 3 1 3v1l1 2v-2l-1-3-1-2-1-2-1-2-1-2c0-2-2-4-2-3m168 0l-3 4-1 1-1 2-1 2-1 1-1 2v2l-1 1-1 2v1l-1-1c-1 0-2-1-2-3l-1-4-1-3-1-5v2l1 4 1 4 1 3c0 3 2 5 3 3l1-2 1-2 1-2 3-5c3-7 8-9 12-6l1 1 2 2 1 2-1 3-4 8-1 1v2l-1 1 2-2 1-2v-1l1-2 1-2 1-2v-6l-1-1c0-3-7-5-10-3m41 3v2l-1 4v1l1-4v-3c0-2 0-2 0 0m15 2l-1 3-1 5v3l-1 3-1 3-1 4-1 3-1 1-1 3-1 3-1 2-1 2v2l-1 2-1 2c-1 1-1 1 0 0l1-1 1-2 1-2 1-2 1-3v-2l1-3 1-2 1-3 1-3 1-3 1-3 1-3 1-5v-3-1m-85 8v2c1 1 2 5 1 6l-2-1-3-1-3-2-1-1-1-1-2-1a37 37 0 0 1-2-2c-2-1-6 0-7 1l-1 1h-1l-1 2v7l1 2h1l1 1 1 1 1 1 2 1 1 1 1 1-3-3c-5-4-6-5-6-8l2-6 1-1h7l1 1 2 1a91 91 0 0 0 13 7l-1-1v-2l-1-4-1-3v1m68 0l-1 3-1 3-1 3-1 3-1 2c0 2 1 0 2-3l1-4 1-4 1-3c1-1 0-1 0 0m147 1l-1 2-1 2v2l-1 1-1 2-1 2-1 1-1 2-2 5-1 1-1 1-1 2-1 1-1 1-1 2 1-1 1-1 1-1a58 58 0 0 0 5-8 88 88 0 0 0 4-8l3-6v-1-1m-346 3v1l1 2 1 1 1 2 1 2 1 2 3 5-1-2-1-2-1-2-1-2-1-1-1-2-1-2-1-2m163 7l-1 3-1 2-1 1-1 2a56 56 0 0 1-3 6c-4 8-8 11-12 9-1-1-2-1 0 0 1 1 5 2 6 0l1-1h1l1-2 1-2 1-1 1-2 1-1 1-2 1-2 1-2v-1l1-2 1-2 1-1 1-2 1-2-2 2m31 5l-1 1v2l-1 2-1 2-1 2-1 2-1 2-1 1-1 2-1 2-1 1v1l-1 1-2 2-3 3-1 1h-1v1l3-2 7-9 3-5 1-2 1-2 1-3 1-2 1-2v-1m-76 2l2 2h1l4 3 2 1 2 1 2 1-5-3-2-2h-1l-1-1-4-2m-109 3l1 1c0 1 1 1 0 0l-1-2v1m1 3h1l1 1v1l1 2 2 2 1 1 1 2 2 2v-1l-1-1-2-2v-1l-1-1-1-2-1-1-1-1-2-1m122 3l2 1 1 1 1 1 2 1 1 1 2 1 1 1v-1l-1-1-2-1a147 147 0 0 1-3-1 40 40 0 0 0-2-2l-2-1v-1 1m198 2v1l-3 4-1 1-1 2-5 6-1 2-5 4a304 304 0 0 1-36 32l-2 1-1 1-4 2-1 1-2 1-2 1-2 1-1 1h-2l-1 1-2 1-2 1-2 1-2 1-2 1v1l1-1h1a220 220 0 0 0 41-26 208 208 0 0 0 29-28 620 620 0 0 1 2-4 440 440 0 0 0 6-9m-128 7l-1 1h-1c0 1 2 0 2-2v1m-182 1a674 674 0 0 0 3 4 31 31 0 0 0 2 2l1 2a229 229 0 0 0 36 32 50 50 0 0 1-3-2l-2-1-2-2-2-2-2-1v-1l-2-1-1-1h-1v-1a185 185 0 0 1-27-28m179 3l-2 3v1l-11 11-7 3h3l2-1 1-1 1-1 4-3 3-2v-1l1-1 1-1 1-1 1-2 1-1 1-1 1-2v-2l-1 2m-40 1l-2 1-2 2-1 2 1 3v2l4 4 1 1 2 1 1 1h3c1 0 1 0 0 0l-2-1-2-1-1-1h-1l-5-6c0-2 1-7 3-7l1-1h7-7m9 2h3l-2-1h-2l1 1m5 1h0c-1 0-1 0 0 0m-5 15h4-4m-98 24l2 2 2 1h1l2 1 2 1 3 2a109 109 0 0 0 9 4l-2-1-2-1h-1l-2-1-2-1-1-1-2-1-2-1-1-1-2-1-1-1-2-1-1-1v1m28 15l3 1 2 1h1c1 0 1 0 0 0l-1-1h-2l-2-1-2-1 1 1m148 0l-2 1h-2l-1 1c-1 0-1 0 0 0h2l2-1 2-1 1-1-2 1m-140 3l2 1h2l2 1 3 1 3 1h1l-3-1-3-1-2-1-3-1-2-1v1m131 0l-3 1-2 1-3 1-3 1h1l2-1 3-1h2l3-1a10 10 0 0 1 2-1v-1l-2 1m-115 5l3 1 3 1h1l-1-1-3-1h-5 2m98 0l-5 1-3 1-6 1-5 1-2 1h1l3-1h4l4-1a54 54 0 0 1 5-1l4-1 4-1h-4m-89 2l3 1 4 1h3l3 1-6-2-5-1h-2c-2 0-2 0 0 0m19 3l8 1a205 205 0 0 0-7-1h-6 5" fill="#80c8a4"/>
    <path d="M178 7a145 145 0 0 1-16 3h-4l-3 1-5 1-3 1-2 1-4 1-4 1-7 2-2 1-2 1-2 1-3 1-2 1-1 1-3 1-2 1h-1l-2 1-2 1-2 1v1l-2 1-2 1-2 1-4 2-2 1-1 1-2 1a94 94 0 0 1-3 2l-2 2h-1l-1 1-2 1-1 1a180 180 0 0 1-10 9 159 159 0 0 0-33 36l-1 1-1 2-1 2v1l-2 1-1 2v1l-1 1-1 2-1 2-1 1-1 2-1 2-1 2-1 2v1l-1 2-1 1-1 2-1 2-1 2v2l-1 3-1 2-1 3-1 2-1 3-1 3-1 2-1 4-1 3v3l-1 4-1 4-1 6-1 5a255 255 0 0 0 4 74l1 4 1 3 1 3 1 3 1 3 1 1 1 3 1 3v2l1 2 1 2 1 2 1 2v1a129 129 0 0 0 15 26l1 1 1 1 1 2a99 99 0 0 1 7 9l2 3a85 85 0 0 0 6 6 196 196 0 0 0 114 61l3-1h-2l-12-2-5-1-5-1-2-1-10-3-3-1h-2l-2-1-3-1-6-3-18-9a48 48 0 0 0-3-2l-2-1-1-1-11-6a311 311 0 0 1-18-15 202 202 0 0 1-55-91l-1-4-1-3-1-4-1-5-1-5-1-7c-1-7-1-40 1-49l1-6a113 113 0 0 1 4-21l1-3 1-3 1-3 1-2 1-3 1-2 1-2 1-3v-2l1-2 1-2 1-2 1-1 1-3 1-1 1-2v-1l1-2a34 34 0 0 1 2-3 101 101 0 0 0 5-8l1-1 1-2 1-1v-1l1-1 3-4a169 169 0 0 1 34-36 230 230 0 0 0 4-4 43 43 0 0 1 6-3 191 191 0 0 1 155-31l3 1 4 1 3 1 3 1 3 1 2 1 3 1 2 1 3 1 2 1h2a96 96 0 0 0 3 2l4 1 1 1 4 2 11 6a49 49 0 0 0 2 1l3 2 1 1 2 1a237 237 0 0 0 9 6l7 6a196 196 0 0 1 69 125 330 330 0 0 1-2 60l-1 4-1 5-1 3a80 80 0 0 1-3 12l-1 3-1 2-1 3-1 2-1 2v1l-1 3a531 531 0 0 1-21 36l-4 5a28 28 0 0 1-4 5 212 212 0 0 1-70 53l-2 1-3 1-2 1-2 1-3 1-3 1h-2l-3 1-3 1-4 1-3 1-3 1-4 1-4 1h-4l-5 1h-3l3 1 4-1 6-1 4-1 4-1 4-1 3-1h2l3-1 4-1 2-1 3-1 3-1 2-1 2-1 2-1h1l6-3 2-1 2-1 1-1h2l2-2c4-1 5-2 5-3h1l5-3 4-2 1-2h1l2-1 3-2a39 39 0 0 0 1-2l2-1h1l2-2 3-2 2-2 20-19a89 89 0 0 1 2-3 135 135 0 0 0 14-19l2-2 2-3v-2l1-1 1-1 1-2 1-2 2-4a78 78 0 0 1 4-7v-2l2-2 1-3 1-2v-2l1-2 1-3 1-2 1-2 1-4a78 78 0 0 0 4-12v-3l1-4 1-5 1-5 1-8 1-8a240 240 0 0 0-9-72l-1-1-1-3-1-3-1-2-1-3v-2l-1-2-1-2-1-2-1-2-1-2-1-2-1-1v-2l-1-2-3-5-1-1-3-5-1-1v-1l-1-2a56 56 0 0 0-5-8l-2-1-2-3-3-4-1-1v-1l-3-3a182 182 0 0 0-66-49l-2-1-3-1-2-1-1-1-3-1-3-1h-1l-3-1-4-1-2-1-3-1-4-1-3-1-3-1-5-1-5-1-7-1-8-1h-36m14 55l-5 2c-6 3-7 4-14 12l-1 2a68 68 0 0 0-9 18 76 76 0 0 0-4 11l-1 3-1 3v3l-1 3-1 4-1 5-1 5-1 4-1 5-2 9-1 1-4 1-6 1-5 1-4 1-5 1h-4l-4 1-3 1-3 1-4 1a266 266 0 0 1-17 6l-2 1-1 1a47 47 0 0 0-9 5 46 46 0 0 1-2 1c-18 12-21 29-8 42a56 56 0 0 0 17 12l3 1 4 2 2 1 3 1a41 41 0 0 0 3 1 2020 2020 0 0 1 30 8l5 1h4l6 1c6 1 6 2 7 11l1 5 1 5 1 5 1 4 1 4 1 4v3c1 2 0 2-3 0l-7-4c-6-6-11-6-14-1s-2 7 6 12a115 115 0 0 0 11 7 7 7 0 0 1 1 1 55 55 0 0 0 8 6l2 1h1c2 2 7 4 9 4 2 1 5-1 7-6a216 216 0 0 1 9-18l1-2 1-2 2-2 1-3c4-6 4-11 1-12l-1-1c0-1-4-2-6-1l-5 5-1 3a164 164 0 0 0-6 10c0 3-3 1-3-3l-1-4-1-4-1-3-1-4-1-5-1-6c0-6 0-7 3-6l29 1 28-1c4-1 5 1 3 6v5l-1 4-1 5-1 4-1 3-1 4-1 3v2l-1 4a70 70 0 0 1-6 14v1l-2 4c-5 8-10 14-14 15l-6-1c-7-5-15-2-14 6 1 3 3 5 8 7l4 2h6c6 0 11-1 15-5a428 428 0 0 1 11-13l1-1 1-2 1-3 1-1 1-2 1-2v-1l1-3 1-3 1-1 1-4 1-2 2-7a210 210 0 0 1 3-13l1-5 1-4 1-4a67 67 0 0 1 1-11c1-3 2-3 7-4a60 60 0 0 0 11-1l4-1 5-1 3-1 5-1 3-1h3a63 63 0 0 0-2 4 87 87 0 0 0-4 8c-4 7-3 12 2 14 4 1 7 0 10-6a116 116 0 0 1 5-9l3-7a87 87 0 0 0 5-9l2-4c2-2 2-8 0-10a39 39 0 0 0-12-5l-3-2a1038 1038 0 0 1-10-4 399 399 0 0 0-16-5c-4 0-7 4-6 8l4 5 1 1 3 1 2 1 2 1h2l3 1 3 2c1 1 1 1-3 2l-4 1-3 1h-4l-6 2-6 1c-7 1-7 0-6-13a270 270 0 0 0 0-50h8l4 1 6 1 4 1 4 1h3l3 1 4 1 8 3 7 2c4 2 12 6 15 9l6 6 1 1c2 2 1 5-1 9-3 8-2 13 5 13 8 0 14-16 10-24l-1-3v-2a228 228 0 0 1-2-2l-11-11a47 47 0 0 1-3-1l-1-2h-1a75 75 0 0 0-12-6l-7-2a82 82 0 0 1-11-4l-3-1-3-1h-4l-5-1-4-1-5-1-5-1-6-1-3-1-2-1-2-13-1-5-1-4-1-5a96 96 0 0 1-1-4l-1-5-1-3a72 72 0 0 1-2-6l-1-3-1-3-1-2-1-2-1-3-1-2v-2l-3-5-1-2-6-8c-8-10-16-13-26-12m12 2h2l2 1 2 1 3 3 3 3 1 1 3 5h1l3 5 1 1v2l1 2 1 2 1 2 1 3 1 1 1 2 1 3 1 2 1 4v2l1 3 1 4 1 2 1 4 1 4 1 5 1 4 1 7 1 6v2c1 2 3 3 6 3l3 1 5 1 7 1 4 1h3l5 2 4 1h3l3 1 3 1 3 1 2 1 3 1 2 1 2 1a65 65 0 0 0 8 3l5 3 2 1 1 1a5 5 0 0 1 1 0l4 3a42 42 0 0 1 8 10l1 1 1 3 1 2v10l-1 3-1 3-1 1-1 1-1 2-5 2-4-1-2-2v-3l1-4 1-1 1-2c1-3 1-6-1-9l-8-8-1-1h-2l-1-1-2-1-1-1-2-1-2-1-3-1-2-1h-2l-2-1-3-1-2-1-4-1-2-1-3-1-3-1-5-1-4-1h-4l-6-1c-4-2-9-1-10 0l1 24v19 20h9l5-1 4-1 5-1 4-1 3-1c4 0 4-3-1-4l-2-1-1-1-3-1-2-1c-1 0-6-2-7-4-3-2-2-8 2-9 2-1 6 0 8 1l3 1 2 1h1l3 1 2 1 2 1 3 1 1 1 2 1 3 1 2 1h2l2 1c1 0 5 2 6 4 3 2 2 7-1 11a44 44 0 0 0-2 5 32 32 0 0 0-1 2 126 126 0 0 1-6 11l-3 5-1 2v1l-1 2-1 2c0 2-7 4-9 2a14 14 0 0 0-2-1v-9a213 213 0 0 0 7-14c1-1 0-2-2-2a334 334 0 0 1-34 7c-5 0-5 2-6 12l-1 4-1 4a71 71 0 0 1-2 10l-1 4-1 4-1 4-1 2v3l-1 3-1 2-1 2-1 3-1 2-1 2-1 3-1 1-1 2-1 2v1l-3 5-1 1-10 11-3 1c-4 3-4 3-10 3l-8-1-3-1v-1h-1c-5-2-7-9-3-12l2-2h4l2 1 2 1c2 2 8 2 11 0a34 34 0 0 0 6-7l2-3a173 173 0 0 1 4-7l1-1v-2l1-2 1-2 1-2 1-3 1-4 1-2 1-3 1-4 2-9 1-5 1-6 1-5c2-7 1-8-11-6-9 1-38 1-46-1-7 0-9 0-8 5l1 4 1 5 1 5 1 4 1 4 1 4v3c0 4 4 6 5 2l1-2v-1l1-2 1-2 1-1 1-2c3-6 6-8 9-8l2 1 1 1c3 2 3 7 0 11v1l-1 2-1 2-1 1-1 2-1 2-1 1-1 2v2l-1 2-1 1-1 1-1 2-1 2-2 4c-3 7-9 9-13 5l-1-1-2-2-3-1-2-1-4-3-1-1-1-1-2-1-1-1-2-1-1-1h-1l-1-1c-10-6-12-9-10-13 3-5 6-5 12-1l1 1h1l1 1 1 1 2 1 1 1 2 1 2 1c2 1 3-1 2-3l-1-3-1-4-1-5-1-4-1-4-1-6-1-6-1-5v-2l-5-1-4-1-6-1-6-1-4-1h-4l-3-1-4-1-3-1-4-1-2-1-3-1-2-1h-3l-2-1-3-1-2-1-5-3-2-1a52 52 0 0 1-6-3l-2-1-3-3a35 35 0 0 1-10-11c-3-5-2-19 2-22v-1l8-8a65 65 0 0 0 4-3l2-1 2-1 1-1 2-1 1-1 2-1 2-1h2l3-1 2-1 2-1 2-1 3-1 3-1a53 53 0 0 0 8-2l5-1 3-1 5-1 4-1 6-1a44 44 0 0 0 9-2c4 0 6-3 7-8v-5l1-6 1-5 1-4 1-4 1-4 1-3 1-3 1-3v-3l1-2 1-3 1-2 1-3 1-2 1-1 2-6a49 49 0 0 0 2-4l3-4 1-1a20 20 0 0 0 1-2 39 39 0 0 1 11-10h1l2-1c3-2 13-2 15 0m-10 13c-2 0-10 8-11 11l-1 1v1l-1 2-1 2-1 2-1 2-1 2-1 1-1 3-1 3v2l-1 3-2 4v3l-1 3-1 4-1 4-1 4v4l-1 5-1 5c-1 2 3 3 8 2a362 362 0 0 1 55 0v-4l-1-5-1-6-1-4v-4l-1-4-1-3-1-4-1-3-1-2-1-3-1-3v-2l-1-2-1-3-1-2-1-1-1-2-1-2-1-2v-1l-1-1c-1-3-4-5-7-8-3-2-5-3-9-2m-24 88c-8 1-8 0-8 12v43c0 13 0 12 5 13 4 1 50 2 55 1a73 73 0 0 1 5-1c4 0 4 0 4-10l1-13v-21l-1-13c0-11 0-10-5-11h-56m-27 2l-3 1-4 1-6 1-4 1-4 1-3 1h-4l-3 1-3 2h-3l-2 1-3 1-2 1-1 1-3 1-2 1-2 1-3 1-2 1-2 1v1l-3 2c-7 6-9 9-6 14 1 2 6 8 9 9l1 1 2 1 2 1 1 1 3 1 1 1h2l3 1 2 1 2 1 3 1 2 1 3 1 4 1 3 1h3l4 1 5 1 4 1 4 1h9v-14-33c1-16 1-16-1-16h-3m30 223c7 2 35 2 44 0h4-9a246 246 0 0 1-39 0" fill="#a4d7bc"/>
  </g>
</svg>
