<svg viewBox="0 0 259 296" xmlns="http://www.w3.org/2000/svg">
  <g fill="none" fill-rule="evenodd">
    <path d="M39.8 116.5S61 98.1 123.6 98.1c57.4 0 73.6 13 90 18.4L128 158.3l-88.2-41.8z" fill="#C9781F" fill-rule="nonzero"/>
    <path d="M30.9 171.9c.4 8 8.3 4.3 12 1.8 3.4-2.4 4.4-.4 4.7-5 .2-3.2.5-6.2.4-9.3-5.2-.5-10.9.8-15.1 3.8-2.2 1.6-6.3 6.7-2 8.7" fill="#F6D2A2" fill-rule="nonzero"/>
    <path d="M30.9 171.9c1.1-.4 2.4-.7 3.2-1.8" fill="#C6B198" fill-rule="nonzero"/>
    <path d="M49.3 76.9C18.7 68.3 41.5 29.4 66 45.4L49.3 76.9zm135.9-34.4c24.2-17 46 21.3 18 31l-18-31z" fill="#37ABC8" fill-rule="nonzero"/>
    <path d="M190.4 270c6.2 3.9 17.4 15.4 8.2 21-8.9 8-13.9-9-21.6-11.3 3.3-4.5 7.6-8.7 13.4-9.6z" fill="#F6D2A2" fill-rule="nonzero"/>
    <path d="M198.6 291c-1.4-2.8-1.9-6-4.1-8.1"/>
    <path d="M80.6 283c-7.3 1.2-11.3 7.7-17.3 11-5.7 3.4-7.9-1-8.4-2-.9-.4-.8.4-2.2-1-5.2-8.3 5.5-14.3 11-18.5 7.9-1.5 12.7 5.2 16.9 10.6z" fill="#F6D2A2" fill-rule="nonzero"/>
    <path d="M55 292c.2-3.2 2.7-5.3 3.9-8"/>
    <path d="M50.6 66.1c-4-2.1-7-5-4.5-9.7 2.3-4.3 6.5-3.8 10.5-1.7l-6 11.4zm146.2-4c4-2.2 7-5 4.5-9.7-2.3-4.3-6.5-3.9-10.6-1.7l6 11.4z" fill="#077E91" fill-rule="nonzero"/>
    <path d="M224.5 170.9c-.3 8-8.3 4.3-12 1.8-3.4-2.4-4.4-.4-4.7-5.1-.2-3-.5-6.1-.4-9.2 5.2-.5 10.9.7 15.1 3.8 2.2 1.6 6.3 6.7 2 8.7" fill="#F6D2A2" fill-rule="nonzero"/>
    <path d="M224.5 170.9c-1.1-.4-2.3-.8-3.1-1.8" fill="#C6B198" fill-rule="nonzero"/>
    <path d="M124.6 26.3c30.7 0 59.4 4.4 74.3 33.8 13.5 33 8.7 68.4 10.7 103.2 1.8 29.9 5.7 64.4-8.2 92.1-14.6 29.1-51 36.5-81.1 35.4-23.7-.8-52.2-8.5-65.5-30-15.6-25.4-8.2-63-7.1-91 1.3-33.4-9-66.8 2-99.4 11.3-33.8 42-41.5 75-44" fill="#37ABC8" fill-rule="nonzero"/>
    <path d="M130 67.4c5.5 31.9 57.8 23.5 50.3-8.7-6.7-28.9-52-20.9-50.3 8.7m-62.4 5.1c7.2 27.8 51.7 20.7 50-7.2-2-33.3-56.8-26.9-50 7.2m72.6 32c0 4.3 1 8.5.1 13.3-1 2-3 2.2-4.9 3a7.3 7.3 0 0 1-5.5-4.3c-.7-5 .2-10 .4-15l9.9 3z" fill="#FFF" fill-rule="nonzero"/>
    <g transform="translate(72 59.4)" fill-rule="nonzero">
      <ellipse fill="#000" cx="7.9" cy="8.6" rx="7.5" ry="8.1"/>
      <ellipse fill="#FFF" cx="11.3" cy="10.4" rx="1.8" ry="2.1"/>
    </g>
    <g transform="translate(135 57.8)" fill-rule="nonzero">
      <ellipse fill="#000" cx="7.9" cy="8.2" rx="7.4" ry="8.1"/>
      <ellipse fill="#FFF" cx="11.2" cy="10.1" rx="1.7" ry="2.1"/>
    </g>
    <path d="M118.7 105.2c-3.3 8 1.8 23.9 10.7 12.1-.6-5 .3-9.9.4-15l-11.1 3z" fill="#FFF" fill-rule="nonzero"/>
    <path d="M118.2 90c-6.1.5-11.1 7.7-8 13.5 4.3 7.6 13.7-.7 19.5 0 6.7.2 12.3 7.2 17.7 1.3 6-6.5-2.6-12.8-9.3-15.7l-20 .8z" fill="#F6D2A2" fill-rule="nonzero"/>
    <g fill-rule="nonzero">
      <path d="M39.8 116.5s2 21 1.8 30c-.1 9 8.5 3.3 9 17.5.4 14.2-5.3 11.6-8.3 18.5-3 7-5 39.5-5 39.5s3 6 12.7 11.6 25 8.5 38.5 8c13.4-.7 23-3.6 25.3-5.1 2.4-1.6 6.4-6.6 7.9-10.5 1.5-3.9 4.6-35.8 4.4-54.1-.2-18.3-3.2-35.1-3.2-35.1l-83.1-20.3z" fill="#EF9325"/>
      <path d="M124.7 205.5c-39.5 4.4-85.3-7.8-85.3-7.8s.7-12.3 3.7-16.6c41 12.7 82.4 8.6 82.4 8.6.6 5.8.2 10.4-.8 15.8zm-5 24.3c-39.5 4.4-82.4-8.2-82.4-8.2s-.1-11.9 1.4-17c41 12.6 84.9 9.4 84.9 9.4-.4 6.3-1.3 12.4-4 15.8z" fill="#E5E5E5"/>
    </g>
    <g fill-rule="nonzero">
      <path d="M213.6 116.5s-.3 21-.2 30c.2 9-5.2 3.3-5.7 17.5-.4 14.2 5.3 11.6 8.4 18.5 3 7 5 39.5 5 39.5s-3 6-12.8 11.6a79.5 79.5 0 0 1-39 8 67 67 0 0 1-25.6-5.1 27.6 27.6 0 0 1-8-10.5c-1.5-3.9-4.7-35.8-4.4-54.1.2-18.3 3.2-35.1 3.2-35.1l79-20.3z" fill="#EF9325"/>
      <path d="M132.7 205.5c40 4.4 86.3-7.8 86.3-7.8s-.7-12.3-3.7-16.6c-41.5 12.7-83.4 8.6-83.4 8.6-.6 5.8-.2 10.4.8 15.8zm5 24.3c40 4.4 83.5-8.2 83.5-8.2s.1-11.9-1.5-17c-41.5 12.6-85.9 9.4-85.9 9.4.4 6.3 1.3 12.4 4 15.8z" fill="#E5E5E5"/>
    </g>
    <g fill-rule="nonzero">
      <path d="M229.5 155c-1.3 2.3-3.7 3.4-5.5 2.5l-1.4-.8c-1.8-1-2.3-3.6-1-6l28-52.6c1.2-2.4 3.6-3.5 5.4-2.5l1.4.7c1.8 1 2.3 3.6 1 6l-28 52.7z" fill="#D2E261"/>
      <path d="M216.3 179.8c-.7 1.4-2.8 1.7-4.6.8l-1.4-.8c-1.8-1-2.7-2.8-2-4.1l13.2-24.8c.7-1.3 2.7-1.7 4.5-.7l1.5.7c1.8 1 2.6 2.9 1.9 4.2l-13.1 24.7z" fill="#000"/>
      <path d="M228 150l-1.5-.7c-1.8-1-3.6-1-4-.1l-1 1.5c.6-.8 2.4-.8 4.2.2l1.4.7c1.8 1 2.9 2.5 2.4 3.3l.8-1.5c.5-1-.6-2.4-2.4-3.4z" fill="#9B9B9B"/>
    </g>
    <ellipse fill="#F6D2A2" fill-rule="nonzero" transform="rotate(20.4 216.1 164.3)" cx="216.1" cy="164.3" rx="6.2" ry="4.8"/>
    <g fill-rule="nonzero">
      <path d="M27 155.8c1 2.4 3.5 3.6 5.3 2.8l1.5-.7c1.8-.9 2.4-3.5 1.2-6L9.5 98.2c-1-2.4-3.5-3.7-5.3-2.8l-1.5.7c-1.8.9-2.4 3.5-1.3 5.9l25.5 54z" fill="#D2E261"/>
      <path d="M39 181.3c.6 1.4 2.7 1.8 4.5 1l1.5-.8c1.8-.8 2.7-2.7 2-4l-11.9-25.3c-.6-1.4-2.7-1.9-4.5-1l-1.5.7c-1.8.9-2.7 2.7-2 4L39 181.4z" fill="#000"/>
      <path d="M28.7 151l1.5-.7c1.8-.9 3.6-.9 4 0l.8 1.7c-.4-1-2.2-1-4-.1l-1.5.7c-1.9.8-3 2.3-2.6 3.2l-.7-1.6c-.5-1 .7-2.4 2.5-3.2z" fill="#9B9B9B"/>
    </g>
    <ellipse fill="#F6D2A2" fill-rule="nonzero" transform="rotate(159.6 41 165)" cx="41.1" cy="165" rx="6.2" ry="4.8"/>
    <g transform="translate(26.5 .8)" fill-rule="nonzero">
      <path d="M26.4 88c-1.2 2.2-4.1 3-6.4 1.7l-2.7-1.5a4.7 4.7 0 0 1-2-6.3l27.8-50.5c1.2-2.2 4-3 6.4-1.7l2.7 1.5c2.3 1.3 3 3.7 2 6.3C44.5 65.5 26.4 88 26.4 88z" fill="#960000"/>
      <path d="M33.7 59.2c8.5-15.4 14-28.6 12.7-30.1V29c-13-7-30.5 0-39.2 15.6-8.6 15.7-5.1 34.2 7.8 41.3v.1h.1c2 .3 10.2-11.5 18.6-26.8z" fill="#595959"/>
      <path d="M173 88.1c1.2 2.2 4 3 6.4 1.9l2.7-1.4c2.4-1.2 3.4-4 2.2-6.3L158 31.1c-1.2-2.3-4-3.1-6.4-2l-2.7 1.5c-2.3 1.2-3 3.6-2.2 6.2 9 28.4 26.4 51.3 26.4 51.3z" fill="#960000"/>
      <path d="M166.6 59c-8-15.5-13.2-28.9-11.9-30.4h.1c13.2-6.7 30.5.7 38.7 16.7 8.2 15.9 4.2 34.3-9 41v.1h-.1c-2 .2-9.8-11.7-17.8-27.3z" fill="#595959"/>
      <path d="M192.6 52.5s-9.7-24.3-21-37.2C160.3 2.4 50-2 31.8 15.3c-18.1 17.2-25 37.2-25 37.2V47s8.4-23.7 25-37.2c16.6-13.5 125.5-12.8 139.6 0 14 12.8 21.2 37.2 21.2 37.2v5.4z" fill="#353535"/>
      <ellipse fill="#960000" transform="rotate(152.9 192.5 46.1)" cx="192.5" cy="46.1" rx="3.8" ry="9.3"/>
      <ellipse fill="#960000" transform="rotate(28.8 8.2 45.5)" cx="8.2" cy="45.5" rx="3.8" ry="9.3"/>
    </g>
    <g fill="#FFF" fill-rule="nonzero">
      <path d="M177.6 48.2h-103c-18.5 0-18.4 49-1 51.9l35.8-2.3c4.4 0 13-16.8 14.6-18.1 1.7-1.4 7-1.5 9.1 0 2.1 1.4 7 16.4 11.3 16.4l35.9 4c16.7-7.7 12.5-52-2.7-52z" opacity=".6"/>
      <path d="M102 58.3c-11.4-.2-29.2-.1-38.9 0-1.6 5.3-3.4 12-2.5 18.6h41.6c8.2 0 15 1.5 21.4 3.2l.4-.4c1.7-1.3 7-1.5 9.1 0 .6.4 1.3 1.7 2.2 3.3 3.2.7 6.5 1.2 9.9 1.3h45c1.8-6 .5-12.3 0-18.3l-45.7-.3c-14.7 0-27.5-7-42.6-7.4z" opacity=".5"/>
    </g>
    <path d="M117.4 89.6c-.4-10.6 19.8-11.9 22.1-3 2.4 8.8-21.1 10.9-22.1 3-.8-6.2 0 0 0 0z" fill="#000" fill-rule="nonzero"/>
  </g>
</svg>
