<svg xmlns="http://www.w3.org/2000/svg" width="180" height="180" viewBox="0 0 180 180" version="1">
  <defs>
    <clipPath id="a">
      <path fill="#fc9278" d="M72 173c-32-6-59-33-65-65a137 137 0 0 1 0-43 87 87 0 0 1 167 2c5 17 2 46-5 58-2 1-4 6-6 9l-11 14a84 84 0 0 1-80 25zm22-11c3-4 9-7 19-11 11-4 19-9 26-16l5-4 2 2c2 2 2 2 3 1 3-3 6-15 5-25 0-5-1-6-4-4l-9 4c-9 4-10 4-7 8l2 4-13 8-11 1c-8 0-9-1-11-3-5-4-5-8-5-32V73l7-1h7V62h-6c-8 0-9 0-9-5 0-3 0-4 4-7 12-8 12-25 0-32-8-4-16-3-22 3-5 4-6 7-6 13 0 7 2 12 8 16l5 4v8h-8l-8 1v9h16v48l-3 4c-2 5-6 6-15 6-8 0-16-3-21-7l-2-2 3-3 2-4-7-4-10-5c-6-5-7-4-6 8 1 10 4 19 6 21 1 1 1 1 3-1l1-2 5 5c7 5 15 10 26 15 10 4 16 7 19 11l5 3 4-3zM83 41c-5-6-1-15 6-15 4 0 6 1 8 5 2 3 1 6-2 9-4 4-8 4-12 1z"/>
    </clipPath>
  </defs>
  <path fill="#fefcfc" d="M0 90V0h180v180H0z" clip-path="url(#a)"/>
  <path fill="#fcd6cc" d="M73 176A89 89 0 0 1 68 4c12-3 32-3 44 0 31 8 56 34 64 66 3 12 2 34-1 45a90 90 0 0 1-70 62c-8 1-24 1-32-1zm29-23l11-6c10-3 18-8 25-14s7-7 9-5h2l3-17v-4l-8 4-8 4 2 3 2 3-3 3-8 6-5 3h-11c-12 0-14-2-18-9l-2-4V96l1-25 8-1h7v-6l-8-1h-7l-1-6v-5l4-3c6-4 9-8 9-14 0-19-25-24-32-8-4 9-1 17 7 22l5 3v11H69v7h7l9 1 1 27v25l-3 3c-4 5-7 6-15 7-9 0-15-1-22-6-6-4-7-6-4-10l2-2-7-4-8-4c-2 0 0 13 1 18 1 4 1 4 4 3l8 5c7 6 17 12 28 16 7 3 14 7 17 11l2 2 4-3 9-6zM85 44c-3-1-6-6-6-10l3-7c4-3 7-4 12-1 8 3 7 15-2 18h-7z"/>
  <path fill="#fcc6b6" d="M73 175c-36-7-63-35-69-71-2-11-1-31 2-39C16 33 42 10 74 4a87 87 0 0 1 101 63c3 12 3 30 0 43-7 28-29 53-56 62-14 5-32 6-46 3zm21-16c4-4 6-5 19-10 11-5 19-10 27-17l5-4 1 2c3 2 4 1 5-8 2-6 3-16 2-16l-8 4-9 3c-1 0-1 2 1 4s1 5-3 8c-5 5-13 7-21 7-10 0-14-2-17-8l-2-4V96l1-24 7-1h7l1-3c1-4 0-5-6-5-9 0-10-1-10-6 0-4 0-5 3-6 11-6 13-20 5-28-4-4-7-6-12-6-11 0-18 7-18 17 0 7 3 12 8 16l5 3v4c0 6-1 6-10 6h-7v4l1 4h8l8 1v49l-2 4c-4 5-8 7-18 7-9-1-15-2-21-8l-3-3 2-3 2-4-5-2-8-5-5-1c-1 1 0 12 2 19 1 5 3 7 4 5 0-2 2-1 8 4 7 5 16 11 25 14a63 63 0 0 1 24 15l4-4zM83 41c-6-6-2-16 7-16 6 0 10 7 8 13-3 6-10 8-15 3z"/>
  <path fill="#fca994" d="M80 176A88 88 0 0 1 12 51a87 87 0 0 1 162 16c2 6 2 10 2 23 0 16-1 23-6 34a88 88 0 0 1-90 52zm13-15c0-2 11-8 17-10 11-4 20-10 28-16 4-4 8-6 8-5 2 5 3 4 6-4l1-21-5 2-9 5c-6 1-6 2-3 6l2 2-2 3c-1 1-5 4-9 5-6 3-7 3-14 3-9 0-13-2-16-7-2-3-2-6-2-28V73l5-1c10 0 10 0 10-5v-4l-8-1h-7l-1-5v-4l4-3c3-1 6-4 7-6 2-3 2-4 2-10-1-8-4-13-11-16-14-7-29 8-24 23 1 3 7 9 10 11 3 1 3 2 3 5v5h-8c-9 0-10 1-10 5s1 4 10 5l8 1v18c0 23 0 30-3 34-4 5-7 6-16 6-8 0-14-2-21-7-4-2-4-4-1-6 3-3 2-5-4-7l-9-5-4-2c-3 0 1 25 4 28 1 1 1 1 2-1l2-1 7 5c8 7 17 12 26 15 8 3 15 8 19 11 2 2 3 3 4 2l2-2zM85 43c-4-2-6-9-4-13 2-3 7-5 10-4 6 1 9 8 6 13l-5 4h-7z"/>
  <path fill="#fc714b" d="M161 117l-5-5-1-4c0-6-1-7-4-4-3 2-4 2-15 0-9-3-16-2-28 4l-11 4-1-34v-4l6-1c8 0 9-1 9-7v-4l-8-1h-7l-1-4c0-2 0-3 4-6 6-4 9-9 9-16s-2-11-6-15c-7-6-17-6-24-1-11 8-10 23 1 32 4 3 5 4 5 6v4h-8c-8 0-10 1-10 5 0 6 1 6 10 7l8 1-1 21-1 21c-2 2-15 0-20-2-6-2-11-5-21-14S24 87 14 83l-8-3v-5c1-18 15-41 32-54 25-19 61-23 90-9 33 16 52 51 47 88-1 9-5 21-7 22l-7-5zM86 42c-4-2-6-8-4-12 5-7 15-4 15 4 0 4-1 6-4 8h-7z"/>
  <path fill="#f25a25" d="M71 86l-15-5c-16-6-26-8-38-8H7v-4c3-15 18-38 31-48 8-5 22-12 32-15 10-2 31-2 42 1a85 85 0 0 1 62 68c0 3-3 2-14-3s-15-6-22-6c-8 0-15 3-29 10l-12 6-1-4 1-4 6-1c9 0 9 0 9-6l-1-6-8-1h-7v-3c0-2 1-3 4-6 12-8 12-24 1-32-7-6-20-5-26 2-8 9-7 22 4 30 3 3 4 4 4 6v3h-8c-7 0-8 0-9 2v11l9 1h8v12l-3 1-9-1zm14-46c-6-4-3-13 4-13 4 0 8 4 8 8 0 3-4 7-7 7l-5-2z"/>
  <path fill="#f44904" d="M63 50l-10-8c-7-5-17-10-21-10s-3-2 2-6a86 86 0 0 1 99-9c7 4 18 12 18 14h-10a76 76 0 0 0-30 6l-2-6c-4-19-29-23-38-6-3 7-3 15 2 21l3 5h-6l-7-1zm21-12c-4-5-1-10 6-10 5 0 8 7 4 11-3 3-7 3-10-1z"/>
</svg>
